<?xml version="1.0" encoding="UTF-8" standalone="no"?>
<!-- Created with Inkscape (http://www.inkscape.org/) -->

<svg
   width="512"
   height="512"
   viewBox="0 0 135.46666 135.46667"
   version="1.1"
   id="svg1"
   xml:space="preserve"
   inkscape:version="1.3.2 (091e20e, 2023-11-25, custom)"
   sodipodi:docname="Gift_From_The_Rift.svg"
   xmlns:inkscape="http://www.inkscape.org/namespaces/inkscape"
   xmlns:sodipodi="http://sodipodi.sourceforge.net/DTD/sodipodi-0.dtd"
   xmlns="http://www.w3.org/2000/svg"
   xmlns:svg="http://www.w3.org/2000/svg"
   xmlns:rdf="http://www.w3.org/1999/02/22-rdf-syntax-ns#"
   xmlns:cc="http://creativecommons.org/ns#"
   xmlns:dc="http://purl.org/dc/elements/1.1/"><title
     id="title25">Alter Gift From The Rift</title><sodipodi:namedview
     id="namedview1"
     pagecolor="#727272"
     bordercolor="#666666"
     borderopacity="1.0"
     inkscape:showpageshadow="2"
     inkscape:pageopacity="0.0"
     inkscape:pagecheckerboard="true"
     inkscape:deskcolor="#000000"
     inkscape:document-units="mm"
     inkscape:zoom="1.4142136"
     inkscape:cx="357.79603"
     inkscape:cy="158.03836"
     inkscape:window-width="3840"
     inkscape:window-height="2107"
     inkscape:window-x="-8"
     inkscape:window-y="-8"
     inkscape:window-maximized="1"
     inkscape:current-layer="g21" /><defs
     id="defs1" /><g
     inkscape:label="Invertable"
     inkscape:groupmode="layer"
     id="layer1"><g
       id="g21"
       style="display:inline"
       inkscape:label="Gift From The Rift"
       transform="matrix(1.1792452,0,0,1.1792452,-9.2203676,-9.2505312)"><path
         id="path11-8"
         style="fill:#000000;fill-opacity:0.497512;stroke:none;stroke-width:0.264583px;stroke-linecap:butt;stroke-linejoin:miter;stroke-opacity:1"
         d="m 28.773437,16.734896 7.871355,11.707812 -9.657292,10.616407 -16.602604,2.083593 16.625858,2.365747 9.517249,10.709941 -3.57911,5.253426 1.771468,1.524455 4.934066,-4.525305 17.577739,10.199377 0.01033,-6.013586 L 39.885937,53.262899 27.392643,41.142708 39.885937,29.071094 54.62974,22.801192 55.364062,17.330208 39.654427,25.863021 Z m 72.966603,0 -10.880986,9.128125 -15.709636,-8.532813 0.734322,5.470984 14.743803,6.269902 12.493297,12.071614 -12.493297,12.120191 -17.356563,7.393864 0.01034,6.013586 17.577739,-10.199377 4.934065,4.525305 1.771468,-1.524455 -3.579109,-5.253426 9.517257,-10.709941 16.62585,-2.365747 -16.6026,-2.083593 -9.657296,-10.616407 z m -49.021811,9.525 -11.244792,4.564062 -11.046354,10.343038 11.046354,10.343038 11.572421,5.066874 c -3.341874,-3.308127 -6.968389,-7.188449 -7.250204,-15.409912 0.281815,-8.221463 3.580702,-11.598972 6.922575,-14.9071 z m 25.077022,0 c 3.341874,3.308128 6.640761,6.685637 6.922575,14.9071 -0.281814,8.221463 -3.927967,12.12814 -7.26984,15.436267 L 89.040043,51.510034 100.0864,41.166996 89.040043,30.823958 Z" /><path
         id="path15"
         style="display:inline;fill:#000000;fill-opacity:1;stroke:none;stroke-width:0.265;stroke-linecap:butt;stroke-linejoin:miter;stroke-dasharray:none;stroke-opacity:1"
         d="M 65.256482,9.1906535 C 64.634316,16.655139 64.113564,24.122159 63.763033,31.603239 64.758549,31.348384 65.760275,31.34515 66.768018,31.601689 66.47761,24.118743 65.8126,16.657174 65.256482,9.1906535 Z m -5.621879,16.7209435 -7.717359,7.717358 0.0016,16.931783 h 5.817216 v 7.340121 h 3.222025 v -4.692737 h 2.89078 v 4.692737 h 2.890263 v -4.692737 h 2.890263 v 4.692737 h 3.222542 V 50.560738 H 78.67065 V 33.348352 l -7.436755,-7.436755 h -2.867009 l 0.573609,6.643005 c 0.800139,0.497483 1.603367,1.156811 2.410189,1.986442 -4.219852,-1.53186 -8.22826,-1.203767 -12.137244,0 0.787638,-0.818107 1.580013,-1.476334 2.376599,-1.976623 l 0.574642,-6.652824 z m -2.561601,10.337353 2.397787,2.397787 2.397786,-2.397787 1.951302,1.951302 -2.397786,2.397787 2.397786,2.397786 -1.951302,1.951302 -2.397786,-2.397786 -2.397787,2.397786 L 55.1217,42.995825 57.519486,40.598039 55.1217,38.200252 Z m 11.623063,0 2.397787,2.397787 2.397786,-2.397787 1.951302,1.951302 -2.397786,2.397787 2.397786,2.397786 -1.951302,1.951302 -2.397786,-2.397786 -2.397787,2.397786 -1.951302,-1.951302 2.397787,-2.397786 -2.397787,-2.397787 z m -57.143282,12.674679 3.08715,9.401493 33.780884,32.062126 5.834786,-6.992338 h 5.331974 C 52.99239,78.251039 40.978883,72.078969 41.932841,69.181824 Z m 107.529357,0 -30.380578,20.258195 C 89.655521,72.078969 77.642014,78.251039 71.046826,83.39491 H 76.3788 l 5.834786,6.992338 33.781404,-32.062126 z M 62.487659,62.019987 v 21.702034 h 5.659603 V 62.019987 Z m 1.884122,24.426416 v 5.17e-4 l -6.492627,0.0021 v 3.666959 c 0.331301,0.974518 0.705472,1.881631 1.116211,2.707329 0.579971,-1.774541 2.257176,-3.071131 4.215764,-3.071131 h 4.189408 c 1.95858,0 3.635401,1.296601 4.215247,3.071131 0.366827,-0.737413 0.703552,-1.54169 1.00769,-2.39882 V 86.44902 l -6.496244,-0.0021 v -5.17e-4 l -0.877466,5.17e-4 z m -11.571903,4.371826 c -0.308973,7.695854 0.138825,13.533591 1.189591,17.891931 h 4.787822 V 97.230758 c -0.702604,-0.860547 -1.340789,-1.842126 -1.90221,-2.920236 -0.555373,-1.0665 -1.044148,-2.238388 -1.463993,-3.492293 z m 22.398116,0.0072 c -0.419169,1.251151 -0.907124,2.42065 -1.46141,3.485058 -0.561294,1.077875 -1.200078,2.059305 -1.902726,2.919719 v 11.479914 h 4.675167 c 1.050428,-4.35693 1.499004,-10.192523 1.190625,-17.884691 z m -11.986865,1.588533 c -1.003912,0 -1.771468,0.765488 -1.771468,1.769401 v 14.526767 h 2.674772 2.270145 2.787427 V 94.183398 c 0,-1.003913 -0.767556,-1.769401 -1.771468,-1.769401 z M 62.26545,111.03715 v 4.069 h 6.080766 v -4.069 z m -6.232178,1.63711 v 7.15615 c 0.679467,0.66395 1.103788,1.52474 2.618962,1.54358 h 6.327262 0.595313 6.326745 c 1.515174,-0.0188 1.940012,-0.87963 2.619479,-1.54358 v -7.15615 h -3.695382 v 3.77186 l -2.011247,1.27951 h -3.239595 -0.595313 -3.240112 l -2.011247,-1.27951 v -3.77186 z" /></g></g><metadata
     id="metadata25"><rdf:RDF><cc:Work
         rdf:about=""><dc:title>Alter Gift From The Rift</dc:title></cc:Work></rdf:RDF></metadata></svg>
