<?xml version="1.0" encoding="UTF-8" standalone="no"?>
<!-- Created with Inkscape (http://www.inkscape.org/) -->

<svg
   width="512"
   height="512"
   viewBox="0 0 135.46666 135.46667"
   version="1.1"
   id="svg1"
   xml:space="preserve"
   inkscape:version="1.3.2 (091e20e, 2023-11-25, custom)"
   sodipodi:docname="Void_Nexus.svg"
   xmlns:inkscape="http://www.inkscape.org/namespaces/inkscape"
   xmlns:sodipodi="http://sodipodi.sourceforge.net/DTD/sodipodi-0.dtd"
   xmlns="http://www.w3.org/2000/svg"
   xmlns:svg="http://www.w3.org/2000/svg"
   xmlns:rdf="http://www.w3.org/1999/02/22-rdf-syntax-ns#"
   xmlns:cc="http://creativecommons.org/ns#"
   xmlns:dc="http://purl.org/dc/elements/1.1/"><title
     id="title25">Alter Void Nexus</title><sodipodi:namedview
     id="namedview1"
     pagecolor="#727272"
     bordercolor="#666666"
     borderopacity="1.0"
     inkscape:showpageshadow="2"
     inkscape:pageopacity="0.0"
     inkscape:pagecheckerboard="true"
     inkscape:deskcolor="#000000"
     inkscape:document-units="mm"
     inkscape:zoom="1.4142136"
     inkscape:cx="357.79603"
     inkscape:cy="158.03836"
     inkscape:window-width="3840"
     inkscape:window-height="2107"
     inkscape:window-x="-8"
     inkscape:window-y="-8"
     inkscape:window-maximized="1"
     inkscape:current-layer="layer1" /><defs
     id="defs1" /><g
     inkscape:label="Invertable"
     inkscape:groupmode="layer"
     id="layer1"><g
       id="g10"
       style="display:inline"
       inkscape:label="Void Nexus"
       transform="matrix(1.1729453,0,0,1.1729453,-7.9288275,-7.6366829)"><path
         id="path1"
         style="display:inline;fill:#000000;fill-opacity:1;stroke:none;stroke-width:0.264583px;stroke-linecap:butt;stroke-linejoin:miter;stroke-opacity:1"
         d="m 45.624605,7.8641195 0.942062,20.9754635 3.869531,8.135938 -7.044531,7.871354 -26.988534,-9.276953 23.284367,9.905338 -2.910417,10.583334 -19.435506,0.139526 23.03787,1.687752 -1.75028,2.836003 -0.0026,3.526917 -22.464779,8.319905 11.850956,-2.884062 6.11849,12.336198 -8.929688,6.283854 21.695834,-11.641666 -1.852084,8.896614 2.145089,-0.0155 2.277897,-13.032279 -13.332002,8.484237 -5.777426,-11.895398 10.896493,-3.091284 -0.514181,-4.694288 3.255616,-5.429642 -4.896342,0.04702 2.710945,-9.585461 2.22157,1.012341 9.250082,-9.856763 -4.657081,-9.117789 -0.757059,-6.107121 11.885062,4.253487 13.364559,-4.008541 -0.765328,6.92981 11.142989,6.307108 4.396631,-3.977535 5.615161,14.279749 -7.539591,4.975407 1.074353,5.305102 7.315316,0.177767 -0.818038,11.526429 -5.846672,-3.164665 -6.025472,7.393347 -0.02997,7.559228 5.150073,5.707146 2.740401,0.117305 -5.721614,-6.647656 -0.03307,-5.853906 4.530989,-5.589323 20.479374,8.871293 -13.104113,-7.151502 c 0,0 1.025261,-12.468486 0.892969,-12.435416 -0.132291,0.03307 16.277564,-0.0584 16.277564,-0.0584 L 88.9,54.20651 88.536198,52.023698 109.1799,36.648926 95.514583,44.913021 89.627604,30.1625 98.907141,21.225578 83.211458,33.139062 74.645573,28.277344 75.305481,8.4082723 73.521094,20.108333 59.729687,24.176302 47.426562,19.678385 Z M 67.487354,34.769971 c -0.720118,0.02509 -1.454692,0.162652 -2.069125,0.370003 -5.6145,2.692472 -3.033391,3.014393 -8.21862,6.482292 -3.324008,5.512613 -5.19305,10.382346 -4.729427,14.221354 l 2.94349,6.564974 0.06615,2.695442 c 1.322489,1.209887 2.480277,2.499778 2.282031,4.448308 l 0.56224,1.190625 c 6.002851,6.46815 10.901565,4.353336 12.336197,2.546614 0,0 0.445453,0.0083 0.545704,0.01654 0.07604,0.0063 2.001612,-2.232952 3.539318,-3.078365 2.315304,-1.272928 3.145528,-2.935173 3.108338,-2.957443 1.067929,-1.160957 1.226214,-2.60181 1.785937,-3.91914 -0.0729,-1.048197 0.143597,-2.032086 -0.281119,-3.158464 l 0.181901,-0.942578 0.909505,-3.91914 -0.115755,-2.678907 C 80.080451,51.731582 79.628671,50.8551 78.978129,50.022789 l -1.256771,-1.769401 c -1.521415,-2.11496 -3.003315,-4.355673 -4.99401,-4.977474 -0.58008,-0.105739 -1.150415,-0.162744 -1.686719,-0.04961 -1.316263,0.756392 -2.543849,0.398827 -3.638021,0.03307 l -1.604036,-0.01654 c -2.399112,0.999704 -3.149972,2.24665 -3.819922,3.505729 -1.619816,4.915431 -2.430936,8.329006 -2.199349,9.806119 0.176099,0.690958 0.322454,1.571641 0.96945,2.400888 1.0288,1.3186 1.556767,3.260341 2.255159,4.875154 2.688564,4.644975 7.781802,3.201813 8.49974,0.06615 0.01175,-0.496393 0.209894,-1.543903 -0.08268,-2.480469 0.466433,-0.319499 0.837445,-0.713221 0.909505,-1.339453 0.396777,-2.106098 1.11278,-4.101702 0.429948,-6.58151 -0.237451,-0.245661 -0.0016,-1.69699 -3.125391,-3.571875 -0.876723,-0.267771 -1.773121,-0.49497 -3.340365,0.661458 -0.319354,0.929181 -0.554017,1.877185 -0.479557,2.89388 0.698597,0.864236 0.851013,0.327062 1.240235,0.397392 l 1.5875,-1.57148 c 2.478384,2.083249 2.344544,4.773023 1.967838,6.631119 l -0.06615,0.198438 c -1.213398,1.649074 -1.657375,3.608232 -2.645833,4.464844 l -0.644922,0.06615 -2.530078,-3.009636 -2.579688,-4.663281 2.43086,-8.665104 1.190625,-1.686719 5.341276,0.03307 c 1.083044,0.675293 2.113866,1.381925 2.546614,2.447396 l 1.256771,2.050521 c 0.351884,0.629999 0.62948,1.317721 1.360124,1.653129 0.873205,0.213989 0.805522,0.934707 1.169954,1.422652 0.173935,1.292852 0.481937,2.56467 -0.146761,3.984253 l -0.250114,6.780981 c -0.65247,1.714717 -2.066062,3.700552 -7.242968,7.871354 -0.703072,-0.0618 -1.441425,0.04574 -2.364714,0.380339 -0.530062,0.349743 -1.429076,0.465635 -2.844271,0.132292 l -4.382161,-3.472657 c -0.416843,-3.262811 -1.921393,-3.465852 -2.860808,-4.828646 0.159657,-3.102674 -0.611669,-6.097105 -2.348177,-8.979296 l 4.630209,-12.071615 c 1.163066,-1.400082 2.548052,-2.578253 4.018359,-3.671094 1.153882,-0.374008 1.350203,-0.347108 4.415234,-1.81901 l 2.579688,1.322917 c 0.518141,0.235717 1.036286,0.218638 1.554427,0.148828 0.274127,-0.276772 0.222557,-0.60783 0.248047,-0.926042 -0.06206,-0.394832 -0.02361,-0.739407 -0.330729,-1.256771 -0.764436,-0.60155 -1.458893,-1.2101 -2.645834,-1.769401 -0.556527,-0.241541 -1.26219,-0.328942 -1.982307,-0.303857 z m -13.240536,53.336279 -16.461011,0.578776 -2.38125,8.797396 v 3.340368 l 3.158464,0.57877 0.694531,-0.56224 v -2.943487 l 14.989266,-6.713802 z m 24.421248,0 v 3.075781 l 14.989266,6.713802 v 2.943487 l 0.694532,0.56224 3.158463,-0.57877 v -3.340368 l -2.38125,-8.797396 z m -13.448274,6.649723 -16.040365,7.637777 17.258895,2.50786 17.297135,-2.50786 -16.040364,-7.637777 z M 37.636979,108.47917 27.21901,117.475 l 4.167188,3.175 9.954948,-4.79557 v -6.12728 l -2.050521,-1.24798 z m 55.98728,0 -2.05052,1.24798 v 6.12728 l 9.954951,4.79557 4.16718,-3.175 -10.417965,-8.99583 z" /><path
         id="path2"
         style="fill:#000000;fill-opacity:0.498756;stroke:none;stroke-width:0.264583px;stroke-linecap:butt;stroke-linejoin:miter;stroke-opacity:1"
         d="m 50.537484,25.373645 0.09353,2.058272 5.121651,10.360091 -11.038602,12.137244 -1.450041,-0.631486 -1.192692,4.396631 h 5.659603 l -4.65398,8.021733 0.725021,5.8229 -10.4066,3.063379 3.648356,7.273458 15.528251,-9.82214 -3.250964,17.492473 h 6.080765 l 11.014832,-5.940206 11.148673,5.922636 6.439917,0.0155 -4.632792,-5.026049 0.07028,-9.050094 7.670333,-9.260933 4.606954,2.408638 0.234094,-5.89318 -6.734989,-0.303858 -1.684135,-8.348844 7.366992,-4.841048 -3.905705,-9.728605 -3.391007,3.01687 -13.446725,-7.787639 0.420646,-5.121651 -10.780737,3.180685 z m 15.919958,57.374792 -9.489343,5.027084 9.489343,-0.0021 9.489343,0.0021 z m -9.373588,7.28431 v 2.736784 L 42.06875,99.483333 v 0.727607 h 4.299479 l 17.727083,-8.532815 h 4.72426 l 17.727083,8.532815 h 4.299479 V 99.483333 L 75.83103,92.769531 v -2.736784 z m -8.814966,14.935523 v 2.29185 l 18.188554,2.93522 18.188554,-2.93522 v -2.29185 l -18.188554,2.78329 z m -2.694409,0.092 -3.538285,2.12907 1.520837,0.82683 v 6.38307 l 3.96875,-2.28203 v -1.76682 l 1.488281,-0.81287 -3.439583,-0.62839 z m 41.765926,0 v 3.84886 l -3.439583,0.62839 1.488281,0.81287 v 1.76682 l 3.96875,2.28203 v -6.38307 l 1.520838,-0.82683 z" /></g></g><metadata
     id="metadata25"><rdf:RDF><cc:Work
         rdf:about=""><dc:title>Alter Void Nexus</dc:title></cc:Work></rdf:RDF></metadata></svg>
