<?xml version="1.0" encoding="UTF-8" standalone="no"?>
<!-- Created with Inkscape (http://www.inkscape.org/) -->

<svg
   width="512"
   height="512"
   viewBox="0 0 135.46666 135.46667"
   version="1.1"
   id="svg1"
   xml:space="preserve"
   inkscape:version="1.3.2 (091e20e, 2023-11-25, custom)"
   sodipodi:docname="Void_Passage.svg"
   xmlns:inkscape="http://www.inkscape.org/namespaces/inkscape"
   xmlns:sodipodi="http://sodipodi.sourceforge.net/DTD/sodipodi-0.dtd"
   xmlns="http://www.w3.org/2000/svg"
   xmlns:svg="http://www.w3.org/2000/svg"
   xmlns:rdf="http://www.w3.org/1999/02/22-rdf-syntax-ns#"
   xmlns:cc="http://creativecommons.org/ns#"
   xmlns:dc="http://purl.org/dc/elements/1.1/"><title
     id="title25">Alter Void Passage</title><sodipodi:namedview
     id="namedview1"
     pagecolor="#727272"
     bordercolor="#666666"
     borderopacity="1.0"
     inkscape:showpageshadow="2"
     inkscape:pageopacity="0.0"
     inkscape:pagecheckerboard="true"
     inkscape:deskcolor="#000000"
     inkscape:document-units="mm"
     inkscape:zoom="1.4142136"
     inkscape:cx="357.79603"
     inkscape:cy="158.03836"
     inkscape:window-width="3840"
     inkscape:window-height="2107"
     inkscape:window-x="-8"
     inkscape:window-y="-8"
     inkscape:window-maximized="1"
     inkscape:current-layer="layer1" /><defs
     id="defs1" /><g
     inkscape:label="Invertable"
     inkscape:groupmode="layer"
     id="layer1"><g
       id="g25"
       style="display:inline"
       inkscape:label="Void Passage"
       transform="matrix(1.1924226,0,0,1.1924226,-16.719849,-13.080561)"><path
         id="path21"
         style="fill:#000000;fill-opacity:1;stroke:none;stroke-width:0.264583px;stroke-linecap:butt;stroke-linejoin:miter;stroke-opacity:1"
         d="m 78.834465,12.301058 -2.408639,12.69845 -4.770768,10.290328 -2.853056,28.647863 1.005623,37.487631 12.020455,10.61744 4.536674,7.36648 -2.057755,-7.83415 2.87631,-8.09149 -3.203939,-2.66599 -2.128035,6.00997 -8.25531,-6.969086 -0.9679,-35.961629 2.910417,-28.773438 3.042708,-5.490104 7.871354,7.342188 6.217708,10.451041 11.693348,-9.552905 -9.322433,4.852934 -1.379761,1.075387 -4.794539,-8.816517 -9.354468,-10.383345 z m 5.401737,32.556152 c -0.365085,8.48e-4 -0.74789,0.02435 -1.145667,0.0677 l -4.910811,2.735751 -1.753898,16.72146 0.116789,3.040124 5.89318,1.574581 -5.96346,1.021126 0.608231,17.42271 11.014832,-4.887557 c 5.061774,-4.396095 4.182555,-7.13869 3.343982,-9.89242 -2.171353,-5.298938 -6.071078,-10.548495 -10.4066,-15.7856 l 3.928959,-3.952213 9.471257,8.675956 -0.09354,3.08715 1.215947,2.618962 3.063895,-0.63097 0.420647,-0.678511 -0.09354,-0.888835 1.099155,-2.665987 -2.362127,-2.712496 -1.566829,-0.959114 -9.120374,-13.236402 c -0.726104,-0.47735 -1.664783,-0.677955 -2.760038,-0.675411 z m 7.951969,36.877336 -2.596224,2.618961 -8.278564,3.835425 4.022493,6.384624 c 0.07103,6.877304 5.511993,8.177284 9.89242,4.185791 l 11.786364,-4.700489 0.72502,-0.65474 6.52466,2.268595 3.2272,3.834908 3.99924,0.654739 -6.54793,-15.598529 -1.45004,-0.350367 -2.05827,1.145667 0.0238,0.818555 -3.08715,1.707389 -14.452862,1.940967 z" /><path
         id="path22"
         style="fill:#000000;fill-opacity:0.504975;stroke:none;stroke-width:0.065;stroke-linecap:butt;stroke-linejoin:miter;stroke-dasharray:none;stroke-opacity:1"
         d="m 56.056527,14.756722 5.96346,10.429854 -3.438033,6.501412 -4.490165,-3.343982 -6.80527,0.654741 5.893181,1.356506 4.186307,4.490165 -1.215946,11.996684 -5.495789,-0.935343 c -0.571615,-0.381973 -1.16862,-0.763694 -1.894458,-1.145667 l -0.02325,-0.350883 0.280603,-3.554822 2.455664,1.239718 c 1.838344,0.120337 2.740662,-0.770363 1.894458,-2.689758 -1.306729,-1.273446 -2.933882,-1.371716 -4.490165,-1.730127 -0.32723,-1.707924 -0.307969,-3.478917 -3.438033,-4.677234 -1.760944,-0.843489 -8.140795,-0.69965 -11.178646,3.905188 -2.264875,-1.719686 -4.546526,-3.380245 -6.898804,-4.794023 l -0.759643,0.077 c 2.307911,2.345217 4.486422,4.733794 7.42487,6.868831 l -0.117306,1.964222 0.257349,0.771529 c 1.767488,1.91642 1.868856,1.928384 2.502689,2.549198 l -0.02739,2.192114 2.248958,2.438611 0.187069,1.847433 c 0.51664,0.591489 1.146578,0.857774 2.128035,0.116788 1.99336,-1.075388 3.180308,-0.900417 3.928959,-0.04651 l 4.536674,14.054956 c 1.477523,0.160543 2.736484,0.0094 3.78995,1.526522 l 0.827856,0.381888 0.06666,6.501929 c -3.75474,1.182093 -7.13534,3.421333 -10.25002,6.229077 l -1.309998,0.116789 -2.478918,4.490165 c -0.482337,3.948218 -0.654194,7.725267 -7.647079,15.271419 -0.972006,0.517665 -2.188489,0.49757 -3.60133,0.04651 -3.463363,-3.083834 -7.356539,-2.95492 -7.617106,-1.777152 0.810364,8.54652 5.995607,8.54762 7.032128,7.92768 l 2.806548,2.80655 c 1.031903,0.96277 2.152162,1.33634 3.578076,-0.32763 l 2.011246,-4.67724 c 2.146342,-2.19587 4.176273,-4.603421 6.174817,-6.121068 1.292507,-0.981499 1.787088,-1.410568 2.50114,-2.461348 1.108044,-1.350876 1.154399,-3.104534 1.276924,-4.841048 0.331604,-1.796308 1.856088,-1.897573 2.277897,-1.770435 1.068286,0.369665 2.142566,0.672519 3.297474,-0.170532 0.760305,-0.802942 1.558279,-1.042928 2.362129,-1.192692 0.179293,4.380989 0.0176,10.037062 0.620634,13.258623 l -0.522965,0.37982 -2.085661,6.12262 -6.969084,5.40226 8.676473,-3.97547 2.36213,-5.33197 8.488888,8.53591 -1.473296,11.95017 5.799646,-12.09073 -10.780737,-11.459249 -0.65474,-36.762614 2.782776,-28.203963 4.602303,-8.666655 c -0.264583,-0.198436 -0.766879,-1.505851 -0.766879,-1.505851 z m -12.090735,40.598039 -0.09354,4.700488 c -1.393018,2.135927 -2.969628,4.225443 -4.022493,6.361369 -2.163306,-0.529894 -4.00729,-1.371456 -6.688481,-0.86558 l -6.384106,-1.730644 -2.104781,-3.296957 -2.36213,-1.894458 c -0.760369,0.698205 -1.674256,1.273443 -2.15129,2.198316 v 0.631486 l 0.280603,0.444417 c 0.01837,1.040129 -0.0256,2.121435 0.350883,2.922819 l 3.367237,1.388029 1.730643,-0.12609 4.232817,2.643766 c 2.34827,0.008 3.694775,0.900154 5.004862,1.824178 l 2.923336,0.865064 c 0.158572,4.319634 8.213457,0.726063 5.706112,-2.853056 L 47.1227,64.826017 Z" /></g></g><metadata
     id="metadata25"><rdf:RDF><cc:Work
         rdf:about=""><dc:title>Alter Void Passage</dc:title></cc:Work></rdf:RDF></metadata></svg>
