<?xml version="1.0" encoding="UTF-8" standalone="no"?>
<svg
   version="1.1"
   viewBox="0 0 512 512"
   width="512"
   height="512"
   id="svg36"
   sodipodi:docname="2t5FAat9rTApcI4EXHdrxeP7k8x.svg"
   xml:space="preserve"
   inkscape:version="1.3.2 (091e20e, 2023-11-25, custom)"
   xmlns:inkscape="http://www.inkscape.org/namespaces/inkscape"
   xmlns:sodipodi="http://sodipodi.sourceforge.net/DTD/sodipodi-0.dtd"
   xmlns="http://www.w3.org/2000/svg"
   xmlns:svg="http://www.w3.org/2000/svg"><defs
     id="defs36" /><sodipodi:namedview
     id="namedview36"
     pagecolor="#ffffff"
     bordercolor="#666666"
     borderopacity="1.0"
     inkscape:showpageshadow="2"
     inkscape:pageopacity="0.0"
     inkscape:pagecheckerboard="true"
     inkscape:deskcolor="#201a1a"
     showgrid="false"
     inkscape:zoom="1.630765"
     inkscape:cx="318.56214"
     inkscape:cy="327.76028"
     inkscape:window-width="3840"
     inkscape:window-height="2080"
     inkscape:window-x="-11"
     inkscape:window-y="-11"
     inkscape:window-maximized="1"
     inkscape:current-layer="svg36" /><g
     id="g38"
     transform="translate(1.122e-5,49.63125)"><path
       id="path1"
       style="fill:#000000;fill-opacity:1;stroke-width:0.51162"
       d="m 176.87931,3 -2.5581,2.046478 -14.32534,0.5116195 -9.72077,2.5580974 -7.16267,4.0929561 -8.69754,6.139434 -7.16267,7.162673 -3.58134,4.604575 v 4.092956 l 0.51162,2.046478 2.5581,7.674293 4.09296,9.72077 3.06971,3.581336 -0.51161,4.604576 1.02323,1.534858 3.06972,1.534859 0.51162,4.092956 2.5581,4.092956 2.04648,1.023239 v 2.046478 l 1.02324,4.092956 3.06971,2.046478 5.1162,0.511619 6.13943,10.744009 4.60458,5.627815 4.09295,3.581335 2.5581,1.02324 -0.51162,1.53486 -3.06972,5.11619 -4.09295,7.6743 v 3.58133 l 1.53486,1.53486 6.65105,2.5581 v 35.81336 l -1.02324,-0.51162 -14.83697,-4.09295 -17.90668,-5.1162 -4.60457,-0.51162 v -7.16267 l -1.02324,-2.5581 -3.06972,-3.58133 -5.62781,-3.58134 -8.69753,-2.04648 -18.418306,-3.06972 h -5.116195 l -3.581337,1.02324 -0.511619,2.04648 h -3.069717 l -0.51162,0.51162 -0.511619,2.5581 1.534858,1.53486 -2.046478,2.04648 0.51162,2.04647 6.651053,4.09296 1.534859,3.58134 2.046478,2.55809 6.651053,3.58134 13.30211,5.62781 6.13943,2.5581 17.90668,8.18591 h -2.04647 l -5.1162,-2.55809 h -5.11619 l -2.5581,1.02323 -0.51162,2.04648 7.16267,4.60458 28.65069,17.39506 10.74401,6.65105 5.1162,2.5581 6.65105,-0.51162 -0.51162,-3.06971 -5.11619,-3.58134 -22.51126,-14.32535 v -1.53486 l 1.53486,-0.51161 2.04647,0.51161 9.72078,5.1162 7.16267,2.5581 5.11619,0.51162 1.02324,-1.53486 3.06972,-2.5581 8.18591,-2.04648 1.02324,-1.53486 1.53486,-4.60457 -0.51162,-2.5581 -2.5581,-2.04648 4.60458,-11.76724 4.09295,1.53485 16.88345,7.6743 19.95316,9.20915 1.53485,-0.51162 4.09296,-1.53486 h 6.13943 l 4.60458,1.53486 4.09296,0.51162 3.58133,-4.60458 3.06972,-5.62781 4.09296,-9.72077 2.55809,-10.23239 0.51162,-6.13944 -1.53486,-1.53486 -1.53485,-16.37182 -3.06972,-2.04648 -2.04648,-1.02324 v -1.02324 h 3.06972 l 2.5581,1.02324 6.13943,1.02324 18.4183,6.13944 v 1.02324 l -2.5581,1.53485 -4.09295,3.58134 -3.58134,5.1162 -4.09296,9.72077 -6.13943,19.44154 -3.58134,7.16267 -4.09295,6.65105 -3.58134,4.09296 h -3.58133 l -2.04648,-0.51162 -7.67429,-3.06972 -4.60458,-0.51162 -2.04648,1.02324 -6.65105,5.1162 0.51162,1.02324 5.11619,0.51162 4.09296,1.02323 1.02324,2.5581 -3.58134,7.16267 -3.58134,6.65106 -0.51161,4.09295 h 1.53485 l 3.58134,3.06972 4.60458,1.02324 2.55809,1.02324 11.76725,-6.13944 2.04648,-2.04647 6.13943,-12.79049 4.09296,-6.65105 7.67429,-10.23239 6.65106,-8.18592 5.62781,-7.16267 6.65105,-9.20915 4.60458,-8.69753 2.04648,-6.65105 6.13943,-5.62782 h 3.06972 l 1.02324,-1.02324 2.04647,-6.65105 v -4.60458 l -1.02323,-3.06971 -3.06972,-7.6743 -2.04648,-2.55809 -5.62781,-3.58134 -3.06972,-0.51162 -1.02324,1.02324 0.51162,3.58134 -1.53486,-0.51162 -9.72077,-4.60458 -8.69753,-5.116194 -1.02324,-2.558097 -4.09296,-3.069717 -8.69753,-5.116195 h -3.58133 l -2.04648,-2.558097 -5.62782,-8.697532 -3.06971,-3.581336 -6.65106,-6.139434 -9.72077,-7.162673 -7.67429,-5.116195 -10.74401,-5.627815 -2.5581,-0.511619 -12.79048,34.278506 v 10.23239 l -1.02324,1.534858 -3.58134,1.023239 -0.51162,-6.651053 -2.04648,-4.604575 v -3.069717 l 2.5581,-6.651054 8.18591,-22.511258 0.51162,-4.092956 -3.58133,-7.162672 -4.60458,-8.697532 -4.09296,-11.767248 -3.06971,-4.604576 -4.09296,-3.581336 -5.11619,-3.5813366 -0.51162,-4.0929559 z m 161.16014,113.57953 -1.53486,1.53486 -6.13943,7.16267 -6.65105,8.18591 -5.62782,7.16267 -4.60457,5.1162 -3.58134,4.09295 -4.60457,5.1162 -2.5581,1.53486 -2.5581,4.09295 -7.67429,10.23239 -5.62782,7.16268 -6.65105,8.18591 -5.1162,7.16267 -0.51161,2.04648 11.25562,4.09296 7.16268,3.58133 9.72077,6.13944 19.95316,6.13943 0.51162,-1.02324 -7.6743,-15.34858 -2.04647,-6.65106 -2.04648,-16.37182 -2.04648,-8.18591 -0.51162,-2.5581 5.62782,-7.16267 4.09295,-5.1162 6.65106,-8.18591 7.16267,-8.69753 5.62781,-7.16267 1.53486,-6.13944 0.51162,-5.11619 z m 1.02324,49.62709 -1.02324,0.51162 -12.27887,3.06971 -3.06971,-1.53485 h -6.13944 l -2.04647,0.51162 -0.51162,2.04647 3.06971,22.51126 2.04648,0.51162 7.16267,4.60458 12.79049,10.23239 5.62782,4.09295 3.58133,1.53486 4.09296,-0.51162 1.53486,-1.02324 3.06971,-0.51162 2.04648,1.02324 h 4.60458 l 2.55809,-1.02324 3.58134,-3.06971 3.58134,-5.62782 v -4.60457 l -1.02324,-2.5581 -3.06972,-3.58134 -5.11619,-3.58133 -4.09296,-3.58134 -1.02324,-4.60458 -1.02324,-2.55809 -4.09295,-4.09296 -5.1162,-4.09296 -6.65105,-4.09295 z m -150.92775,22.51126 -4.09295,0.51162 -2.04648,1.02323 v 3.06972 l 1.02324,1.53486 7.67429,6.13943 5.62781,3.58134 4.60458,0.51162 h 27.62745 l 3.58134,-6.65105 1.02324,-2.5581 -2.5581,-0.51162 -12.27887,-4.60458 -13.30211,-2.04647 z m 82.37074,12.27886 -1.02324,2.5581 -4.09296,8.18591 0.51162,1.53486 2.5581,2.5581 8.18591,10.23239 3.06972,-0.51162 2.5581,-3.06972 5.11619,-2.55809 h 6.65106 l 2.04647,1.02323 3.06972,2.5581 1.53486,3.06972 v 6.13943 l 2.04648,2.04648 10.74401,4.09296 23.02287,8.18591 18.92993,6.13943 21.99963,6.65106 19.95316,5.11619 21.48802,4.60458 18.92992,3.06971 17.90669,2.04648 15.34858,1.02324 h 23.5345 l 1.53486,-2.04648 5.11619,-4.09295 4.60458,-4.60458 0.51162,-3.58134 -4.09296,-0.51162 -18.4183,-1.02323 -4.60458,-0.51162 -19.44154,-2.5581 -17.90668,-3.06972 -22.51126,-4.60457 -20.9764,-5.1162 -26.60421,-7.16267 -34.27851,-10.23239 -37.34822,-11.76725 -5.62781,-3.58134 -8.18592,-4.60457 -9.72077,-4.09296 z m -79.30102,8.18592 -11.25563,6.65105 -4.60458,3.58134 -0.51162,4.60457 -0.51162,0.51162 -6.65105,3.58134 -4.60457,0.51162 v -1.02324 l -2.5581,-3.06972 -6.65106,-1.02324 h -8.69753 l -0.51162,0.51162 -5.11619,9.72077 -5.62782,12.79049 -0.51161,4.09295 3.58133,2.5581 5.62782,5.1162 5.62781,4.60457 3.06972,0.51162 3.06971,-1.02324 5.1162,3.58134 0.51162,2.5581 -1.02324,3.58133 1.53486,4.60458 6.65105,6.13943 5.62782,0.51162 6.13943,4.60458 9.20915,9.20915 5.1162,6.65105 3.58133,5.62782 3.58134,8.18591 3.06972,11.25563 1.53485,9.72077 v 8.18591 l -1.02323,5.11619 -2.04648,4.09296 -3.58134,3.06972 -4.09296,1.53486 -2.04647,2.04647 0.51162,3.58134 1.53485,0.51162 5.62782,-2.5581 4.09296,-3.58133 3.06971,-4.09296 2.04648,-5.62781 1.02324,-6.65106 v -6.65105 l -0.51162,-5.62782 -2.04648,-11.25562 -3.58133,-10.74401 -4.09296,-8.18592 -4.60458,-7.16267 -5.62781,-7.16267 -4.09296,-4.09296 -5.11619,-6.65105 -4.09296,-4.09296 -2.04648,-3.06971 v -4.60458 h 5.1162 l 10.74401,2.04648 10.23239,3.06972 11.25563,5.11619 6.65105,2.5581 3.58134,-3.06972 0.51162,-3.06972 -1.02324,-1.02323 -8.69753,-5.1162 -9.20915,-4.09296 -6.13944,-2.04647 -2.04648,-5.1162 -4.09295,-4.60457 1.53486,-0.51162 51.67357,-10.74401 16.37182,-3.58134 v -4.09296 l -1.02324,-9.72077 5.1162,13.81373 5.11619,8.69753 6.65105,9.20915 6.13944,6.65106 6.65105,6.13943 7.16267,5.62781 10.74401,7.16268 12.79049,6.65105 12.27887,5.62782 10.74401,3.58133 0.51162,9.20915 1.02324,14.32535 1.02324,3.58134 28.13907,2.55809 1.53486,3.06972 6.13943,2.04648 5.11619,0.51162 1.53486,-1.02324 h 4.60458 l 4.09295,1.02324 2.04648,2.04648 6.13944,7.16267 4.09295,6.13943 5.62782,10.74401 5.62781,12.79049 3.58134,10.23239 2.5581,10.74401 v 7.16267 l -2.5581,8.18591 -0.51162,4.09296 1.02324,1.02324 h 3.58133 l 1.53486,-1.02324 2.5581,-4.60458 1.53486,-6.13943 v -7.16267 l -1.53486,-8.18592 -4.60458,-14.83696 -4.09295,-12.79049 -4.09296,-10.23239 -5.11619,-8.69753 -5.1162,-6.13943 -4.09295,-3.58134 -5.1162,-4.60458 -5.62781,-4.60457 -6.65106,-5.62782 -2.55809,-2.04647 4.60457,-1.53486 9.72077,-1.53486 17.39506,-1.53486 13.81373,-0.51162 1.02324,-1.02324 0.51162,-2.55809 -1.53486,-1.53486 -3.58134,-0.51162 v -2.5581 l -3.06971,-2.04648 -7.16268,-1.02324 h -12.27886 l -2.5581,-0.51162 -2.04648,-1.53486 -6.13943,-2.04647 h -9.72077 l -3.06972,0.51162 -6.13943,0.51162 -1.53486,-2.04648 -4.09296,-3.06972 -7.67429,-2.5581 -2.5581,-2.55809 -3.06972,-8.69754 -6.13943,-11.76724 -2.04648,-2.04648 -24.04611,-8.18591 -25.06936,-9.20915 -5.11619,-4.09296 1.02324,-4.09296 v -3.58133 l -2.04648,-2.04648 h -4.09296 l -1.02324,0.51162 -3.58133,3.58134 -3.58134,2.04647 h -5.1162 l -1.53485,-0.51162 -2.5581,-2.55809 -4.60458,-6.13944 -3.58133,-4.09295 -3.06972,-1.02324 -2.5581,0.51162 -4.09295,1.53486 -6.13944,2.55809 -4.09295,-0.51162 -5.62782,-1.53486 -2.5581,-2.04647 -5.62781,0.51162 -1.53486,-7.16268 -27.62745,-0.51162 -4.60458,-0.51162 z" /><path
       id="path37"
       style="fill:#000000;fill-opacity:0.499107;stroke:none;stroke-width:0.51162px;stroke-linecap:butt;stroke-linejoin:miter;stroke-opacity:1"
       d="m 498.90134,37.739174 -135.1225,0.275795 -55.6606,55.623627 0.98026,0.784415 c 3.68586,1.901112 7.26421,4.105322 10.50919,7.255599 2.23996,3.88552 4.37328,7.9092 5.88262,12.74453 l 8.98033,-9.84268 9.41199,2.5491 h 1.09819 c 4.9424,3.61364 6.41222,8.20522 6.11745,13.29411 l -2.23434,13.29412 -19.7653,24.00015 3.4904,-0.35274 c 1.69458,-0.51735 3.40202,-1.01732 4.58759,-2.19637 2.46818,-0.40308 4.95751,-0.54056 7.5294,0.35274 6.46436,3.60429 12.85473,7.3209 18.1575,12.66758 4.92058,4.00005 5.82091,8.00002 7.01978,12.00008 5.94815,4.20146 12.57766,7.06554 14.70606,18.76504 0.10028,12.21482 -6.65269,20.1243 -18.07855,25.09834 25.55209,7.22767 51.05086,14.47879 80.78392,19.83224 l -75.95152,-75.81461 z m -162.5531,0.331753 -113.56154,0.231828 c 8.32455,5.177888 15.90723,8.925151 25.85077,16.317861 7.59685,5.648019 14.85684,11.195427 20.21597,22.106557 6.43921,1.810636 12.4948,6.112313 18.52322,10.593122 z M 119.57546,55.799735 0.75880756,174.83621 136.33699,307.71938 h 45.74998 l -0.001,-10e-4 c -3.59969,-4.76961 -8.1891,-8.9617 -13.03331,-13.00534 l -5.90661,-0.028 c -7.13953,-6.16947 -14.67108,-12.28219 -14.80798,-19.46653 -4.13901,-0.5194 -7.29264,-3.85304 -10.759,-6.29432 l -8.65157,-7.70926 -2.80091,-1.33101 c -2.09824,-3.54873 -5.207,-5.68807 -3.54936,-14.47524 3.40965,-9.07364 7.43387,-18.27493 13.33807,-27.86827 1.38447,-1.6638 2.94394,-3.32749 6.79395,-4.99129 8.91998,-0.58712 16.59264,0.21689 22.79405,2.66203 l 1.16413,-1.83065 -54.01782,-32.55478 -3.99303,-6.15642 v -3.02176 C 98.73055,166.73636 85.125426,165.05582 78.902685,153.1513 76.16791,151.96278 67.200141,146.95091 70.056267,136.07 c 0.177522,-3.03722 -0.157752,-9.79557 8.291833,-13.50495 5.919688,-4.21473 8.749947,-6.45206 36.4479,-0.68449 0.15048,0.0314 0.30566,0.0281 0.45865,0.0419 13.34194,1.20596 23.78643,10.0061 26.81706,20.46978 l 16.88744,4.9633 v -13.86463 c -9.02024,-4.49241 -12.73941,-11.88543 -4.04899,-26.06662 -4.70532,-4.48538 -7.34017,-9.297347 -10.12147,-14.086519 -7.1128,-1.743641 -11.12854,-6.175918 -12.70056,-12.728536 -2.63899,-2.929369 -3.52798,-5.566901 -4.4367,-8.207896 -4.6867,-3.84523 -4.94469,-7.690188 -5.35202,-11.535418 z m 139.46128,190.995955 -42.28855,8.95634 c 3.78977,1.93053 7.57977,3.97163 11.36954,6.8499 14.0119,12.31748 -2.77532,29.33332 -13.39404,26.20451 l -16.13899,-7.15368 c 7.12366,8.68874 12.48184,17.37688 16.05605,26.06562 l 118.40494,-0.001 -0.46865,-5.04525 c -39.79514,-14.98119 -60.84091,-34.43392 -73.5403,-55.87642 z m 107.35615,21.43406 1.92157,5.17615 c 4.13867,1.10872 8.0944,2.54034 10.94187,5.92159 8.64029,-1.50561 17.29442,-2.91201 27.05887,3.45144 11.3947,-0.35169 23.2628,-1.53125 29.4511,7.21563 7.03766,3.64754 8.6008,9.84304 6.54913,17.72182 l 0.001,10e-4 68.92474,-10e-4 -20.67563,-20.63865 c -54.31425,0.0433 -90.75166,-8.66382 -124.17267,-18.84798 z" /></g></svg>
