<?xml version="1.0" encoding="UTF-8" standalone="no"?>
<!-- Created with Inkscape (http://www.inkscape.org/) -->

<svg
   width="512"
   height="512"
   viewBox="0 0 135.46666 135.46667"
   version="1.1"
   id="svg1"
   xml:space="preserve"
   inkscape:version="1.4.2 (f4327f4, 2025-05-13)"
   sodipodi:docname="Kickstart.svg"
   xmlns:inkscape="http://www.inkscape.org/namespaces/inkscape"
   xmlns:sodipodi="http://sodipodi.sourceforge.net/DTD/sodipodi-0.dtd"
   xmlns="http://www.w3.org/2000/svg"
   xmlns:svg="http://www.w3.org/2000/svg"
   xmlns:rdf="http://www.w3.org/1999/02/22-rdf-syntax-ns#"
   xmlns:cc="http://creativecommons.org/ns#"
   xmlns:dc="http://purl.org/dc/elements/1.1/"><title
     id="title12">Kickstart</title><sodipodi:namedview
     id="namedview1"
     pagecolor="#676767"
     bordercolor="#000000"
     borderopacity="0.24705882"
     inkscape:showpageshadow="2"
     inkscape:pageopacity="0.0"
     inkscape:pagecheckerboard="true"
     inkscape:deskcolor="#000000"
     inkscape:document-units="mm"
     inkscape:zoom="1.7227654"
     inkscape:cx="137.85975"
     inkscape:cy="258.0154"
     inkscape:window-width="3440"
     inkscape:window-height="1369"
     inkscape:window-x="-8"
     inkscape:window-y="-8"
     inkscape:window-maximized="1"
     inkscape:current-layer="svg1" /><defs
     id="defs1" /><g
     id="g30"
     transform="matrix(0.28109823,0,0,0.28109823,624.3832,150.93609)"
     inkscape:label="Kickstart"
     style="display:inline"><path
       id="path22"
       style="fill:#000000;fill-opacity:1;stroke-width:0.322262;stroke-opacity:0.92549"
       d="m -1980.7985,-486.20908 v 0.1204 c -3.4625,0.49831 -6.4402,2.64177 -9.0883,4.80953 -5.4956,4.72883 -9.9896,10.50801 -13.9573,16.54524 -1.7362,2.7348 -3.453,5.52153 -4.6519,8.5385 -1.5632,9.06861 -2.3124,18.24895 -2.9885,27.42003 -5.7344,3.4681 -11.4686,6.93643 -17.203,10.40453 -5.8722,-7.97441 -14.3999,-13.73919 -23.6658,-17.06665 -11.1385,-4.05 -23.1786,-5.03953 -34.9446,-4.32222 -15.8674,1.01837 -31.4648,5.09406 -46.067,11.31817 -10.0394,4.27022 -19.5821,9.72479 -28.2448,16.36386 -10.2851,7.88492 -19.5631,17.21425 -26.7534,28.02981 -4.2353,6.46582 -7.8365,13.53731 -9.2464,21.19819 -0.5007,2.72465 -0.5731,5.51587 -0.293,8.26668 -0.1392,6.99968 1.1175,14.28418 5.0715,20.19205 2.4057,3.66796 5.827,6.56884 9.617,8.73125 11.1329,6.73752 24.0686,10.17639 37.0194,10.75903 16.7453,0.76392 33.4706,-2.812 49.0022,-8.92245 16.8222,-6.67221 32.5001,-16.33105 45.8241,-28.60084 9.1927,-8.55157 17.35,-18.44431 22.7273,-29.85554 2.0651,-4.39264 3.6429,-9.01859 4.6038,-13.779 -4.1303,0.0999 -8.2602,0.20458 -12.3904,0.30644 0.1549,-0.68517 0.74,-0.94485 1.3286,-1.20096 9.6473,-4.83257 19.2744,-9.71786 28.9341,-14.51746 0.6428,-0.34664 0.6396,0.2781 0.322,0.66042 -2.199,4.74676 -4.4015,9.4923 -6.5986,14.23996 1.2097,20.39586 2.4229,40.7915 3.6308,61.18748 8.5997,4.21984 18.3171,5.593 27.8174,5.40587 0.1012,-0.0255 0.2283,-0.0258 0.3628,-0.0186 0.099,0.0291 0.226,0.0314 0.3617,0.0248 0.136,0.007 0.2637,0.004 0.3633,-0.0248 0.1344,-0.007 0.2611,-0.007 0.3622,0.0186 9.5003,0.18713 19.2178,-1.18603 27.8175,-5.40587 1.2079,-20.39598 2.4211,-40.79162 3.6308,-61.18748 -2.1971,-4.74766 -4.3996,-9.4932 -6.5986,-14.23996 -0.3176,-0.38232 -0.3209,-1.00706 0.3219,-0.66042 9.6597,4.7996 19.2869,9.68489 28.9342,14.51746 0.5886,0.25611 1.1737,0.51579 1.3286,1.20096 -4.1302,-0.10186 -8.2602,-0.20654 -12.3905,-0.30644 0.9609,4.76041 2.5388,9.38636 4.6039,13.779 5.3773,11.41123 13.5346,21.30397 22.7273,29.85554 13.324,12.26979 29.0019,21.92863 45.8241,28.60084 15.5316,6.11045 32.2568,9.68637 49.0021,8.92245 12.9508,-0.58264 25.8866,-4.02151 37.0195,-10.75903 3.79,-2.16241 7.2113,-5.06329 9.617,-8.73125 3.954,-5.90787 5.2107,-13.19237 5.0715,-20.19205 0.2801,-2.75081 0.2077,-5.54203 -0.293,-8.26668 -1.4099,-7.66088 -5.0112,-14.73237 -9.2465,-21.19819 -7.1903,-10.81556 -16.4683,-20.14489 -26.7534,-28.02981 -8.6627,-6.63907 -18.2054,-12.09364 -28.2448,-16.36386 -14.6022,-6.22411 -30.1995,-10.2998 -46.0669,-11.31817 -11.766,-0.71731 -23.8062,0.27222 -34.9447,4.32222 -9.2659,3.32746 -17.7935,9.09224 -23.6657,17.06665 -5.7344,-3.4681 -11.4687,-6.93643 -17.2031,-10.40453 -0.6761,-9.17108 -1.4252,-18.35142 -2.9884,-27.42003 -1.1989,-3.01697 -2.9158,-5.8037 -4.652,-8.5385 -3.9677,-6.03723 -8.4616,-11.81641 -13.9572,-16.54524 -2.6482,-2.16776 -5.6258,-4.31122 -9.0884,-4.80953 v -0.1204 c -0.1765,0.0189 -0.3535,0.038 -0.5302,0.0568 -0.1767,-0.0189 -0.3536,-0.038 -0.5302,-0.0568 z m -110.8769,58.16906 c 32.4222,-0.14172 43.5381,23.84153 32.1742,45.6153 -2.8714,5.50182 -6.8526,10.3684 -11.3166,14.6575 -6.8426,6.56089 -13.8945,12.03195 -22.4384,16.10135 -8.9039,4.21375 -19.2925,7.92535 -29.052,9.30434 -7.7355,1.07852 -15.6585,1.17924 -23.3567,-0.24185 -5.2894,-0.98783 -11.3468,-3.06507 -15.951,-5.88336 -3.3463,-2.09151 -6.2493,-5.10222 -8.4553,-8.39225 -1.7427,-2.58863 -3.0416,-5.85595 -3.6499,-8.91522 -0.7164,-3.87047 0.279,-7.87644 1.2232,-11.68766 1.3539,-5.37465 3.9811,-10.35894 7.2368,-14.81925 4.6618,-6.37416 11.6459,-13.13812 18.0842,-17.67592 2.2959,-1.60708 4.5428,-3.03714 6.8068,-4.33566 0.4901,-0.28112 1.8274,-0.38984 1.4733,-0.82527 -5.4426,-6.69311 15.9501,-16.48646 19.6918,-8.10441 0.2429,0.54406 1.1331,-0.35342 1.6939,-0.52193 9.737,-2.9259 18.3536,-4.24301 25.8357,-4.27571 z m 222.8143,0 c 7.4821,0.0327 16.0986,1.34981 25.8356,4.27571 0.5608,0.16851 1.4511,1.06599 1.694,0.52193 3.7417,-8.38205 25.1344,1.4113 19.6918,8.10441 -0.3541,0.43543 0.9832,0.54415 1.4733,0.82527 2.264,1.29852 4.5109,2.72858 6.8068,4.33566 6.4383,4.5378 13.4224,11.30176 18.0842,17.67592 3.2557,4.46031 5.8828,9.4446 7.2367,14.81925 0.9442,3.81122 1.9396,7.81719 1.2232,11.68766 -0.6083,3.05927 -1.9072,6.32659 -3.6499,8.91522 -2.206,3.29003 -5.109,6.30074 -8.4553,8.39225 -4.6042,2.81829 -10.6616,4.89553 -15.951,5.88336 -7.6982,1.42109 -15.6212,1.32037 -23.3567,0.24185 -9.7595,-1.37899 -20.148,-5.09059 -29.0519,-9.30434 -8.5439,-4.0694 -15.5959,-9.54046 -22.4385,-16.10135 -4.464,-4.2891 -8.4452,-9.15568 -11.3166,-14.6575 -11.3639,-21.77377 -0.2479,-45.75702 32.1743,-45.6153 z m -257.6778,3.53363 a 4.1783806,7.4259944 70.085197 0 0 -4.5698,0.9369 4.1783806,7.4259944 70.085197 0 0 -4.9382,6.53655 4.1783806,7.4259944 70.085197 0 0 8.7659,0.94258 4.1783806,7.4259944 70.085197 0 0 4.9676,-6.53294 l -0.013,-0.0248 a 4.1783806,7.4259944 70.085197 0 0 -4.2126,-1.85829 z m 292.5413,0 a 7.4259944,4.1783806 19.914803 0 0 -4.2127,1.85829 l -0.013,0.0248 a 7.4259944,4.1783806 19.914803 0 0 4.9677,6.53294 7.4259944,4.1783806 19.914803 0 0 8.7658,-0.94258 7.4259944,4.1783806 19.914803 0 0 -4.9382,-6.53655 7.4259944,4.1783806 19.914803 0 0 -4.5697,-0.9369 z m -270.5856,4.4204 a 8.0872802,14.373055 70.085197 0 0 -8.8449,1.81436 8.0872802,14.373055 70.085197 0 0 -9.5581,12.65039 8.0872802,14.373055 70.085197 0 0 16.9675,1.82522 8.0872802,14.373055 70.085197 0 0 9.6144,-12.64471 l -0.025,-0.0481 a 8.0872802,14.373055 70.085197 0 0 -8.1541,-3.5972 z m 248.6298,0 a 14.373055,8.0872802 19.914803 0 0 -8.154,3.5972 l -0.025,0.0481 a 14.373055,8.0872802 19.914803 0 0 9.6144,12.64471 14.373055,8.0872802 19.914803 0 0 16.9674,-1.82522 14.373055,8.0872802 19.914803 0 0 -9.558,-12.65039 14.373055,8.0872802 19.914803 0 0 -8.845,-1.81436 z m -151.261,90.70868 -1.5204,0.54312 9.2305,22.15368 h 2.7151 c 2.9007,-4.45251 8.4076,-6.58835 16.5209,-6.40736 8.1133,-0.18099 13.6203,1.95485 16.521,6.40736 h 2.7151 l 9.2304,-22.15368 -1.5203,-0.54312 c -8.5477,4.01812 -17.5297,5.86447 -26.9462,5.53868 -9.4165,0.32579 -18.3984,-1.52056 -26.9461,-5.53868 z" /><path
       id="path23"
       style="fill:#000000;fill-opacity:0.684659;stroke-width:0.322262;stroke-opacity:0.92549"
       d="m -2095.2101,-426.15332 c -8.4664,0.0242 -14.9949,2.09013 -21.6886,3.81631 l -0.9772,4.66948 3.3662,-2.49752 c 6.8779,-2.85974 13.032,-3.25813 18.4619,-1.19476 2.1225,1.47834 4.2758,2.68718 6.1898,5.97276 0.525,2.11766 0.5073,4.23544 -0.054,6.3531 l -0.8692,2.389 c 4.6156,-3.64422 8.0924,-6.52882 13.901,-10.96832 l 6.5158,0.97772 c 1.7919,0.30769 3.5835,0.398 5.3754,0.2713 -3.638,-3.02263 -7.7828,-5.3938 -12.4344,-7.11326 -6.9294,-1.96989 -12.7071,-2.6903 -17.787,-2.67581 z m 229.8836,0 c -5.0799,-0.0145 -10.8571,0.70592 -17.7865,2.67581 -4.6516,1.71946 -8.7963,4.09063 -12.4343,7.11326 1.7919,0.1267 3.5834,0.0364 5.3753,-0.2713 l 6.5154,-0.97772 c 5.8086,4.4395 9.2854,7.3241 13.901,10.96832 l -0.8692,-2.389 c -0.5613,-2.11766 -0.5788,-4.23544 -0.054,-6.3531 1.914,-3.28558 4.0673,-4.49442 6.1898,-5.97276 5.4299,-2.06337 11.584,-1.66498 18.4619,1.19476 l 3.3662,2.49752 -0.9772,-4.66948 c -6.6937,-1.72618 -13.2222,-3.79211 -21.6886,-3.81631 z m -272.2598,12.61267 -2.0635,1.57458 c -25.3183,13.03766 -49.8102,51.28881 -9.2309,64.45291 2.5813,1.4204 14.1546,3.73984 30.0276,0.59738 19.5302,-4.70423 38.4923,-11.7182 53.5931,-34.4258 5.0655,-9.91389 9.0098,-19.92943 3.0949,-30.84153 -4.3002,-0.56185 -8.6261,-0.68879 -12.9775,-0.38034 -16.1766,10.13855 -32.3063,23.52747 -48.7603,14.3893 l -0.7059,0.81443 c 0.7421,3.20364 2.4976,5.82816 5.2668,7.87342 7.856,2.6828 16.0491,4.93124 42.0275,-15.74685 h 0.5431 c 2.3167,1.53848 4.416,4.30799 6.2983,8.30802 2.9651,8.26086 -2.4857,15.41002 -6.8957,22.69681 -19.6049,20.19575 -53.9829,30.44285 -70.9145,11.72848 -4.7421,-10.58829 3.2578,-26.78738 22.6968,-39.31233 l -0.1086,-8.25324 2.6066,-2.93212 c -7.4435,2.37867 -12.2761,2.19756 -14.4978,-0.54312 z m 314.6361,0 c -2.2217,2.74068 -7.0544,2.92179 -14.4979,0.54312 l 2.6066,2.93212 -0.1085,8.25324 c 19.439,12.52495 27.4389,28.72404 22.6968,39.31233 -16.9316,18.71437 -51.3096,8.46727 -70.9145,-11.72848 -4.41,-7.28679 -9.8608,-14.43595 -6.8957,-22.69681 1.8823,-4.00003 3.9816,-6.76954 6.2983,-8.30802 h 0.5431 c 25.9784,20.67809 34.1714,18.42965 42.0274,15.74685 2.7692,-2.04526 4.5248,-4.66978 5.2669,-7.87342 l -0.7059,-0.81443 c -16.454,9.13817 -32.5838,-4.25075 -48.7604,-14.3893 -4.3514,-0.30845 -8.6773,-0.18151 -12.9775,0.38034 -5.9149,10.9121 -1.9706,20.92764 3.0949,30.84153 15.1008,22.7076 34.0629,29.72157 53.5931,34.4258 15.873,3.14246 27.4464,0.82302 30.0277,-0.59738 40.5793,-13.1641 16.0873,-51.41525 -9.231,-64.45291 z m -199.6581,18.43453 c -11.9329,69.0828 -123.7009,104.82307 -161.8837,68.86247 l -2.0924,0.077 c 17.8331,20.13191 70.7453,31.87811 115.1884,2.11046 51.6768,-30.69962 49.6858,-66.10916 50.525,-71.04993 z m 82.9427,0 c 0.8392,4.94077 -1.1517,40.35031 50.5251,71.04993 44.4431,29.76765 97.3552,18.02145 115.1883,-2.11046 l -2.0924,-0.077 c -38.1828,35.9606 -149.9507,0.22033 -161.8836,-68.86247 z m -120.436,79.95481 c -12.8921,8.07226 -25.2727,12.5612 -37.1409,13.46637 2.991,53.46679 11.2231,105.36107 18.0273,157.68391 l 0.8692,-3.04064 c 4.9854,-56.20957 9.5116,-112.49177 18.2444,-168.10964 z m 159.6667,0 c 8.7328,55.61787 13.259,111.90007 18.2444,168.10964 l 0.8692,3.04064 c 6.8042,-52.32284 15.0363,-104.21712 18.0273,-157.68391 -11.8682,-0.90517 -24.2488,-5.39411 -37.1409,-13.46637 z m -79.8334,12.27161 c -8.1134,-0.1448 -13.9098,3.04116 -17.3896,9.55704 l 17.3896,187.54824 17.3897,-187.54824 c -3.4798,-6.51588 -9.2763,-9.70184 -17.3897,-9.55704 z m -184.3045,0.97771 -1.7379,0.43409 c 3.29,34.47517 7.4403,68.95055 11.882,103.42572 l 0.461,0.76792 c 5.1232,-33.13396 10.4035,-66.16318 18.9332,-97.02612 -11.1494,-0.36199 -20.9953,-2.8957 -29.5383,-7.60161 z m 368.609,0 c -8.543,4.70591 -18.3888,7.23962 -29.5382,7.60161 8.5297,30.86294 13.81,63.89216 18.9332,97.02612 l 0.461,-0.76792 c 4.4417,-34.47517 8.5919,-68.95055 11.8819,-103.42572 z" /></g><metadata
     id="metadata12"><rdf:RDF><cc:Work
         rdf:about=""><dc:title>Kickstart</dc:title></cc:Work></rdf:RDF></metadata></svg>
