<?xml version="1.0" encoding="UTF-8" standalone="no"?>
<!-- Created with Inkscape (http://www.inkscape.org/) -->

<svg
   width="512"
   height="512"
   viewBox="0 0 135.46666 135.46667"
   version="1.1"
   id="svg1"
   xml:space="preserve"
   inkscape:version="1.4.2 (f4327f4, 2025-05-13)"
   sodipodi:docname="Nitro Gate.svg"
   xmlns:inkscape="http://www.inkscape.org/namespaces/inkscape"
   xmlns:sodipodi="http://sodipodi.sourceforge.net/DTD/sodipodi-0.dtd"
   xmlns="http://www.w3.org/2000/svg"
   xmlns:svg="http://www.w3.org/2000/svg"
   xmlns:rdf="http://www.w3.org/1999/02/22-rdf-syntax-ns#"
   xmlns:cc="http://creativecommons.org/ns#"
   xmlns:dc="http://purl.org/dc/elements/1.1/"><title
     id="title12">Nitro Gate</title><sodipodi:namedview
     id="namedview1"
     pagecolor="#676767"
     bordercolor="#000000"
     borderopacity="0.24705882"
     inkscape:showpageshadow="2"
     inkscape:pageopacity="0.0"
     inkscape:pagecheckerboard="true"
     inkscape:deskcolor="#000000"
     inkscape:document-units="mm"
     inkscape:zoom="1.7227654"
     inkscape:cx="137.85975"
     inkscape:cy="258.0154"
     inkscape:window-width="3440"
     inkscape:window-height="1369"
     inkscape:window-x="-8"
     inkscape:window-y="-8"
     inkscape:window-maximized="1"
     inkscape:current-layer="svg1" /><defs
     id="defs1" /><g
     id="g12"
     transform="matrix(0.28109823,0,0,0.28109823,28.894392,35.761488)"
     style="display:inline"
     inkscape:label="Nitro Gate"><path
       id="path3"
       style="fill:#000000;fill-opacity:1;stroke-width:0.322262;stroke-opacity:0.92549"
       d="M -97.855003,-57.724637 -9.9172233,45.604973 -25.568983,105.03081 37.678317,64.282903 47.217787,31.671457 5.2100167,-3.3434604 C -60.389133,-29.968834 -71.757233,-41.843639 -97.855003,-57.724637 Z m 472.047153,0.179834 c -26.09777,15.880998 -39.1159,26.812709 -104.71505,53.4380817 l -42.45323,36.0324263 9.53947,32.611446 66.30138,41.256919 -15.65176,-59.934849 z M 32.043007,2.8494433 l 29.71292,25.3860477 -7.82588,26.658838 27.45827,-18.67638 1.10949,-11.990482 -12.34343,-11.516093 z m 213.209723,0.254248 -38.11136,9.8619307 -12.34344,11.516093 1.1095,11.990482 27.45827,18.67638 -7.82588,-26.658838 z M 77.721357,13.137187 89.058647,23.304526 87.348677,34.192233 110.20361,17.726055 C 98.943947,16.844723 88.268167,15.087801 77.721357,13.137187 Z m 121.853033,0.254248 c -10.54681,1.950615 -21.2226,3.707536 -32.48226,4.588868 l 22.85494,16.466178 -1.70998,-10.887707 z M 135.46667,49.218706 106.78418,66.31482 90.588267,83.140667 135.39742,59.20621 180.34507,83.140667 164.14916,66.31482 Z m -0.0692,16.286345 -46.338773,23.664188 -21.7749,25.733831 68.294033,-32.841924 68.29402,32.841924 -21.99711,-25.733831 z m 0.0388,31.636312 v 0.02739 l -74.541183,33.210897 -52.0976003,59.07133 1.7094603,-0.045 124.959813,-53.93935 124.95982,53.93935 1.70945,0.045 -52.09759,-59.07133 -74.54119,-33.210897 v -0.02739 l -0.0305,0.01344 z" /><path
       id="path6"
       style="fill:#000000;fill-opacity:0.5;stroke-width:0.322262;stroke-opacity:0.92549"
       d="M 150.70812,24.387147 355.32509,208.38987 315.24123,143.62018 Z m -25.00933,0.540019 -164.533623,119.232514 -40.08335,64.77021 z" /><path
       style="fill:#000000;fill-opacity:1;stroke-width:0.426132;stroke-opacity:0.92549"
       id="path10"
       sodipodi:type="arc"
       sodipodi:cx="134.66806"
       sodipodi:cy="235.43011"
       sodipodi:rx="54.201813"
       sodipodi:ry="10.443007"
       sodipodi:start="0"
       sodipodi:end="6.2765464"
       sodipodi:open="true"
       sodipodi:arc-type="arc"
       d="m 188.86987,235.43011 a 54.201813,10.443007 0 0 1 -54.11185,10.443 54.201813,10.443007 0 0 1 -54.291474,-10.40833 54.201813,10.443007 0 0 1 53.931634,-10.47754 54.201813,10.443007 0 0 1 54.4705,10.37355" /><path
       id="path10-5"
       style="fill:#000000;fill-opacity:0.5;stroke-width:0.849294;stroke-opacity:0.92549"
       d="m 134.20938,211.82842 a 92.126869,24.405022 0 0 0 -91.667793,24.48585 92.126869,24.405022 0 0 0 92.279133,24.32409 92.126869,24.405022 0 0 0 91.97423,-24.40471 l -0.002,-0.16226 a 92.126869,24.405022 0 0 0 -92.5835,-24.24297 z m 0.0894,5.47202 a 74.184708,16.261063 0 0 1 74.55256,16.1525 l 0.002,0.10801 a 74.184708,16.261063 0 0 1 -74.06163,16.26102 74.184708,16.261063 0 0 1 -74.307613,-16.20676 74.184708,16.261063 0 0 1 73.815133,-16.31477 z m -95.268603,21.23385 -14.93656,18.80557 c 2.2866,15.70806 47.24022,27.36583 57.31692,27.71355 l -0.36019,-23.66471 c -17.42124,-4.13802 -36.58362,-6.50122 -42.02017,-22.85441 z m 190.040603,0.14934 c -5.43655,16.35319 -24.59894,18.7164 -42.02018,22.85442 l -0.35967,23.6647 c 10.0767,-0.34772 55.0298,-12.00549 57.3164,-27.71355 z M 86.269157,260.48902 v 18.80557 c 13.811073,4.4308 80.104673,4.70117 96.835433,0.14934 v -18.80557 c -11.77116,6.202 -84.513893,6.27955 -96.835433,-0.14934 z" /></g><metadata
     id="metadata12"><rdf:RDF><cc:Work
         rdf:about=""><dc:title>Nitro Gate</dc:title></cc:Work></rdf:RDF></metadata></svg>
