<?xml version="1.0" encoding="UTF-8" standalone="no"?>
<!-- Created with Inkscape (http://www.inkscape.org/) -->

<svg
   width="512"
   height="512"
   viewBox="0 0 135.46666 135.46667"
   version="1.1"
   id="svg1"
   xml:space="preserve"
   inkscape:version="1.4.2 (f4327f4, 2025-05-13)"
   sodipodi:docname="Drift.svg"
   xmlns:inkscape="http://www.inkscape.org/namespaces/inkscape"
   xmlns:sodipodi="http://sodipodi.sourceforge.net/DTD/sodipodi-0.dtd"
   xmlns="http://www.w3.org/2000/svg"
   xmlns:svg="http://www.w3.org/2000/svg"
   xmlns:rdf="http://www.w3.org/1999/02/22-rdf-syntax-ns#"
   xmlns:cc="http://creativecommons.org/ns#"
   xmlns:dc="http://purl.org/dc/elements/1.1/"><title
     id="title12">Drift</title><sodipodi:namedview
     id="namedview1"
     pagecolor="#676767"
     bordercolor="#000000"
     borderopacity="0.24705882"
     inkscape:showpageshadow="2"
     inkscape:pageopacity="0.0"
     inkscape:pagecheckerboard="true"
     inkscape:deskcolor="#000000"
     inkscape:document-units="mm"
     inkscape:zoom="1.7227654"
     inkscape:cx="137.85975"
     inkscape:cy="258.0154"
     inkscape:window-width="3440"
     inkscape:window-height="1369"
     inkscape:window-x="-8"
     inkscape:window-y="-8"
     inkscape:window-maximized="1"
     inkscape:current-layer="svg1" /><defs
     id="defs1" /><g
     id="g31"
     transform="matrix(0.28109823,0,0,0.28109823,213.14772,126.67201)"
     style="display:inline"
     inkscape:label="Drift"><path
       id="path12"
       style="fill:#000000;fill-opacity:1;stroke-width:0.322262;stroke-opacity:0.92549"
       d="m -583.04896,-285.94886 c -14.2242,0.14141 -29.291,8.87924 -30.5413,19.7745 -2.9418,12.13718 4.5268,20.4569 9.7979,29.58269 0.8941,0.30302 0.612,0.54272 0.3477,1.85932 -1.192,0.44422 -1.5694,0.87953 -2.327,0.16537 l -16.0165,14.05909 2.1595,3.41943 -2.4293,2.51922 c -13.1152,8.64517 -24.7827,19.17268 -35.002,31.58257 l 0.8098,2.51974 c -2.2195,2.58506 -4.4385,4.50428 -6.658,5.75831 -8.199,1.92395 -10.3702,6.23393 -13.947,9.9875 -0.041,1.41328 0.3793,2.6735 1.2599,3.77962 -1.1691,-0.60899 -2.5174,1.29143 -3.7791,1.9792 -10.0487,9.45561 -12.965,19.58394 -17.9958,29.51293 -2.4573,4.28074 -5.2771,7.91015 -8.4584,10.88771 l -23.5743,11.60704 c 2.492,3.97502 6.571,4.72485 12.237,2.24948 l 17.186,-6.02857 4.1393,0.54002 2.2495,1.97972 c 3.3705,-0.28029 5.41,-0.97025 6.1185,-2.06964 l -4.9491,-6.56859 0.4501,-1.43971 c 1.2631,-2.42943 4.2498,-4.8585 6.7485,-7.28793 2.539,-0.26788 4.6682,-1.04816 6.3882,-2.33991 6.8395,-4.35516 12.4485,-9.72367 16.8264,-16.10599 l 21.055,-15.29622 c 1.3268,1.14733 4.9228,1.8501 9.2263,0.38705 7.2953,-2.48012 17.6228,-4.95557 26.495,-5.96604 l 3.5094,-2.78898 c 1.3461,-0.11274 2.8457,-0.53281 4.4989,-1.25987 9.9854,10.43988 16.4472,14.29202 23.2146,18.71565 10.6372,6.97083 21.0931,12.31274 31.1511,14.93966 3.5775,0.76743 6.7207,0.37627 9.4294,-1.17305 l 1.7095,-0.35967 1.8097,0.15503 1.6996,-0.4253 h 0.8098 c 13.0346,11.16914 26.0558,22.11273 38.2411,18.98592 l 8.81803,-4.85913 50.11787,3.14916 25.19433,16.55609 1.79937,1.61954 3.32952,-1.07952 c 7.80943,-3.03035 11.3186,-7.28935 10.52752,-12.777 l 3.23908,-4.22919 c -8.37428,-8.8582 -18.18189,-15.15664 -29.42301,-18.89549 -4.78745,-1.0311 -7.93694,-0.73128 -9.448,0.89968 -2.09229,-0.30198 -3.80049,-0.55236 -6.5071,0.1695 -1.3528,-2.61662 -4.11362,-4.46552 -6.89984,-6.46782 -2.43666,-0.10444 -4.5659,0.40542 -6.38824,1.52962 l -1.52962,0.36019 c -3.54229,-4.49681 -6.7967,-6.75382 -11.77241,-6.33605 -1.98991,-1.50172 -1.89874,-1.7725 -0.26872,-2.55023 25.66833,4.75581 49.7181,9.88831 78.17559,6.27662 l 35.45159,19.07532 22.58467,3.7791 3.77909,1.25987 c 7.08677,5.48731 15.74403,13.82413 20.25871,15.82074 1.82958,0.66552 5.73243,0.43524 6.8709,-0.53744 6.41416,-3.10662 10.44783,-5.80348 14.17433,-10.77867 1.14664,-1.59035 0.75726,-3.35992 0.061,-5.4622 -8.06155,-5.57849 -15.87433,-9.49621 -23.43888,-11.75328 -1.39599,1.57822 -2.79238,1.78064 -4.18837,0.60771 -2.69707,0.53416 -5.46615,0.48935 -8.30802,-0.13487 -0.63356,-0.92489 -1.55711,-1.48788 -2.76986,-1.68879 -0.49961,-2.89133 -1.94025,-5.42082 -4.32222,-7.58817 l -3.77031,-1.91823 -10.12031,-1.52135 -32.01459,-21.89427 0.0661,-1.98438 0.8599,0.39688 0.26458,-2.31511 c -4.68672,-3.42413 -10.39731,-5.21006 -17.13177,-5.35781 l -2.24896,0.92604 c -16.01322,-7.80686 -31.44724,-13.29696 -46.30208,-16.47031 -22.50117,-2.66355 -45.17653,-4.76131 -68.8227,-3.70365 l -2.2805,-1.4118 c -0.1484,-2.02716 -0.6551,-4.05412 -1.5203,-6.08128 -14.4547,-1.02725 -24.9161,-6.45742 -31.3846,-16.28996 l -0.2176,-1.4118 -3.9093,-3.90933 v -1.4118 l 8.5793,-1.73736 7.4931,-3.80132 7.059,-4.66948 3.6923,-1.73736 c 4.046,-2.27541 6.7608,-5.063 8.1447,-8.36228 l 3.992,-4.0349 c 0.2021,-0.23989 0.4456,-0.44624 0.5281,-0.78186 0.061,-0.35995 0.0639,-0.67531 0.01,-0.94568 -0.07,-0.24972 -0.186,-0.44113 -0.3458,-0.57567 -0.3933,-0.59011 0.307,-0.73921 0.5054,-1.21802 -0.01,0.0511 -0.017,0.10269 -0.0222,0.15503 l 0.0228,-0.15606 -6e-4,5.2e-4 c 0.1585,-0.83071 0.9143,-1.49997 2.2681,-2.00763 0.4303,-1.88129 -0.1529,-2.67658 -1.7497,-2.38591 -3.7751,0.29763 -7.5498,1.20948 -11.3249,2.73576 l -6.3309,3.84937 -3.3404,5.47202 c -1.4206,0.58688 -2.534,1.27592 -3.3403,2.06757 -5.2808,-0.92808 -10.5617,-0.52527 -15.8425,1.20872 l -2.99,-1.97198 -12.7253,0.98599 -1.5586,-0.92242 1.6847,-7.20267 0.1927,-1.28777 c 0.5983,-1.49914 0.4001,-2.12937 0.383,-3.19412 l -2.6934,-2.44688 c -2.7901,-7.09065 -3.0039,-15.70763 -9.2677,-20.73982 -4.7408,-4.09251 -11.0321,-5.8045 -17.4976,-5.74022 z m 304.09202,196.592137 -446.61252,2.457213 369.89886,16.317868 2.45721,0.15348 0.96015,0.268716 0.76791,0.806669 0.23048,0.575676 -22.92212,46.688623 0.30696,0.614433 z" /><path
       id="path13"
       style="fill:#000000;fill-opacity:0.5;stroke-width:0.322262;stroke-opacity:0.92549"
       d="m -758.26776,-397.87174 106.7243,196.09397 0.7296,-0.4222 0.1918,-0.99838 20.0809,-17.4315 c -1.6021,-1.46471 5.0337,-11.27272 14.2828,-16.4331 z m 130.3177,27.80088 40.4497,74.22493 20.1192,1.45883 23.1138,28.87317 5.2984,8.83098 5.2219,1.53583 1.7663,-1.15187 8.293,0.23048 z m 101.4212,9.4909 91.34011,156.01218 1.08573,1.08624 c 14.09264,-0.0427 33.39548,8.16374 52.23557,15.6378 17.52009,2.55064 27.87318,7.76357 31.05908,15.63833 l 12.81473,9.66504 z m 25.648,129.31458 -1.3823,2.76469 -14.5904,8.90747 12.2866,5.2219 h 2.9182 3.8395 l 3.5321,0.92139 4.915,6.91121 h 10.75023 z m -96.3362,76.76121 -39.5294,7.81916 -14.8782,11.61996 -24.0001,19.54765 -5.7557,15.963884 1.5203,1.194758 h 63.0954 l 51.91,-34.534332 c -4.9644,-1.0095 -9.4172,-3.14534 -13.3578,-6.40736 -9.4616,-6.40795 -13.5743,-10.52354 -19.0045,-15.20372 z m 216.65289,22.58829 7.81916,10.42572 -0.8692,6.51588 -2.389,3.25768 1.8464,1.8464 c -0.71263,2.33432 -1.835,4.36128 -3.36672,6.08128 l -4.66948,5.104083 0.43408,0.65164 h 74.28125 c -5.49609,-3.235223 -10.89013,-7.289663 -16.18144,-12.163083 -8.50062,-0.49029 -16.89848,-1.90163 -25.19433,-4.23488 l -20.41684,-11.83752 z m -172.77909,3.47524 -44.3079,30.190402 100.3442,-0.217041 9.99116,-7.385081 c -15.43876,1.3625 -28.44006,-8.65147 -41.48476,-18.4614 -7.8739,2.92468 -16.0545,1.54895 -24.5427,-4.12688 z m 89.48443,18.78748 -15.20372,10.642762 h 61.14045 l -14.11748,-8.144722 c -9.44802,0.0724 -19.40273,-0.43486 -29.86433,-1.52084 z" /></g><metadata
     id="metadata12"><rdf:RDF><cc:Work
         rdf:about=""><dc:title>Drift</dc:title></cc:Work></rdf:RDF></metadata></svg>
