<?xml version="1.0" encoding="UTF-8" standalone="no"?>
<!-- Created with Inkscape (http://www.inkscape.org/) -->

<svg
   width="512"
   height="512"
   viewBox="0 0 135.46666 135.46667"
   version="1.1"
   id="svg1"
   inkscape:version="1.4.2 (f4327f4, 2025-05-13)"
   sodipodi:docname="Motherlode.svg"
   xmlns:inkscape="http://www.inkscape.org/namespaces/inkscape"
   xmlns:sodipodi="http://sodipodi.sourceforge.net/DTD/sodipodi-0.dtd"
   xmlns="http://www.w3.org/2000/svg"
   xmlns:svg="http://www.w3.org/2000/svg"
   xmlns:rdf="http://www.w3.org/1999/02/22-rdf-syntax-ns#"
   xmlns:cc="http://creativecommons.org/ns#"
   xmlns:dc="http://purl.org/dc/elements/1.1/">
  <title
     id="title1">Motherlode - Fuse</title>
  <sodipodi:namedview
     id="namedview1"
     pagecolor="#ffffff"
     bordercolor="#000000"
     borderopacity="1"
     inkscape:showpageshadow="2"
     inkscape:pageopacity="0.0"
     inkscape:pagecheckerboard="true"
     inkscape:deskcolor="#000000"
     inkscape:document-units="px"
     inkscape:zoom="1.0396254"
     inkscape:cx="-475.65209"
     inkscape:cy="242.87594"
     inkscape:window-width="3440"
     inkscape:window-height="1369"
     inkscape:window-x="-8"
     inkscape:window-y="-8"
     inkscape:window-maximized="1"
     inkscape:current-layer="layer1" />
  <defs
     id="defs1" />
  <g
     inkscape:label="Layer 1"
     inkscape:groupmode="layer"
     id="layer1">
    <g
       id="g11"
       transform="translate(0,-3.472226)">
      <path
         id="path1"
         style="fill:#000000;fill-opacity:1;stroke-width:0.472192"
         d="m 108.17567,6.196607 -0.98888,8.96508 -6.26269,-1.186511 3.23016,4.153166 -6.723807,2.768271 7.053177,1.516643 2.24203,7.712695 3.42778,-4.812673 3.95478,3.29603 -0.39525,-6.855561 5.33967,0.593634 -4.41665,-4.746798 4.74604,-6.526184 -8.63571,4.615047 z m -81.514839,7.496139 -2.570654,9.597332 -8.635694,-4.66578 4.746028,6.598119 -4.416656,4.799043 5.339672,-0.600448 -0.39525,6.931279 3.954782,-3.332376 3.427777,4.865678 2.241267,-7.797501 7.053949,-1.533301 -6.723815,-2.799316 3.23016,-4.198597 -6.262688,1.199383 z M 92.090773,24.48946 C 73.059442,40.155711 70.763243,60.938602 70.993301,82.493684 l 0.302881,0.209741 C 76.312083,67.802676 76.189873,55.185645 102.2098,30.94977 l -1.31826,-4.746041 z m -49.374574,7.350003 -8.965081,2.10952 -1.252388,4.614291 C 54.787877,57.937965 59.372391,74.2595 63.423718,90.541815 l 0.585306,0.75794 C 64.99783,63.393405 57.899894,43.573314 42.716199,31.839463 Z M 101.65857,57.868485 C 83.259913,57.38587 72.924288,97.877635 70.305779,109.81446 c 5.487444,-8.22791 16.511214,-29.076097 25.705704,-39.336559 3.53822,-3.948433 7.622447,-5.260351 11.643247,-3.94948 l 3.63525,-0.60575 0.05,-4.221311 c -3.44403,-2.577956 -6.67069,-3.753901 -9.68138,-3.832875 z m -82.86188,5.254113 -1.510579,5.115547 -5.60242,-1.164551 3.225618,3.364933 -5.430546,1.786202 6.320228,0.56789 -1.952013,5.702367 4.596104,-3.882093 3.18928,3.961597 -0.207478,-5.111762 6.383834,4.752099 -5.526696,-7.50674 3.685221,-5.145837 -5.537304,2.236728 z m 96.96825,2.590332 -0.0234,4.33489 -4.45149,0.280159 3.98582,2.586547 0.0697,0.302873 -2.98332,1.655209 3.70567,0.396009 -0.0696,4.987584 2.98331,-3.752614 3.84573,2.027743 -1.25844,-4.870976 5.17385,0.06966 -5.91967,-2.703154 2.21401,-5.127663 -3.96235,3.65948 -0.67617,-0.04695 z m -86.000414,2.237485 -2.167814,2.656965 3.190774,4.468154 c 5.877006,0.759968 8.743492,1.453433 12.052893,3.767757 10.134332,7.087114 15.333794,20.975714 19.405151,31.293729 l 0.592882,0.65875 C 60.515795,96.696155 56.670335,69.57162 29.764526,67.950415 Z m 2.141322,15.43902 14.502386,9.42696 -5.0103,-8.17458 z m 76.813482,9.3361 -9.574617,0.34604 -4.21904,5.19959 z m -8.22001,30.740985 0.55956,0.58227 13.02814,6.75865 -3.5194,-4.66124 12.16646,0.20974 z m -61.645533,1.49166 -26.685495,11.25633 10.021346,-1.58479 z" />
      <path
         style="fill:#000000;fill-opacity:0.5;stroke-width:0.472192"
         d="m 52.176079,98.155655 2.406092,4.383705 -6.427249,-1.61505 3.460833,5.20772 -20.929767,1.02177 0.791042,0.72512 19.215827,2.43906 -0.889916,0.62625 -22.347054,8.5367 0.823995,0.26369 26.796692,-3.39491 -5.833957,7.87751 0.06594,0.23071 16.315317,-6.78981 13.019309,4.21891 0.19776,-0.19776 -0.85698,-4.91108 21.09457,0.46144 -1.05473,-0.75808 -17.69965,-3.79043 25.906757,-7.25126 0.3296,-0.4944 -28.148067,1.61505 9.39368,-9.294785 -0.36256,-0.26368 -6.09764,2.43906 3.92227,-5.93285 9.12999,-3.19714 -8.9652,11.634955 0.29665,0.23073 49.737027,-4.812195 -2.04353,0.72513 -42.452817,14.172905 0.29664,0.56032 32.136247,6.16357 -35.201547,0.95584 3.82339,8.93223 -25.181632,-6.75684 -26.137493,13.3489 L 40.4752,135.20298 47.990144,120.5027 47.561648,120.37082 0,128.54497 l 38.13503,-17.63373 0.230717,-0.49441 -37.904298,-3.85635 37.278053,-3.46083 0.06594,-0.29664 -6.855731,-8.536695 z"
         id="path9" />
    </g>
  </g>
  <metadata
     id="metadata1">
    <rdf:RDF>
      <cc:Work
         rdf:about="">
        <dc:title>Motherlode - Fuse</dc:title>
        <dc:rights>
          <cc:Agent>
            <dc:title>EA</dc:title>
          </cc:Agent>
        </dc:rights>
        <dc:source>Apex Legends</dc:source>
        <dc:publisher>
          <cc:Agent>
            <dc:title>EA</dc:title>
          </cc:Agent>
        </dc:publisher>
        <dc:creator>
          <cc:Agent>
            <dc:title>Apex Legends</dc:title>
          </cc:Agent>
        </dc:creator>
        <dc:description>SVG recreation of in-game icon from Apex Legends.
Copyright belongs to the game developer.
Vectorized by Spec-gineff.</dc:description>
      </cc:Work>
    </rdf:RDF>
  </metadata>
</svg>
