<?xml version="1.0" encoding="UTF-8" standalone="no"?>
<!-- Created with Inkscape (http://www.inkscape.org/) -->

<svg
   width="512"
   height="512"
   viewBox="0 0 135.46666 135.46667"
   version="1.1"
   id="svg1"
   xml:space="preserve"
   inkscape:version="1.4.2 (f4327f4, 2025-05-13)"
   sodipodi:docname="Gravity_Lift.svg"
   xmlns:inkscape="http://www.inkscape.org/namespaces/inkscape"
   xmlns:sodipodi="http://sodipodi.sourceforge.net/DTD/sodipodi-0.dtd"
   xmlns="http://www.w3.org/2000/svg"
   xmlns:svg="http://www.w3.org/2000/svg"
   xmlns:rdf="http://www.w3.org/1999/02/22-rdf-syntax-ns#"
   xmlns:cc="http://creativecommons.org/ns#"
   xmlns:dc="http://purl.org/dc/elements/1.1/"><title
     id="title1">Horizon</title><sodipodi:namedview
     id="namedview1"
     pagecolor="#646769"
     bordercolor="#000000"
     borderopacity="0.25"
     inkscape:showpageshadow="2"
     inkscape:pageopacity="0.0"
     inkscape:pagecheckerboard="true"
     inkscape:deskcolor="#000000"
     inkscape:document-units="mm"
     labelstyle="default"
     inkscape:zoom="0.25990636"
     inkscape:cx="-309.72694"
     inkscape:cy="1333.1725"
     inkscape:window-width="2560"
     inkscape:window-height="1369"
     inkscape:window-x="-8"
     inkscape:window-y="-8"
     inkscape:window-maximized="1"
     inkscape:current-layer="layer1" /><defs
     id="defs1" /><g
     inkscape:label="Layer 1"
     inkscape:groupmode="layer"
     id="layer1"><g
       id="g4"
       transform="matrix(0.30637721,0,0,0.30637721,155.06704,29.000988)"><path
         id="path1"
         style="fill:#000000;stroke-width:0.322262"
         d="m -285.05288,-94.657788 -98.34697,197.143518 61.6815,-71.977515 1.78181,-0.0956 11.81943,150.085925 c 14.63603,1.31546 29.9652,1.39866 46.12793,0 l 11.81944,-150.085925 1.7818,0.0956 61.68151,71.977515 z m 36.30321,225.943828 0.0233,7.1515 c 36.59643,4.12956 60.57101,14.0827 60.57098,25.14627 -7.9e-4,14.96964 -43.26966,27.10481 -96.64423,27.10481 -53.37457,0 -96.64344,-12.13517 -96.64423,-27.10481 -4e-5,-11.08583 24.06982,-21.0543 60.77303,-25.169 l -1.53789,-6.99854 c -47.75908,4.65942 -79.92975,17.64258 -79.93,32.25746 1e-5,18.7962 52.53446,34.03354 117.33909,34.03358 64.80483,4e-5 117.3396,-15.23732 117.33961,-34.03358 1.3e-4,-14.76789 -32.83608,-27.85061 -81.28961,-32.38769 z m -56.39036,75.22384 5.03948,66.11637 c -36.71955,2.22877 -63.16745,12.06657 -63.1672,23.49624 -9.2e-4,31.28974 156.93693,31.29257 156.93667,-2e-5 7e-5,-11.48865 -26.71525,-21.35978 -63.67156,-23.52621 l 5.0369,-66.0864 c -13.31281,1.10075 -26.692,1.272 -40.17429,0 z"
         sodipodi:nodetypes="cccccccccccccsccccscsccccccccc" /><path
         id="path3"
         style="fill:#000000;fill-opacity:0.504274;stroke-width:0.322262"
         d="m -471.84924,149.00486 58.84603,89.979 -57.7665,8.81807 53.4479,20.51503 c -111.65576,48.19731 55.61166,78.36849 132.26893,79.18173 76.65727,-0.81324 243.924683,-30.98442 132.26892,-79.18173 l 53.447904,-20.51503 -57.766504,-8.81807 58.846025,-89.979 -70.003475,63.52532 -28.61324,53.26755 0.49144,1.10536 a 140.1313,40.062916 0 0 1 51.68418,31.07459 140.1313,40.062916 0 0 1 -140.1315,40.06267 140.1313,40.062916 0 0 1 -0.22375,0 140.1313,40.062916 0 0 1 -0.22376,0 140.1313,40.062916 0 0 1 -140.1315,-40.06267 140.1313,40.062916 0 0 1 51.68418,-31.07459 l 0.49144,-1.10536 -28.61324,-53.26755 z" /></g></g><metadata
     id="metadata1"><rdf:RDF><cc:Work
         rdf:about=""><dc:title>Horizon</dc:title></cc:Work></rdf:RDF></metadata></svg>
