<?xml version="1.0" encoding="UTF-8" standalone="no"?>
<!-- Created with Inkscape (http://www.inkscape.org/) -->

<svg
   width="512"
   height="512"
   viewBox="0 0 135.46666 135.46667"
   version="1.1"
   id="svg5"
   inkscape:version="1.3.2 (091e20e, 2023-11-25, custom)"
   sodipodi:docname="D.O.C. Halo.svg"
   xmlns:inkscape="http://www.inkscape.org/namespaces/inkscape"
   xmlns:sodipodi="http://sodipodi.sourceforge.net/DTD/sodipodi-0.dtd"
   xmlns="http://www.w3.org/2000/svg"
   xmlns:svg="http://www.w3.org/2000/svg"
   xmlns:rdf="http://www.w3.org/1999/02/22-rdf-syntax-ns#"
   xmlns:cc="http://creativecommons.org/ns#"
   xmlns:dc="http://purl.org/dc/elements/1.1/">
  <title
     id="title1">Lifeline D.O.C. Halo</title>
  <sodipodi:namedview
     id="namedview7"
     pagecolor="#463135"
     bordercolor="#666666"
     borderopacity="1.0"
     inkscape:pageshadow="2"
     inkscape:pageopacity="0.36862745"
     inkscape:pagecheckerboard="true"
     inkscape:document-units="mm"
     showgrid="false"
     inkscape:zoom="1.5554293"
     inkscape:cx="281.59428"
     inkscape:cy="17.037097"
     inkscape:window-width="3840"
     inkscape:window-height="2107"
     inkscape:window-x="-8"
     inkscape:window-y="-8"
     inkscape:window-maximized="1"
     inkscape:current-layer="layer2"
     units="px"
     height="512px"
     inkscape:showpageshadow="2"
     inkscape:deskcolor="#d1d1d1" />
  <defs
     id="defs2" />
  <g
     inkscape:groupmode="layer"
     id="layer2"
     inkscape:label="Layer 2"
     style="display:inline">
    <g
       id="g101"
       inkscape:label="D.O.C. Halo"
       transform="matrix(0.26458333,0,0,0.26458333,-889.50616,642.70312)"
       style="display:inline">
      <path
         id="path107"
         style="fill:#000000;fill-opacity:0.49702;stroke:none;stroke-width:1px;stroke-linecap:butt;stroke-linejoin:miter;stroke-opacity:1"
         d="m 3617.8242,-2345.1191 c -37.7591,46.1196 -79.3728,39.0705 -123.0117,4.0566 -0.099,90.2391 13.0349,169.1127 64.4668,226.7168 l 15.4375,-8.5605 c -34.4508,-37.7102 -61.4069,-101.2191 -62.7168,-186.4063 34.8408,18.6914 69.9874,21.6454 105.8242,-11.1465 35.8372,32.7919 70.9815,29.8379 105.8223,11.1465 -1.3066,84.968 -28.1282,148.362 -62.4512,186.1074 l 15.3008,8.7188 c 51.3266,-57.5919 64.4372,-136.4108 64.3379,-226.5762 -43.6389,35.0139 -85.2502,42.0631 -123.0098,-4.0566 z m -15.6992,54.8691 c -20.3328,8.9004 -42.4652,14.3879 -72.375,5.125 0.6977,14.1555 2.1955,27.1243 4.3418,39.1328 h 68.0332 z m 31.3965,0 v 38.3574 l -38.8281,38.4707 h -52.5723 c 7.6927,24.0417 18.2268,43.8734 29.8789,62.0469 v -9.5 l 8.5,-4.125 c 3.471,-9.5853 9.8386,-15.811 21.625,-15.75 v -25.8281 l 39.7812,-39.4141 h 59.6485 c 2.1463,-12.0085 3.6441,-24.9773 4.3418,-39.1328 -29.9098,9.2629 -52.0422,3.7754 -72.375,-5.125 z m 0,76.8281 v 32.6719 c 11.7864,-0.061 18.154,6.1647 21.625,15.75 l 8.5,4.125 v 9.5 c 11.6521,-18.1735 22.1862,-38.0052 29.8789,-62.0469 z" />
      <path
         id="path110"
         style="fill:#000000;fill-opacity:1;stroke:none;stroke-width:1px;stroke-linecap:butt;stroke-linejoin:miter;stroke-opacity:1"
         d="m 3494.3125,-2191 c -15.3641,14.398 -31.7182,31.2311 -31.6992,42.7207 v 106.7734 c 24.456,53.8619 286.1433,53.8624 310.5996,0 v -106.7734 c 0.019,-11.4896 -16.3351,-28.3227 -31.6992,-42.7207 l -1.3125,0.75 -4.25,12.875 c 18.8097,15.996 21.802,25.5041 24.25,36.5625 v 77.875 c -6.9323,-4.5491 -15.684,-8.9297 -28.4727,-12.9375 l 0.5235,0.1055 -0.4961,-1.1797 c 6.7775,-8.5142 8.4567,-17.1923 7.955,-25.9414 -6.4687,9.7416 -15.6693,16.6034 -26.0097,22.2656 -7.5077,-1.6447 -16.0206,-3.1972 -25.875,-4.625 v 10.625 c 62.7194,11.0125 72.1493,31.7315 41.7968,46.3887 -11.9236,-6.9918 -23.3421,-13.9901 -26.6816,-21.0918 l -0.3086,-0.6192 -2.0781,-1.2812 c 1.7185,9.3727 4.1101,18.9274 10.9082,29.6758 -33.5282,9.4995 -89.7597,13.7703 -162.5879,5.3652 -14.5768,-10.0656 -27.7237,-20.48 -32.75,-32.875 -0.175,9.764 0.5705,18.7656 4.375,27.125 -33.2057,-8.7783 -57.7259,-37.7232 27.5,-52.6875 v -10.625 l -25,4.9375 c 2.9579,-9.2654 2.1517,-16.837 0.4375,-24 l -1.5625,1.6875 c -2.6982,8.5272 -10.5808,18.1071 -20.3125,28.0625 -9.728,1.7106 -17.8166,6.7 -25.9375,11.625 v -77.875 c 2.448,-11.0584 5.4403,-20.5665 24.25,-36.5625 l -4.25,-12.875 z m 105.2402,24.3848 c -5.6085,0.5192 -5.5809,8.0829 -8.3711,12.125 l -4.9296,2.4375 v 4.3281 h 9.4355 v 8.1953 a 7.84375,7.84375 0 0 1 1.1309,0.08 7.84375,7.84375 0 0 1 6.6308,8.8926 7.84375,7.84375 0 0 1 -7.7617,6.7109 v 8.6309 h -4.6191 l -29.3555,15.2793 v 9.6601 h 15.0781 v 10.4649 h -15.1933 v 13.3007 l 4.9589,1.1758 4.043,-2.4375 13.7031,2.6953 9.5743,12.6133 11.123,3.4981 h 12.8223 12.8203 l 10.9238,-3.1504 9.5762,-12.6133 13.7031,-2.6934 4.041,2.4356 5.1563,-1.5235 v -13.3007 h -15.1934 v -10.4649 h 15.0801 v -9.6601 l -29.3555,-15.2793 h -4.3867 v -8.6309 a 7.84375,7.84375 0 0 1 -1.1309,-0.08 7.84375,7.84375 0 0 1 -6.6308,-8.8926 7.84375,7.84375 0 0 1 7.7617,-6.7109 v -8.1953 h 9.2051 v -4.3281 l -4.9297,-2.4375 c -2.7902,-4.0421 -2.7626,-11.6058 -8.3711,-12.125 h -18.2695 z m 2.3575,4.3574 15.9121,0.027 15.9121,-0.027 0.8105,0.7441 3.2676,6.709 -0.027,0.4297 h -19.961 -19.9609 l -0.029,-0.4297 3.2695,-6.709 z m 16.0429,22.7266 a 7.84375,7.84375 0 0 1 1.1153,0.082 7.84375,7.84375 0 0 1 6.6308,8.8926 7.84375,7.84375 0 0 1 -8.8926,6.6308 7.84375,7.84375 0 0 1 -6.6308,-8.8926 7.84375,7.84375 0 0 1 7.7773,-6.7128 z m -0.098,38.4355 c 0.7576,0 1.514,0.056 2.2636,0.166 8.6962,1.2679 14.7171,9.3468 13.4493,18.043 -1.2679,8.6961 -9.345,14.7169 -18.0411,13.4492 -8.6959,-1.2679 -14.7189,-9.3448 -13.4511,-18.041 1.1416,-7.8307 7.8658,-13.6329 15.7793,-13.6172 z m -47.9375,40.498 -4.9512,3.5352 -13.1699,20.2422 5.5683,3.7109 27.8438,-18.2949 -5.6582,-7.5137 z m 95.8125,0.1778 -9.6348,1.3691 -5.3477,7.4238 27.1797,18.6504 5.9668,-3.7558 -14.6738,-21.3906 z" />
    </g>
  </g>
  <metadata
     id="metadata1">
    <rdf:RDF>
      <cc:Work
         rdf:about="">
        <dc:title>Lifeline D.O.C. Halo</dc:title>
      </cc:Work>
    </rdf:RDF>
  </metadata>
</svg>
