<?xml version="1.0" encoding="UTF-8" standalone="no"?>
<!-- Created with Inkscape (http://www.inkscape.org/) -->

<svg
   width="512"
   height="512"
   viewBox="0 0 135.46666 135.46667"
   version="1.1"
   id="svg1"
   xml:space="preserve"
   inkscape:version="1.3.2 (091e20e, 2023-11-25, custom)"
   sodipodi:docname="Inside_Knowledge.svg"
   xmlns:inkscape="http://www.inkscape.org/namespaces/inkscape"
   xmlns:sodipodi="http://sodipodi.sourceforge.net/DTD/sodipodi-0.dtd"
   xmlns="http://www.w3.org/2000/svg"
   xmlns:svg="http://www.w3.org/2000/svg"
   xmlns:rdf="http://www.w3.org/1999/02/22-rdf-syntax-ns#"
   xmlns:cc="http://creativecommons.org/ns#"
   xmlns:dc="http://purl.org/dc/elements/1.1/"><title
     id="title1">Inside Knowledge</title><sodipodi:namedview
     id="namedview1"
     pagecolor="#000000"
     bordercolor="#666666"
     borderopacity="1.0"
     inkscape:showpageshadow="2"
     inkscape:pageopacity="0.0"
     inkscape:pagecheckerboard="true"
     inkscape:deskcolor="#000000"
     inkscape:document-units="px"
     borderlayer="false"
     shape-rendering="crispEdges"
     inkscape:zoom="2"
     inkscape:cx="4.25"
     inkscape:cy="298.75"
     inkscape:window-width="3840"
     inkscape:window-height="2080"
     inkscape:window-x="-11"
     inkscape:window-y="-11"
     inkscape:window-maximized="1"
     inkscape:current-layer="svg1" /><defs
     id="defs1" /><metadata
     id="metadata1"><rdf:RDF><cc:Work
         rdf:about=""><dc:title>Inside Knowledge</dc:title></cc:Work></rdf:RDF></metadata><path
     id="path14"
     style="fill:#000000;stroke-width:0.212865;stroke-linecap:round;stroke-linejoin:round;stroke-miterlimit:4.9;paint-order:stroke markers fill;fill-opacity:1"
     d="M 64.75677 0.21600748 A 67.73333 67.73333 0 0 0 30.405379 11.291817 L 39.694217 24.076566 A 52.041267 52.041267 0 0 1 64.75677 15.93081 L 64.75677 0.21600748 z M 25.632544 14.850256 A 67.73333 67.73333 0 0 0 4.4612263 44.045373 L 19.393131 48.896756 A 52.041267 52.041267 0 0 1 34.87229 27.567826 L 25.632544 14.850256 z M 2.5274943 49.676554 A 67.73333 67.73333 0 0 0 0.70848388 57.961319 A 67.73333 67.73333 0 0 0 2.5135416 85.794762 L 17.551383 80.908756 A 52.041267 52.041267 0 0 1 16.236735 60.225264 A 52.041267 52.041267 0 0 1 17.530196 54.551192 L 2.5274943 49.676554 z M 116.0756 86.570425 A 52.041267 52.041267 0 0 1 100.60264 107.91072 L 109.83412 120.61641 A 67.73333 67.73333 0 0 0 131.00544 91.421292 L 116.0756 86.570425 z M 19.365226 86.578694 L 4.4607096 91.421292 A 67.73333 67.73333 0 0 0 25.637195 120.60969 L 34.879524 107.8885 A 52.041267 52.041267 0 0 1 19.365226 86.578694 z M 95.770897 111.38803 A 52.041267 52.041267 0 0 1 70.709895 119.55756 L 70.709895 135.25014 A 67.73333 67.73333 0 0 0 105.06129 124.17485 L 95.770897 111.38803 z M 39.679748 111.40974 L 30.396594 124.18725 A 67.73333 67.73333 0 0 0 57.960803 134.75818 A 67.73333 67.73333 0 0 0 64.75677 135.25789 L 64.75677 119.53069 A 52.041267 52.041267 0 0 1 60.224747 119.22993 A 52.041267 52.041267 0 0 1 39.679748 111.40974 z " /><path
     id="path9"
     style="fill:#000000;stroke-width:0.212865;stroke-linecap:round;stroke-linejoin:round;stroke-miterlimit:4.9;paint-order:stroke markers fill;fill-opacity:0.43424037"
     d="M 70.709895 0.20877278 L 70.709895 15.903422 A 52.041267 52.041267 0 0 1 75.241401 16.236735 A 52.041267 52.041267 0 0 1 95.852546 23.967012 L 105.09746 11.242208 A 67.73333 67.73333 0 0 0 77.505346 0.70848388 A 67.73333 67.73333 0 0 0 70.709895 0.20877278 z M 109.90647 14.750521 L 100.66931 27.46499 A 52.041267 52.041267 0 0 1 116.21409 48.851281 L 131.1553 43.996797 A 67.73333 67.73333 0 0 0 109.90647 14.750521 z M 132.98981 49.660017 L 118.05532 54.512434 A 52.041267 52.041267 0 0 1 119.22993 75.241401 L 119.22993 75.241918 A 52.041267 52.041267 0 0 1 117.94112 80.917024 L 132.93917 85.790111 A 67.73333 67.73333 0 0 0 134.75818 77.505862 L 134.75818 77.505346 A 67.73333 67.73333 0 0 0 132.98981 49.660017 z " /><path
     id="path15"
     style="fill:#000000;fill-opacity:0.502268;stroke:none;stroke-width:0.264583px;stroke-linecap:butt;stroke-linejoin:miter;stroke-opacity:1"
     d="m 39.95725,32.254878 v 20.299019 l 27.776082,25.32817 27.776083,-25.32817 V 32.254878 L 67.733332,57.583047 Z" /><path
     id="path15-7"
     style="fill:#000000;stroke:none;stroke-width:0.264583px;stroke-linecap:butt;stroke-linejoin:miter;stroke-opacity:1;fill-opacity:1"
     d="M 39.95725 61.480484 L 39.95725 81.78002 L 67.733332 107.10819 L 95.509415 81.78002 L 95.509415 61.480484 L 67.733332 86.80917 L 39.95725 61.480484 z " /></svg>
