<?xml version="1.0" encoding="UTF-8" standalone="no"?>
<!-- Created with Inkscape (http://www.inkscape.org/) -->

<svg
   width="500"
   height="500"
   viewBox="0 0 132.29166 132.29167"
   version="1.1"
   id="svg1"
   xml:space="preserve"
   inkscape:version="1.3.2 (091e20e, 2023-11-25, custom)"
   sodipodi:docname="Stinger Bolt.svg"
   xmlns:inkscape="http://www.inkscape.org/namespaces/inkscape"
   xmlns:sodipodi="http://sodipodi.sourceforge.net/DTD/sodipodi-0.dtd"
   xmlns="http://www.w3.org/2000/svg"
   xmlns:svg="http://www.w3.org/2000/svg"
   xmlns:rdf="http://www.w3.org/1999/02/22-rdf-syntax-ns#"
   xmlns:cc="http://creativecommons.org/ns#"
   xmlns:dc="http://purl.org/dc/elements/1.1/"><title
     id="title1">Stinger Bolt</title><sodipodi:namedview
     id="namedview1"
     pagecolor="#000000"
     bordercolor="#666666"
     borderopacity="1.0"
     inkscape:showpageshadow="2"
     inkscape:pageopacity="0.0"
     inkscape:pagecheckerboard="true"
     inkscape:deskcolor="#000000"
     inkscape:document-units="px"
     borderlayer="false"
     shape-rendering="crispEdges"
     inkscape:zoom="2.8284271"
     inkscape:cx="205.5913"
     inkscape:cy="207.35906"
     inkscape:window-width="3840"
     inkscape:window-height="2080"
     inkscape:window-x="-11"
     inkscape:window-y="-11"
     inkscape:window-maximized="1"
     inkscape:current-layer="svg1" /><defs
     id="defs1" /><metadata
     id="metadata1"><rdf:RDF><cc:Work
         rdf:about=""><dc:title>Stinger Bolt</dc:title></cc:Work></rdf:RDF></metadata><path
     id="path1-6"
     d="M 6.0038526 -1056.9971 L 0.0038523663 -1055.9971 L -15.996148 -1051.9971 L -23.996149 -1046.9971 L -24.996149 -1017.9971 L -28.996149 -1004.9971 L -34.996149 -995.99715 L -40.996149 -990.99715 L -47.996149 -983.99714 L -49.99615 -978.99714 L -49.99615 -956.99714 L -51.99615 -952.99714 L -55.99615 -947.99714 L -64.99615 -935.99714 L -72.99615 -924.99714 L -76.996151 -914.99714 L -76.996151 -873.99714 L -75.996151 -866.99714 L -73.99615 -864.99714 L -64.99615 -862.99714 L -20.996148 -862.99714 L -20.996148 -801.99714 L -31.996149 -799.99714 L -39.996149 -794.99714 L -44.996149 -789.99714 L -49.99615 -777.99714 L -48.996149 -772.99714 L 83.003856 -772.99714 L 89.003856 -773.99714 L 89.003856 -779.99714 L 86.003856 -787.99714 L 79.003855 -795.99714 L 70.003855 -800.99714 L 60.003855 -800.99714 L 60.003855 -863.99714 L 73.003855 -862.99714 L 111.00386 -863.99714 L 116.00386 -866.99714 L 116.00386 -917.99714 L 110.00386 -928.99714 L 96.003856 -947.99714 L 90.003856 -955.99714 L 89.003856 -980.99714 L 87.003856 -983.99714 L 75.003855 -995.99715 L 69.003855 -1004.9971 L 65.003855 -1015.9971 L 64.003855 -1045.9971 L 63.003855 -1047.9971 L 59.003855 -1049.9971 L 52.003854 -1052.9971 L 33.003854 -1056.9971 L 6.0038526 -1056.9971 z M 378.00387 -833.99714 L 369.00387 -826.99714 L 350.00387 -812.99714 L 336.00387 -802.99714 L 328.00386 -795.99714 L 328.00386 87.002896 L 330.00386 92.002896 L 346.00387 103.0029 L 364.00387 116.0029 L 377.00387 126.0029 L 380.00387 126.0029 L 380.00387 -1.9971076 L 381.00387 -9.9971079 L 392.00387 -31.997109 L 404.00387 -53.99711 L 412.00387 -69.99711 L 424.00387 -91.997111 L 432.00387 -107.99711 L 441.00387 -123.99711 L 441.00387 -285.99712 L 440.00387 -287.99712 L 420.00387 -319.99712 L 411.00387 -332.99712 L 411.00387 -519.99713 L 417.00387 -527.99713 L 428.00387 -543.99713 L 441.00387 -562.99713 L 441.00387 -574.99713 L 440.00387 -583.99713 L 432.00387 -598.99713 L 421.00387 -620.99713 L 409.00387 -642.99713 L 396.00387 -667.99713 L 386.00387 -686.99713 L 380.00387 -698.99713 L 380.00387 -833.99714 L 378.00387 -833.99714 z M -339.99616 -832.99714 L -340.99616 -695.99713 L -341.99616 -694.99713 L -348.99616 -681.99713 L -356.99616 -665.99713 L -365.99616 -649.99713 L -379.99616 -622.99713 L -397.99616 -588.99713 L -401.99616 -577.99713 L -401.99616 -566.99713 L -400.99616 -562.99713 L -384.99616 -538.99713 L -370.99616 -518.99713 L -370.99616 -335.99712 L -371.99616 -331.99712 L -380.99616 -318.99712 L -392.99616 -298.99712 L -400.99616 -287.99712 L -400.99616 -123.99711 L -397.99616 -117.99711 L -385.99616 -95.997111 L -366.99616 -58.99711 L -354.99616 -36.997109 L -340.99616 -9.9971079 L -339.99616 126.0029 L -338.99616 127.0029 L -330.99616 121.0029 L -315.99616 110.0029 L -301.99616 100.0029 L -288.99616 90.002896 L -288.99616 -796.99714 L -298.99616 -804.99714 L -315.99616 -816.99714 L -334.99616 -830.99714 L -339.99616 -832.99714 z M -44.996149 -755.99714 L -49.99615 -754.99714 L -48.996149 -746.99714 L -42.996149 -737.99714 L -37.996149 -732.99714 L -29.996149 -728.99714 L -20.996148 -728.99714 L -20.996148 -649.99713 L -31.996149 -648.99713 L -33.996149 -647.99713 L -43.996149 -639.99713 L -48.996149 -629.99713 L -49.99615 -622.99713 L -47.996149 -620.99713 L 86.003856 -620.99713 L 89.003856 -622.99713 L 89.003856 -628.99713 L 85.003856 -637.99713 L 80.003855 -643.99713 L 68.003855 -649.99713 L 60.003855 -648.99713 L 60.003855 -728.99714 L 68.003855 -728.99714 L 78.003855 -731.99714 L 85.003856 -739.99714 L 90.003856 -752.99714 L 87.003856 -755.99714 L -44.996149 -755.99714 z M -47.996149 -603.99713 L -49.99615 -602.99713 L -48.996149 -594.99713 L -41.996149 -584.99713 L -32.996149 -577.99713 L -20.996148 -576.99713 L -20.996148 -497.99713 L -31.996149 -496.99713 L -33.996149 -495.99713 L -43.996149 -487.99713 L -49.99615 -476.99713 L -48.996149 -469.99713 L -19.996148 -468.99713 L 69.003855 -468.99713 L 87.003856 -469.99713 L 89.003856 -471.99713 L 89.003856 -477.99713 L 85.003856 -485.99713 L 81.003855 -490.99713 L 72.003855 -496.99713 L 64.003855 -497.99713 L 60.003855 -496.99713 L 60.003855 -576.99713 L 73.003855 -577.99713 L 82.003855 -583.99713 L 86.003856 -590.99713 L 90.003856 -600.99713 L 88.003856 -603.99713 L -47.996149 -603.99713 z M -38.996149 -452.99712 L -48.996149 -451.99712 L -49.99615 -450.99712 L -49.99615 -445.99712 L -43.996149 -435.99712 L -36.996149 -428.99712 L -29.996149 -424.99712 L -20.996148 -424.99712 L -20.996148 -362.99712 L -19.996148 -345.99712 L -32.996149 -344.99712 L -36.996149 -341.99712 L -43.996149 -335.99712 L -48.996149 -326.99712 L -49.99615 -319.99712 L -44.996149 -317.99712 L 72.003855 -317.99712 L 88.003856 -318.99712 L 89.003856 -319.99712 L 89.003856 -324.99712 L 86.003856 -332.99712 L 79.003855 -340.99712 L 70.003855 -345.99712 L 60.003855 -345.99712 L 61.003855 -424.99712 L 72.003855 -425.99712 L 74.003855 -426.99712 L 83.003856 -433.99712 L 89.003856 -444.99712 L 89.003856 -451.99712 L 85.003856 -452.99712 L -38.996149 -452.99712 z M -32.996149 -301.99712 L -47.996149 -300.99712 L -48.996149 -299.99712 L -49.99615 -294.99712 L -43.996149 -283.99712 L -34.996149 -275.99712 L -28.996149 -272.99712 L -20.996148 -273.99712 L -20.996148 -268.99712 L -19.996148 -193.99711 L -33.996149 -192.99711 L -40.996149 -187.99711 L -44.996149 -182.99711 L -49.99615 -171.99711 L -48.996149 -166.99711 L 86.003856 -166.99711 L 89.003856 -167.99711 L 89.003856 -173.99711 L 85.003856 -182.99711 L 81.003855 -187.99711 L 71.003855 -193.99711 L 60.003855 -193.99711 L 60.003855 -272.99712 L 62.003855 -272.99712 L 74.003855 -274.99712 L 82.003855 -281.99712 L 88.003856 -290.99712 L 89.003856 -299.99712 L 86.003856 -301.99712 L -32.996149 -301.99712 z M -19.996148 -154.99711 L -45.996149 -153.99711 L -49.99615 -151.99711 L -48.996149 -144.99711 L -41.996149 -133.99711 L -31.996149 -125.99711 L -20.996148 -124.99711 L -20.996148 -46.997109 L -34.996149 -44.997109 L -43.996149 -36.997109 L -48.996149 -26.997109 L -49.99615 -19.997108 L 88.003856 -19.997108 L 89.003856 -20.997108 L 89.003856 -26.997109 L 84.003856 -36.997109 L 79.003855 -41.997109 L 71.003855 -45.997109 L 60.003855 -45.997109 L 60.003855 -125.99711 L 70.003855 -125.99711 L 75.003855 -127.99711 L 84.003856 -135.99711 L 89.003856 -145.99711 L 89.003856 -152.99711 L 87.003856 -153.99711 L 66.003855 -154.99711 L -19.996148 -154.99711 z M 0.0038523663 0.0028924351 L -40.996149 1.0028925 L -48.996149 2.0028925 L -49.99615 7.0028927 L -46.996149 14.002893 L -41.996149 22.002893 L -32.996149 29.002894 L -20.996148 31.002894 L -20.996148 97.002896 L -58.99615 97.002896 L -67.99615 98.002896 L -70.99615 102.0029 L -70.99615 145.0029 L -69.99615 157.0029 L -66.99615 161.0029 L -45.996149 161.0029 L -45.996149 630.00292 L -38.996149 636.00292 L -26.996149 648.00292 L -18.996148 655.00292 L -6.9961479 667.00292 L 1.0038524 674.00292 L 17.003853 690.00292 L 21.003853 692.00292 L 23.003853 689.00292 L 29.003853 684.00292 L 54.003854 659.00292 L 62.003855 652.00292 L 73.003855 641.00292 L 85.003856 630.00292 L 86.003856 585.00291 L 86.003856 162.0029 L 105.00386 161.0029 L 109.00386 158.0029 L 109.00386 100.0029 L 107.00386 98.002896 L 60.003855 98.002896 L 60.003855 30.002894 L 68.003855 30.002894 L 74.003855 28.002893 L 83.003856 21.002893 L 89.003856 9.0028928 L 89.003856 2.0028925 L 83.003856 1.0028925 L 24.003853 0.0028924351 L 0.0038523663 0.0028924351 z "
     transform="matrix(0.06614583,0,0,0.06614583,64.884672,76.458706)"
     inkscape:label="solid" /><path
     id="path15"
     style="fill:#000000;fill-opacity:0.498701;stroke:none;stroke-width:0.264583px;stroke-linecap:butt;stroke-linejoin:miter;stroke-opacity:1"
     d="M 29.111401 3.89847 L 32.838822 20.261295 L 21.356836 16.12098 C 21.356836 16.12098 28.456833 30.505631 28.527974 30.505631 C 28.599114 30.505631 26.601477 36.541438 26.601477 36.541438 L 16.298747 38.45295 L 23.723616 45.676798 L 7.3700927 52.274845 L 25.15557 55.348559 L 17.102315 63.287609 L 27.347168 64.824466 L 29.509826 71.198754 L 19.407601 90.207929 L 33.607251 81.528356 L 30.534053 94.049555 L 37.847302 85.882612 L 35.400423 86.366303 L 35.684643 74.727221 L 29.908252 79.081477 L 33.863566 71.14191 L 31.700907 67.186596 L 31.956705 65.251313 L 30.562475 60.783369 L 26.066626 60.384944 L 30.989323 55.462247 L 30.989323 51.677465 L 22.50922 50.425345 L 29.794047 47.095833 L 29.936674 45.786869 L 25.326619 41.461551 L 29.794047 40.693123 C 30.49643 37.240378 31.570197 33.787842 33.237247 30.335099 L 28.115079 22.793957 L 35.030419 27.261385 L 35.030419 19.578133 L 36.310961 20.858675 L 35.656221 16.647046 L 40.266276 18.354435 L 29.111401 3.89847 z M 103.17148 3.89847 L 92.016604 18.354435 L 96.626659 16.647046 L 95.971919 20.858675 L 97.252461 19.578133 L 97.252461 27.261385 L 104.1678 22.793957 L 99.045633 30.335099 C 100.71265 33.787842 101.78645 37.240378 102.48883 40.693123 L 106.95626 41.461551 L 102.34621 45.786869 L 102.48883 47.095833 L 109.77366 50.425345 L 101.29356 51.677465 L 101.29356 55.462247 L 106.21625 60.384944 L 101.7204 60.783369 L 100.32617 65.251313 L 100.58197 67.186596 L 98.419314 71.14191 L 102.37463 79.081477 L 96.598237 74.727221 L 96.882457 86.366303 L 94.435578 85.882612 L 101.74883 94.049555 L 98.675629 81.528356 L 112.87528 90.207929 L 102.77305 71.198754 L 104.93571 64.824466 L 115.18056 63.287609 L 107.12731 55.348559 L 124.91279 52.274845 L 108.55926 45.676798 L 115.98413 38.45295 L 105.6814 36.541438 C 105.6814 36.541438 103.68381 30.505631 103.75491 30.505631 C 103.82606 30.505631 110.92604 16.12098 110.92604 16.12098 L 99.444058 20.261295 L 103.17148 3.89847 z M 53.604996 23.361364 L 56.223441 37.954272 L 55.298433 39.547973 L 51.613386 37.918615 L 53.370385 42.884204 L 47.352148 40.607857 L 53.031388 48.554142 L 53.031388 51.14003 L 49.771638 53.987402 C 49.771638 53.987402 52.568705 55.979011 52.61901 55.979011 C 52.66932 55.979011 47.326826 60.848998 47.326826 60.848998 L 54.118143 60.848998 L 54.89329 63.373392 L 52.97196 69.192675 L 55.917516 67.470816 L 52.97196 78.156469 L 58.350443 71.056644 L 58.350443 66.318432 L 57.966487 65.749474 L 57.966487 63.62919 L 56.742789 64.340775 L 57.069901 63.060233 L 55.789359 59.275451 L 55.789359 58.378865 L 53.612748 58.378865 C 53.612748 58.378865 56.543492 55.618827 56.614631 55.618827 C 56.685771 55.618827 54.124861 53.840124 54.124861 53.840124 L 54.038045 53.517146 L 55.02093 52.687739 L 55.02093 47.565572 L 53.811702 45.772916 L 56.941743 46.853987 L 55.661201 42.955517 L 55.53356 42.884204 L 55.53356 42.243933 L 56.301472 42.443404 L 58.094644 38.800732 L 58.094644 36.040694 L 58.93697 34.851102 L 57.950984 31.953605 L 53.604996 23.361364 z M 78.677884 23.361364 L 74.331896 31.953605 L 73.34591 34.851102 L 74.188236 36.040694 L 74.188236 38.800732 L 75.981408 42.443404 L 76.74932 42.243933 L 76.74932 42.884204 L 76.621679 42.955517 L 75.341137 46.853987 L 78.471178 45.772916 L 77.26195 47.565572 L 77.26195 52.687739 L 78.244835 53.517146 L 78.158019 53.840124 C 78.158019 53.840124 75.597109 55.618827 75.668249 55.618827 C 75.739388 55.618827 78.670132 58.378865 78.670132 58.378865 L 76.493521 58.378865 L 76.493521 59.275451 L 75.212979 63.060233 L 75.540091 64.340775 L 74.316393 63.62919 L 74.316393 65.749474 L 73.932437 66.318432 L 73.932437 71.056644 L 79.31092 78.156469 L 76.365364 67.470816 L 79.31092 69.192675 L 77.38959 63.373392 L 78.164737 60.848998 L 84.956054 60.848998 C 84.956054 60.848998 79.61356 55.979011 79.66387 55.979011 C 79.714175 55.979011 82.511242 53.987402 82.511242 53.987402 L 79.251492 51.14003 L 79.251492 48.554142 L 84.930732 40.607857 L 78.912495 42.884204 L 80.669494 37.918615 L 76.984447 39.547973 L 76.059439 37.954272 L 78.677884 23.361364 z M 36.794653 40.394433 L 36.794653 56.329894 L 38.712882 53.460819 L 38.715466 42.756046 L 36.794653 40.394433 z M 95.488227 40.394433 L 93.567414 42.756046 L 93.569998 53.460819 L 95.488227 56.329894 L 95.488227 40.394433 z M 31.571199 100.74734 L 40.083858 112.651 L 28.203446 110.54622 L 35.34823 115.72472 A 42.174816 7.4220328 0 0 0 24.407812 119.71052 A 42.174816 7.4220328 0 0 0 60.056799 128.12551 A 42.174816 7.4220328 0 0 0 107.87507 121.85199 A 42.174816 7.4220328 0 0 0 96.94757 115.71542 L 104.07943 110.54622 L 92.199022 112.651 L 100.71168 100.74734 L 80.291222 113.7915 A 42.174816 7.4220328 0 0 0 74.190819 113.49643 L 74.190819 115.15783 A 37.029877 4.9808607 0 0 1 102.78391 120.73733 A 37.029877 4.9808607 0 0 1 60.798872 124.94741 A 37.029877 4.9808607 0 0 1 29.498974 119.30021 A 37.029877 4.9808607 0 0 1 58.100846 115.16248 L 58.100846 113.5047 A 42.174816 7.4220328 0 0 0 52.015946 113.80752 L 31.571199 100.74734 z "
     inkscape:label="transparent" /></svg>
