<?xml version="1.0" encoding="UTF-8" standalone="no"?>
<!-- Created with Inkscape (http://www.inkscape.org/) -->

<svg
   width="500"
   height="500"
   viewBox="0 0 132.29166 132.29167"
   version="1.1"
   id="svg1"
   xml:space="preserve"
   inkscape:version="1.3.2 (091e20e, 2023-11-25, custom)"
   sodipodi:docname="Double_Jump.svg"
   xmlns:inkscape="http://www.inkscape.org/namespaces/inkscape"
   xmlns:sodipodi="http://sodipodi.sourceforge.net/DTD/sodipodi-0.dtd"
   xmlns="http://www.w3.org/2000/svg"
   xmlns:svg="http://www.w3.org/2000/svg"
   xmlns:rdf="http://www.w3.org/1999/02/22-rdf-syntax-ns#"
   xmlns:cc="http://creativecommons.org/ns#"
   xmlns:dc="http://purl.org/dc/elements/1.1/"><title
     id="title1">Double Jump</title><sodipodi:namedview
     id="namedview1"
     pagecolor="#000000"
     bordercolor="#666666"
     borderopacity="1.0"
     inkscape:showpageshadow="2"
     inkscape:pageopacity="0.0"
     inkscape:pagecheckerboard="true"
     inkscape:deskcolor="#000000"
     inkscape:document-units="px"
     borderlayer="false"
     shape-rendering="crispEdges"
     inkscape:zoom="2"
     inkscape:cx="260.25"
     inkscape:cy="417.75"
     inkscape:window-width="3840"
     inkscape:window-height="2080"
     inkscape:window-x="-11"
     inkscape:window-y="-11"
     inkscape:window-maximized="1"
     inkscape:current-layer="svg1" /><defs
     id="defs1" /><metadata
     id="metadata1"><rdf:RDF><cc:Work
         rdf:about=""><dc:title>Double Jump</dc:title></cc:Work></rdf:RDF></metadata><path
     id="path1"
     d="M 2.0182678e-05 -3.5376378e-05 L -15.99998 4.9999648 L -39.999981 12.999965 L -59.999982 18.999965 L -97.999984 31.999966 L -107.99998 36.999966 L -116.99998 42.999966 L -125.99998 52.999967 L -131.99998 62.999967 L -138.99999 83.999968 L -142.99999 99.999968 L -148.99999 125.99997 L -152.99999 139.99997 L -154.99999 152.99997 L -157.99999 151.99997 L -169.99999 142.99997 L -180.99999 131.99997 L -190.99999 122.99997 L -200.99999 116.99997 L -218.99999 111.99997 L -239.99999 107.99997 L -255.99999 104.99997 L -262.99999 102.99997 L -293.99999 96.999968 L -320.99999 97.999968 L -355.99999 101.99997 L -361.99999 103.99997 L -373.99999 105.99997 L -391.99999 110.99997 L -410 117.99997 L -430 128.99997 L -437 134.99997 L -452 165.99997 L -457 183.99997 L -458 197.99997 L -455 254.99997 L -453 271.99997 L -450 280.99998 L -443 295.99998 L -439 306.99998 L -439 317.99998 L -440 321.99998 L -444 328.99998 L -444 438.99998 L -443 440.99998 L -437 450.99998 L -425 461.99998 L -416 471.99998 L -416 476.99998 L -419 479.99998 L -433 488.99998 L -438 492.99998 L -432 495.99998 L -413 501.99998 L -348.99999 521.99998 L -319.99999 530.99998 L -279.99999 543.99999 L -265.99999 551.99999 L -258.99999 559.99999 L -251.99999 573.99999 L -248.99999 585.99999 L -243.99999 608.99999 L -239.99999 626.99999 L -230.99999 667.99999 L -222.99999 703.99999 L -213.99999 743.99999 L -209.99999 761.99999 L -205.99999 780.99999 L -198.99999 813 L -192.99999 841 L -188.99999 859 L -181.99999 888 L -177.99999 899 L -170.99999 907 L -161.99999 914 L -145.99999 921 L -121.99998 931 L -101.99998 939 L -77.999983 949 L -36.999981 966 L -4.99998 979 L 20.000021 990 L 33.000021 998 L 42.000022 1008 L 49.000022 1019 L 56.000022 1035 L 71.000023 1071 L 85.000023 1104 L 103.00002 1147 L 119.00002 1185 L 136.00003 1225 L 151.00003 1261 L 156.00003 1279 L 156.00003 1308 L 155.00003 1325 L 161.00003 1330 L 178.00003 1337 L 201.00003 1347 L 226.00003 1358 L 233.00003 1359 L 241.00003 1350 L 254.00003 1334 L 262.00003 1319 L 268.00003 1302 L 268.00003 1287 L 266.00003 1274 L 261.00003 1251 L 254.00003 1230 L 249.00003 1222 L 236.00003 1204 L 224.00003 1188 L 214.00003 1175 L 201.00003 1157 L 190.00003 1143 L 177.00003 1125 L 165.00003 1109 L 158.00003 1098 L 150.00003 1080 L 128.00003 1009 L 123.00002 989 L 121.00002 976 L 117.00002 921 L 115.00002 876 L 114.00002 863 L 105.00002 863 L 98.000024 864 L 22.000021 875 L -24.999981 882 L -44.999982 883 L -54.999982 881 L -65.999982 875 L -74.999983 865 L -78.999983 855 L -81.999983 837 L -84.999983 797.99999 L -87.999983 761.99999 L -90.999983 729.99999 L -91.999983 709.99999 L -88.999983 697.99999 L -81.999983 685.99999 L -75.999983 680.99999 L -66.999982 675.99999 L -48.999982 671.99999 L 96.000024 653.99999 L 100.00002 651.99999 L 99.000024 635.99999 L 97.000024 601.99999 L 92.000024 527.99998 L 91.000024 526.99998 L 6.0000204 521.99998 L -63.999982 517.99998 L -170.99999 511.99998 L -214.99999 508.99998 L -235.99999 506.99998 L -246.99999 500.99998 L -254.99999 493.99998 L -261.99999 482.99998 L -264.99999 468.99998 L -264.99999 460.99998 L -262.99999 442.99998 L -256.99999 405.99998 L -243.99999 325.99998 L -239.99999 311.99998 L -232.99999 299.99998 L -224.99999 292.99998 L -215.99999 287.99998 L -204.99999 284.99998 L -189.99999 284.99998 L -175.99999 285.99998 L 115.00002 312.99998 L 118.00002 311.99998 L 121.00002 289.99998 L 127.00002 261.99997 L 134.00003 242.99997 L 141.00003 227.99997 L 150.00003 208.99997 L 159.00003 191.99997 L 202.00003 105.99997 L 204.00003 96.999968 L 203.00003 81.999968 L 198.00003 68.999967 L 193.00003 60.999967 L 186.00003 53.999967 L 176.00003 48.999966 L 149.00003 37.999966 L 110.00002 23.999966 L 85.000023 15.999965 L 47.000022 5.9999649 L 18.000021 -3.5376378e-05 L 2.0182678e-05 -3.5376378e-05 z M -506 498.99998 L -507 499.99998 L -528 509.99998 L -544 517.99998 L -567 529.99998 L -588 541.99999 L -610 554.99999 L -624 563.99999 L -636 571.99999 L -640 576.99999 L -648 592.99999 L -652 607.99999 L -651 614.99999 L -646 627.99999 L -635 642.99999 L -624 658.99999 L -611 676.99999 L -583 714.99999 L -569 732.99999 L -558 747.99999 L -545 763.99999 L -535 776.99999 L -524 790.99999 L -513 804 L -503 817 L -494 827 L -483 841 L -471 855 L -462 866 L -452 877 L -443 888 L -431 902 L -421 911 L -407 921 L -383.99999 935 L -362.99999 948 L -344.99999 959 L -329.99999 969 L -319.99999 978 L -310.99999 988 L -301.99999 1000 L -287.99999 1025 L -273.99999 1049 L -259.99999 1074 L -243.99999 1101 L -232.99999 1117 L -204.99999 1155 L -190.99999 1173 L -179.99999 1187 L -166.99999 1204 L -154.99999 1218 L -143.99999 1232 L -132.99998 1244 L -123.99998 1255 L -112.99998 1267 L -105.99998 1275 L -93.999983 1287 L -86.999983 1295 L -83.999983 1296 L -83.999983 1298 L -63.999982 1318 L -59.999982 1320 L -59.999982 1322 L -56.999982 1324 L -48.999982 1332 L -32.999981 1347 L -19.999981 1358 L -8.9999802 1367 L 4.0000203 1378 L 23.000021 1392 L 36.000022 1402 L 58.000022 1416 L 85.000023 1432 L 114.00002 1446 L 131.00003 1451 L 176.00003 1456 L 216.00003 1460 L 225.00003 1460 L 231.00003 1458 L 239.00003 1454 L 246.00003 1447 L 253.00003 1437 L 281.00003 1381 L 286.00003 1368 L 286.00003 1357 L 281.00003 1335 L 278.00003 1334 L 274.00003 1342 L 268.00003 1353 L 258.00003 1367 L 250.00003 1375 L 242.00003 1381 L 233.00003 1383 L 223.00003 1382 L 210.00003 1377 L 169.00003 1359 L 149.00003 1350 L 139.00003 1344 L 134.00003 1337 L 130.00003 1325 L 133.00003 1299 L 133.00003 1286 L 130.00003 1274 L 126.00002 1263 L 111.00002 1227 L 99.000024 1199 L 84.000023 1163 L 65.000023 1118 L 50.000022 1082 L 39.000022 1056 L 32.000021 1039 L 26.000021 1027 L 20.000021 1019 L 15.000021 1015 L 5.0000204 1009 L -18.999981 999 L -48.999982 987 L -61.999982 981 L -86.999983 971 L -115.99998 959 L -154.99999 943 L -174.99999 934 L -185.99999 926 L -194.99999 916 L -201.99999 904 L -205.99999 892 L -207.99999 882 L -212.99999 860 L -238.99999 742.99999 L -254.99999 669.99999 L -259.99999 646.99999 L -265.99999 619.99999 L -270.99999 597.99999 L -272.99999 585.99999 L -276.99999 576.99999 L -280.99999 571.99999 L -288.99999 565.99999 L -303.99999 560.99999 L -332.99999 551.99999 L -343.99999 548.99999 L -358.99999 543.99999 L -416 525.99998 L -436 519.99998 L -474 507.99998 L -494 501.99998 L -500 498.99998 L -506 498.99998 z M -489 622.99999 L -485 622.99999 L -471 630.99999 L -444 644.99999 L -422 656.99999 L -392.99999 671.99999 L -387.99999 675.99999 L -380.99999 696.99999 L -371.99999 725.99999 L -359.99999 761.99999 L -354.99999 778.99999 L -349.99999 793.99999 L -344.99999 810 L -334.99999 840 L -333.99999 845 L -338.99999 847 L -347.99999 854 L -352.99999 859 L -355.99999 858 L -357.99999 854 L -359.99999 854 L -382.99999 831 L -389.99999 823 L -403 811 L -410 802.99999 L -467 745.99999 L -473 737.99999 L -477 726.99999 L -487 699.99999 L -502 658.99999 L -506 645.99999 L -507 639.99999 L -504 637.99999 L -489 622.99999 z M -443 968 L -454 977 L -466 986 L -484 1000 L -498 1011 L -511 1022 L -522 1031 L -531 1040 L -539 1047 L -541 1051 L -543 1051 L -551 1059 L -558 1067 L -567 1077 L -576 1088 L -584 1098 L -594 1112 L -609 1135 L -617 1148 L -625 1163 L -645 1203 L -656 1229 L -669.00001 1261 L -680.00001 1290 L -692.00001 1325 L -704.00001 1362 L -705.00001 1369 L -709.00001 1367 L -725.00001 1357 L -743.00001 1347 L -773.00001 1332 L -805.00001 1319 L -834.00001 1310 L -861.00001 1304 L -892.00001 1300 L -925.00001 1300 L -949.00002 1303 L -972.00002 1308 L -1002 1318 L -1021 1327 L -1037 1336 L -1053 1346 L -1072 1360 L -1083 1369 L -1095 1380 L -1103 1387 L -1105 1391 L -1107 1391 L -1109 1395 L -1111 1395 L -1113 1398 L -1121 1406 L -1130 1417 L -1142 1431 L -1153 1445 L -1161 1456 L -1171 1470 L -1182 1486 L -1197 1510 L -1212 1535 L -1224 1557 L -1236 1580 L -1244 1596 L -1257 1623 L -1271 1653 L -1280 1674 L -1293 1704 L -1308 1741 L -1330 1799 L -1344 1838 L -1354 1867 L -1353 1872 L -1347 1867 L -1333 1842 L -1321 1822 L -1311 1805 L -1297 1783 L -1285 1765 L -1273 1746 L -1249 1712 L -1236 1694 L -1228 1684 L -1220 1673 L -1207 1657 L -1198 1646 L -1187 1633 L -1180 1625 L -1172 1617 L -1165 1609 L -1155 1598 L -1139 1583 L -1129 1574 L -1116 1562 L -1105 1553 L -1088 1539 L -1065 1523 L -1046 1511 L -1032 1503 L -1002 1489 L -980.00002 1481 L -963.00002 1476 L -942.00002 1472 L -923.00001 1470 L -891.00001 1470 L -875.00001 1471 L -853.00001 1475 L -838.00001 1479 L -820.00001 1485 L -797.00001 1495 L -781.00001 1503 L -771.00001 1509 L -754.00001 1520 L -737.00001 1532 L -722.00001 1544 L -708.00001 1556 L -692.00001 1571 L -685.00001 1579 L -675.00001 1589 L -661 1604 L -650 1618 L -644 1623 L -626 1569 L -615 1540 L -601 1506 L -584 1469 L -576 1453 L -568 1439 L -562 1427 L -555 1415 L -543 1396 L -521 1363 L -501 1337 L -492 1326 L -481 1314 L -472 1303 L -456 1287 L -448 1280 L -441 1273 L -430 1264 L -416 1252 L -403 1242 L -391.99999 1234 L -364.99999 1216 L -342.99999 1203 L -316.99999 1190 L -290.99999 1178 L -275.99999 1172 L -263.99999 1168 L -263.99999 1165 L -266.99999 1160 L -280.99999 1141 L -288.99999 1130 L -304.99999 1102 L -318.99999 1078 L -331.99999 1055 L -342.99999 1036 L -351.99999 1022 L -361.99999 1012 L -374.99999 1003 L -392.99999 992 L -421 977 L -437 969 L -443 968 z M -164.99999 1026 L -161.99999 1026 L -150.99999 1032 L -92.999983 1061 L -70.999983 1073 L -68.999982 1078 L -56.999982 1112 L -50.999982 1130 L -41.999981 1155 L -34.999981 1175 L -18.999981 1221 L -17.99998 1227 L -31.999981 1239 L -36.999981 1240 L -42.999981 1235 L -64.999982 1213 L -72.999983 1206 L -98.999984 1180 L -106.99998 1173 L -127.99998 1152 L -135.99998 1145 L -146.99999 1134 L -152.99999 1119 L -164.99999 1088 L -172.99999 1068 L -179.99999 1050 L -180.99999 1043 L -168.99999 1031 L -164.99999 1026 z "
     transform="matrix(0.06614583,0,0,0.06614583,101.4677,4.2333357)"
     inkscape:label="solid" /><path
     id="rect19"
     style="fill-opacity:0.498701;stroke-width:0.079375;stroke-linecap:round;stroke-linejoin:round;stroke-miterlimit:4.9;paint-order:stroke markers fill"
     d="M 88.011164 24.74681 C 87.600377 24.712078 87.204722 25.030938 87.134732 25.437207 L 85.419074 35.396289 C 85.349087 35.802557 85.859066 36.308039 86.270702 36.330599 L 108.29726 37.53776 C 108.7089 37.56032 109.16191 37.052453 109.22331 36.644791 L 110.61237 27.417448 C 110.67374 27.009788 110.30847 26.632073 109.89768 26.597343 L 88.011164 24.74681 z M 109.14527 49.027498 C 109.11939 49.026459 109.09333 49.027396 109.06776 49.030598 L 98.064297 50.408809 C 97.655239 50.46005 97.165945 50.687534 97.187865 51.099206 L 97.670523 60.161702 C 97.692447 60.573369 98.113239 61.148422 98.52215 61.096012 L 109.72095 59.66044 C 110.12986 59.608025 110.45857 59.179144 110.43667 58.767472 L 109.96383 49.903413 C 109.94324 49.517474 109.53351 49.043072 109.14527 49.027498 z M 65.32211 105.03131 C 65.044981 105.62724 64.785035 106.23638 64.589855 106.89787 L 64.589855 106.89838 A 18.127531 4.1443448 0 0 1 76.493521 111.40405 A 18.127531 4.1443448 0 0 1 55.940254 114.9072 A 18.127531 4.1443448 0 0 1 40.617675 110.20826 A 18.127531 4.1443448 0 0 1 48.047713 107.44254 C 46.750677 106.88903 45.411449 106.49972 44.040722 106.23279 A 23.366014 6.8658113 0 0 0 35.434012 110.61082 A 23.366014 6.8658113 0 0 0 55.184228 118.39536 A 23.366014 6.8658113 0 0 0 81.677184 112.59209 A 23.366014 6.8658113 0 0 0 65.32211 105.03131 z "
     inkscape:label="transparent" /></svg>
