<?xml version="1.0" encoding="UTF-8" standalone="no"?>
<!-- Created with Inkscape (http://www.inkscape.org/) -->

<svg
   width="500"
   height="500"
   viewBox="0 0 132.29166 132.29167"
   version="1.1"
   id="svg1"
   xml:space="preserve"
   inkscape:version="1.3.2 (091e20e, 2023-11-25, custom)"
   sodipodi:docname="Tracker_Dart.svg"
   xmlns:inkscape="http://www.inkscape.org/namespaces/inkscape"
   xmlns:sodipodi="http://sodipodi.sourceforge.net/DTD/sodipodi-0.dtd"
   xmlns="http://www.w3.org/2000/svg"
   xmlns:svg="http://www.w3.org/2000/svg"
   xmlns:rdf="http://www.w3.org/1999/02/22-rdf-syntax-ns#"
   xmlns:cc="http://creativecommons.org/ns#"
   xmlns:dc="http://purl.org/dc/elements/1.1/"><title
     id="title1">Tracker Dart</title><sodipodi:namedview
     id="namedview1"
     pagecolor="#000000"
     bordercolor="#666666"
     borderopacity="1.0"
     inkscape:showpageshadow="2"
     inkscape:pageopacity="0.0"
     inkscape:pagecheckerboard="true"
     inkscape:deskcolor="#000000"
     inkscape:document-units="px"
     borderlayer="false"
     shape-rendering="crispEdges"
     inkscape:zoom="2.324435"
     inkscape:cx="131.86"
     inkscape:cy="344.81498"
     inkscape:window-width="3840"
     inkscape:window-height="2080"
     inkscape:window-x="-11"
     inkscape:window-y="-11"
     inkscape:window-maximized="1"
     inkscape:current-layer="svg1" /><defs
     id="defs1" /><path
     id="path1"
     style="display:inline"
     d="m -109,-404.00003 -1,1 -9,29 -4,18 c -21.89531,263.963098 -5.29739,81.1362 -22,276.000013 v 12 h 102.000002 l 1,-1 -1,-13 C -49.701082,-167.99727 -56.430622,-253.99258 -62.999999,-340.00003 l -3,-25 -4,-14 -6,-20 -3,-5 z m -99,260.00001 -17,2 -30.00001,4 -37,6 -46,9 c -25.89443,5.84447 -51.48836,12.71096 -77,20 -22.29978,6.443984 -44.12393,14.279038 -66,22.000003 -37.42518,13.171494 -73.35669,29.71839 -109.00001,47.000002 -18.4449,8.825004 -36.21647,18.932372 -54,29.0000007 -15.13091,8.7824308 -30.05692,17.9042123 -45,27.0000013 -11.22439,6.999779 -22.10326,14.50849 -33,22.000001 l -15,10 c -12.35477,8.531031 -24.15536,17.787493 -36.00001,27.000001 l -16,12 c -12.84417,10.472941 -25.68289,20.914601 -38,32.000001 l -11,9 -11,10 -8,7 c -23.67562,21.97077 -46.27455,45.02419 -69,68 l -2,4 h -2 l -6,7 -18,20.00001 -7,8 -11,12 -9,11 -12,14 -12.99997,16 -20,25 -9,12 -8,11 -9,11 -1,4 12,16 14,19 13,16 11,14 13.99997,17 24,28 7,8 10,11 7,8.00001 11,11 7,8 39,39 8,7 13,13 8,7 13,12 11,9 10,9 10,8 14,12 14,11 12,9 18.00001,14 14,10 16,11 25,17 24,15 27,16 25,14 16,8.00001 17,9 38,18 23,10 27,11 18.00001,7 40,14 43,13 43,11 45,10 46,8 59.00001,8 2,-1 -1,-19 -3,-46 -1,-2 -43.00001,-6 -36,-6 -45,-9 -44,-11 -31,-9 -37,-12.00001 -25,-9 -35.00001,-14 -39,-17 -34,-17 -22,-12 -24,-13 -28,-17 -14,-9 -39,-26 -20,-15 -17,-12 -16.00001,-13 -33,-27 -11,-10 -10,-9 -8,-7 -9,-9 -8,-7 -35,-35.00001 -9,-10 -14,-15 -15,-16 -12,-14 -9,-11 -9,-10 -9,-11 -22,-28 -2,-5 8,-9 9,-12 14,-17 13,-15 9,-11 9,-10 7,-8 14,-15 7,-8 44,-44.00001 15,-14 10,-9 8,-7 12,-11 14,-12 16,-13 11.00001,-9 15,-12 18,-13 16,-12 37,-25.000001 24,-15 25,-15.000001 12,-6 10,-6.000001 29,-15 25,-12.000001 36,-16.000000135435 40.00001,-16.000000864565 37,-13 43,-13.000001 46,-12 38,-8 46,-8.000001 46.00001,-6 2,-2 1,-18.000001 3,-38.000002 v -10 z m 226.000004,0 -1,1 1,17 4,47.000003 1,3 32.000002,4 45.000004,7 40,8.000001 c 38.98435,8.274953 77.10612,19.763069 115,32.000001 22.31129,7.509054 44.11302,16.3604013 66.00001,25.000000864565 C 340.90196,8.499215 360.48297,17.665746 380.00002,26.999987 l 43,23.000001 c 16.73858,8.985178 32.83017,19.049338 49,29.000001 13.70947,8.935673 27.38411,17.922739 41,27.000001 12.4289,8.86928 24.70812,17.94282 37,27 10.40959,7.50131 20.21546,15.72077 30.00001,24 9.69632,7.22918 18.82447,15.13526 28,23 l 10,9 8,7 14,13 8,7 39,39.00001 15,16 9,10 7,8 12,13 13,15 9,11 10,11 13,17 9,11 4,6 -6,8 -10,13 -11,14 -13,15 -11,13 -12,14 -15,16 -7,8 -39,40.00001 -6,5 -11,11 -13,12 -8,7 -15,14 -11,9 -13,11 -16,13 -11.00001,9 -12,9 -19,14 c -15.74866,11.37404 -31.62687,22.52616 -48,33 -14.59337,9.12086 -29.14826,18.30132 -44,27 -14.24503,7.83476 -28.48665,15.66653 -43,23 -12.53858,6.59926 -25.0369,13.252 -38,19 -20.25222,8.86034 -40.47142,17.78974 -61.00001,26 l -27,10 c -19.60304,6.53435 -39.14544,13.25514 -59,19.00001 l -33,9 -42,10 -48.000003,9 -62.000003,9 -2,2 -4,52 v 14 h 2 l 44.000002,-6 44.000004,-7 45,-9 33,-8 19,-5 35,-10 28,-9 28,-10 19.00001,-7 24,-10 26,-11 24,-11 43,-22.00001 23,-13 26,-15 26,-16 15,-10 38,-26 17.00001,-13 20,-15 13,-10 13,-11 10,-8 12,-11 11,-9 10,-9 8,-7 14,-14 8,-7 v -2 h 2 l 30,-30 7,-8 13,-13 7,-8 7,-7.00001 9,-11 12,-13 12,-14 9,-11 11,-13 11,-14 7,-9 13.00001,-16 12,-17 7,-8 2,-5 -4,-5 -11,-15 -15,-20 -13.00001,-16 -11,-14 -12,-14 -9,-11 -10,-11 -9,-11 -13,-14.00001 -7,-8 -10,-10 -7,-8 -36,-36 -32,-30 -8,-7 -10,-9 -14,-12 -13,-11 -10,-8 -13,-11.000001 -20,-15 -21.00001,-16.000001 -32,-22.000001 -18,-12 -24,-15.000001 -17,-10.0000001 -24,-14.0000009 -38,-20 -38,-18.000001 -25,-11 -27,-11.000001 -38.00001,-14 -36,-12.000001 -27,-8.000002 -42,-11 -41,-9 -37.000003,-7 -48.000002,-7 z M 42.000005,-1.4135435e-5 c -99.333955,0 -198.666635,0.713631505435 -298.000015,1.000000035435 l -4,3.0000001 c -35.42549,35.425498 -94.30673,106.306734 -117,129.000004 l -1,4 2,2 7,8 13,14 9,11 8,8 7,11 8,27 12,46.00001 4,16 4,9 8,6 68,31 36.00001,16 7,1 7,-5 43,-43 7,-8 -1,-10 -17,-50.00001 -14,-41 -5,-6 -36,-23 -16,-10 -5,-2 1,-3 8,-8 6,-4 9,-2 190.0000032,1 6.0000002,2 9.0000004,7 10.0000002,13 -1,3 -12.0000003,13 C -33.941385,211.04689 -71.982151,255.04734 -110,299 c -84.22757,97.76414 -168.55329,195.49081 -253.00001,293.00001 l -9,11 -8,8 -2,4 4,4 c 62.47614,71.4013 112.28762,116.68337 124,127 H 55.000006 l 6,-3 c 43.222954,-48.16757 86.138204,-96.64482 128.000004,-146 l 6,-8 -9,-6 C -30.695725,417.89849 91.312339,509.6935 -16.999997,428 l -9,-5 -3.000001,1 -8,7 -2,4 h -2 l -2,3 -7,8 -1,5 2,4 C 68.615525,719.63493 -102.78706,333.69543 13.000004,591.00001 l 1,10 -2,3 -15.0000006,15 -7.0000003,4 H -183 l -2,-1 c -7.25598,-6.04664 -14.53272,-12.09253 -21,-19 l -1,-4 2,-3 C -87.116818,442.75187 47.78358,302.43747 168.00001,150.99999 l 11,-14 1,-4 C 144.34781,88.434734 100.52742,50.925759 63.000006,7.9999862 l -8,-7.0000003 z M -218,185.99999 h 4 l 11,3 13,6 8,7 6,8 5,13 2,15 V 248 h -2 l -8,-11.00001 -10,-13 -9,-12 -14,-17 z M -288.00001,249 l 6,3 21,12 23,13 17.00001,9 1,3 -9.00001,2 h -18 l -6,-1 -8,-3 -8,-6 -8,-10 -9,-16 z m 415.00002,56 -2,1 -10,13 -12,13 -6.000003,9 45.000003,3 c 62.31487,4.91959 124.63549,9.73853 187.00001,14 l 3,1 4,9 1,9 -6,12 -7,1 -28.00001,2 -177,13 -47.000004,4 -1,3 10.000001,6 18,14 16.000003,12 24,-2 492.00002,-38 13,-2 37,-11 5,-3 v -28 l -1,-1 -18,-6 -27,-8 -36,-3 z m -503.00002,5 c -147.00182,11.30783 -294.00602,22.59069 -441.00002,34 l -14,2 -36,11 -6,3 v 28 l 3,2 38,12 13,2 c 165.65525,12.80064 331.27521,26.13395 497.00002,38 l 8,-10 9,-11 10,-11 2,-4 -30,-2 c -62.99029,-4.79926 -125.975,-9.67157 -189.00001,-14 l -6,-1 -5,-10 -1,-8 5,-12 3,-1 16,-1 117.00001,-9 39,-2 v -2 l -5,-5 -11,-13 -9,-16 z M -145,814.00002 v 11 c 7.25579,93.00606 14.49369,186.01368 22,278.99998 l 2,10 9,29 3,9 h 30.000001 l 2,-2 5,-17 6,-21 3,-22 c 6.801177,-90.68234 14.090901,-181.32562 21.000001,-271.99998 l -1,-4 z"
     transform="matrix(0.06614583,0,0,0.06614583,72.297395,41.407291)"
     sodipodi:nodetypes="cccccccccccccccccccccccccccccccccccccccccccccccccccccccccccccccccccccccccccccccccccccccccccccccccccccccccccccccccccccccccccccccccccccccccccccccccccccccccccccccccccccccccccccccccccccccccccccccccccccccccccccccccccccccccccccccccccccccccccccccccccccccccccccccccccccccccccccccccccccccccccccccccccccccccccccccccccccccccccccccccccccccccccccccccccccccccccccccccccccccccccccccccccccccccccccccccccccccccccccccccccccccccccccccccccccccccccccccccccccccccccccccccccccccccccccccccccccccccccccccccccccccccccccccccccc" /><path
     id="path10"
     style="fill:#000000;fill-opacity:0.498701;stroke:none;stroke-width:0.264583px;stroke-linecap:butt;stroke-linejoin:miter;stroke-opacity:1"
     d="M 47.579524,19.962606 C 33.950224,25.582384 25.312531,36.786577 23.90345,39.86785 29.353453,36.011683 36.169118,32.489389 46.42714,29.808516 49.723946,28.00649 53.405487,26.358385 59.090449,25.511621 l 0.176217,-4.4111 c -3.562534,0.566806 -7.06427,1.28914 -10.150285,3.073714 z m 25.464079,1.083138 c -0.07967,-0.0115 0.100769,4.427119 0.100769,4.427119 4.748882,0.45123 8.66908,2.623509 12.75736,4.446757 5.311294,1.015389 8.857688,2.802442 12.85813,4.426604 C 95.237848,30.089043 84.11388,22.641932 73.043603,21.045744 Z m 10.17819,21.639505 5.250325,5.691126 c 0.327336,1.409181 0.202884,2.567273 0.05684,3.713468 l -4.481897,5.506641 11.838037,0.711584 c -2.210236,-6.076157 -5.211399,-11.19057 -9.40511,-14.85439 z m -35.190617,0.33538 -2.172994,0.463021 c -5.61097,4.786651 -7.813697,9.750484 -9.336897,14.749487 l 10.060884,-0.523482 -0.281637,-1.44849 -5.251875,-5.795512 z M 36.56676,74.158263 c 1.18592,5.933797 4.923345,10.402725 8.963794,14.697811 l 1.920813,0.313159 C 45.2528,86.819342 43.219206,84.480551 41.489941,81.869937 l 5.833785,-6.872449 z m 59.048074,0.113688 -10.419002,0.711585 6.357292,4.908744 -8.601599,10.00249 c 0,0 3.720122,-1.04512 3.770312,-1.09554 4.097131,-4.115496 7.247028,-8.113929 8.892997,-14.527279 z m 12.724286,18.240747 c -5.45,3.856167 -12.265666,7.378437 -22.523687,10.059332 -3.296807,1.80203 -6.978348,3.45013 -12.66331,4.2969 l -0.176217,4.4111 c 3.562534,-0.56681 7.06427,-1.28915 10.150285,-3.07372 l 1.536857,4.21163 C 98.292349,106.79817 106.93004,95.593971 108.33912,92.512698 Z m -74.85641,5.521627 c 3.522015,4.257185 14.645983,11.704295 25.71626,13.300475 0.07967,0.0115 -0.100769,-4.42711 -0.100769,-4.42711 -4.748882,-0.45123 -8.669081,-2.62351 -12.757361,-4.44676 -5.311294,-1.01539 -8.857688,-2.802444 -12.85813,-4.426605 z"
     sodipodi:nodetypes="cccccccscccsccccccccccccccccccccccccccccccccccsccc" /><metadata
     id="metadata1"><rdf:RDF><cc:Work
         rdf:about=""><dc:title>Tracker Dart</dc:title></cc:Work></rdf:RDF></metadata></svg>
