<?xml version="1.0" encoding="UTF-8" standalone="no"?>
<svg
   version="1.1"
   viewBox="0 0 1952 808"
   width="488"
   height="202"
   id="svg104"
   sodipodi:docname="2oWi9oP807zmFdWJRdO4V4h6YEf.svg"
   inkscape:version="1.3.2 (091e20e, 2023-11-25, custom)"
   xmlns:inkscape="http://www.inkscape.org/namespaces/inkscape"
   xmlns:sodipodi="http://sodipodi.sourceforge.net/DTD/sodipodi-0.dtd"
   xmlns="http://www.w3.org/2000/svg"
   xmlns:svg="http://www.w3.org/2000/svg">
  <defs
     id="defs104" />
  <sodipodi:namedview
     id="namedview104"
     pagecolor="#808080"
     bordercolor="#666666"
     borderopacity="1.0"
     inkscape:showpageshadow="2"
     inkscape:pageopacity="0.0"
     inkscape:pagecheckerboard="true"
     inkscape:deskcolor="#000000"
     showgrid="false"
     inkscape:zoom="3.9499448"
     inkscape:cx="182.5342"
     inkscape:cy="79.11503"
     inkscape:window-width="3840"
     inkscape:window-height="2107"
     inkscape:window-x="-8"
     inkscape:window-y="-8"
     inkscape:window-maximized="1"
     inkscape:current-layer="svg104" />
  <path
     id="path1"
     d="M -415 -468 L -432 -467 L -433 -466 L -434 -448 L -440 -446 L -442 -444 L -442 -437 L -356 -436 L -343 -435 L -336 -434 L -336 -437 L -338 -441 L -344 -444 L -353 -442 L -364 -455 L -371 -466 L -376 -468 L -415 -468 z M -891 -455 L -912 -454 L -916 -448 L -916 -435 L -907 -434 L -908 -419 L -907 -415 L -889 -414 L -889 -410 L -886 -404 L -865 -404 L -862 -406 L -855 -414 L -849 -419 L -843 -426 L -840 -432 L -840 -443 L -842 -448 L -847 -454 L -855 -455 L -891 -455 z M -450 -442 L -455 -440 L -462 -432 L -463 -427 L -461 -426 L -452 -426 L -449 -427 L -445 -438 L -446 -442 L -450 -442 z M -835 -434 L -836 -433 L -843 -422 L -853 -411 L -853 -407 L -833 -408 L -833 -420 L -834 -427 L -826 -428 L -825 -429 L -826 -433 L -835 -434 z M -444 -434 L -446 -427 L -446 -405 L -318 -405 L -317 -406 L -318 -416 L -320 -420 L -329 -425 L -345 -433 L -420 -434 L -444 -434 z M -931 -426 L -933 -420 L -939 -416 L -940 -410 L -938 -408 L -898 -406 L -890 -407 L -890 -409 L -893 -411 L -911 -412 L -911 -425 L -931 -426 z M -813 -426 L -814 -424 L -814 -409 L -813 -408 L -756 -409 L -755 -423 L -756 -425 L -813 -426 z M -320 -426 L -320 -424 L -317 -422 L -316 -419 L -316 -402 L -326 -401 L -449 -401 L -451 -404 L -860 -404 L -861 -403 L -866 -401 L -889 -401 L -890 -405 L -912 -405 L -937 -406 L -938 -401 L -945 -395 L -953 -388 L -965 -376 L -964 -358 L -897 -358 L -891 -366 L -885 -371 L -876 -375 L -344 -376 L -270 -377 L -272 -382 L -292 -402 L -291 -414 L -293 -424 L -295 -426 L -320 -426 z M -736 -425 L -737 -424 L -737 -410 L -735 -408 L -720 -408 L -718 -424 L -720 -425 L -736 -425 z M -697 -425 L -698 -424 L -698 -410 L -697 -409 L -640 -409 L -640 -425 L -697 -425 z M -620 -425 L -621 -424 L -621 -410 L -619 -408 L -604 -408 L -603 -413 L -602 -424 L -605 -425 L -620 -425 z M -582 -425 L -582 -410 L -581 -409 L -524 -409 L -524 -422 L -525 -425 L -582 -425 z M -505 -425 L -506 -424 L -506 -411 L -505 -408 L -489 -408 L -488 -411 L -487 -425 L -505 -425 z M -468 -425 L -468 -409 L -466 -407 L -451 -408 L -450 -409 L -449 -424 L -454 -425 L -468 -425 z M -830 -418 L -831 -417 L -831 -407 L -817 -407 L -816 -408 L -816 -414 L -818 -418 L -830 -418 z M -750 -418 L -754 -416 L -754 -408 L -752 -407 L -740 -408 L -740 -415 L -742 -417 L -750 -418 z M -713 -418 L -715 -417 L -717 -408 L -700 -408 L -700 -414 L -703 -417 L -713 -418 z M -597 -418 L -599 -417 L -602 -408 L -584 -408 L -584 -411 L -586 -417 L -597 -418 z M -518 -418 L -522 -416 L -522 -408 L -521 -407 L -509 -407 L -508 -408 L -509 -417 L -518 -418 z M -484 -418 L -485 -417 L -486 -407 L -470 -407 L -471 -416 L -473 -418 L -484 -418 z M -637 -417 L -638 -415 L -638 -408 L -623 -408 L -624 -414 L -627 -417 L -637 -417 z M -340 -376 L -341 -375 L -342 -353 L -342 -311 L -341 -308 L -212 -308 L -241 -307 L -342 -307 L -417 -306 L -871 -306 L -881 -308 L -887 -311 L -895 -320 L -899 -330 L -900 -340 L -897 -357 L -964 -357 L -965 -338 L -965 -300 L -964 -272 L -871 -272 L -865 -275 L -855 -283 L -842 -293 L -833 -299 L -190 -299 L -189 -310 L -188 -311 L -186 -317 L -195 -329 L -196 -337 L -205 -351 L -216 -365 L -225 -375 L -269 -376 L -340 -376 z M -1076 -364 L -1078 -363 L -1079 -360 L -1079 -347 L -1065 -348 L -1034 -348 L -1012 -347 L -974 -346 L -974 -293 L -1078 -293 L -1079 -291 L -1079 -283 L -1078 -282 L -969 -282 L -969 -363 L -970 -364 L -1076 -364 z M -316 -361 L -312 -361 L -305 -359 L -299 -353 L -296 -347 L -296 -337 L -299 -331 L -305 -326 L -312 -323 L -322 -324 L -329 -330 L -333 -338 L -333 -346 L -329 -352 L -324 -357 L -316 -361 z M -321 -356 L -324 -355 L -329 -350 L -329 -342 L -326 -333 L -320 -328 L -311 -328 L -307 -330 L -301 -337 L -301 -347 L -305 -353 L -311 -356 L -321 -356 z M -324 -352 L -319 -351 L -312 -345 L -312 -339 L -317 -339 L -318 -340 L -325 -350 L -324 -352 z M -1058 -347 L -1077 -345 L -1084 -343 L -1084 -295 L -1057 -294 L -977 -294 L -976 -295 L -976 -344 L -1046 -347 L -1058 -347 z M -36 -346 L -41 -342 L -51 -334 L -59 -326 L -59 -320 L -85 -318 L -132 -310 L -181 -301 L -182 -293 L -181 -278 L -158 -278 L -158 -272 L -351 -272 L -352 -271 L -352 -260 L -350 -258 L -342 -258 L -338 -264 L -300 -265 L -23 -265 L -20 -264 L -17 -258 L -7 -258 L -7 -272 L -78 -272 L -136 -273 L -137 -277 L -3 -278 L -2 -283 L 221 -282 L 221 -253 L 222 -251 L 412 -251 L 414 -252 L 414 -274 L 404 -288 L 394 -300 L 383 -314 L 51 -315 L 48 -316 L 44 -320 L 38 -324 L -10 -324 L -13 -323 L -21 -319 L -27 -318 L -27 -336 L -28 -343 L -31 -346 L -36 -346 z M -897 -342 L -898 -338 L -896 -331 L -758 -330 L -753 -331 L -753 -341 L -897 -342 z M -518 -341 L -518 -332 L -517 -331 L -347 -330 L -344 -331 L -344 -341 L -518 -341 z M -1047 -340 L -1021 -340 L -1019 -339 L -1017 -333 L -1017 -306 L -1020 -300 L -1046 -300 L -1048 -303 L -1048 -337 L -1047 -340 z M -1005 -339 L -985 -339 L -982 -338 L -981 -336 L -981 -304 L -983 -300 L -1007 -300 L -1009 -304 L -1009 -334 L -1008 -337 L -1005 -339 z M -749 -338 L -750 -336 L -750 -311 L -749 -307 L -713 -307 L -713 -336 L -715 -338 L -749 -338 z M -710 -332 L -711 -331 L -711 -316 L -710 -315 L -521 -315 L -521 -332 L -710 -332 z M -895 -329 L -893 -323 L -888 -319 L -753 -319 L -753 -328 L -754 -329 L -895 -329 z M -517 -329 L -517 -320 L -502 -319 L -344 -319 L -344 -328 L -346 -329 L -517 -329 z M -517 -318 L -518 -311 L -516 -307 L -345 -308 L -344 -309 L -344 -316 L -345 -317 L -517 -318 z M -887 -317 L -883 -312 L -875 -308 L -759 -307 L -753 -308 L -752 -312 L -753 -317 L -887 -317 z M -821 -298 L -831 -297 L -833 -296 L -844 -288 L -853 -281 L -862 -273 L -863 -269 L -857 -252 L -853 -242 L -365 -242 L -364 -257 L -358 -258 L -357 -260 L -357 -277 L -186 -278 L -186 -298 L -821 -298 z M -750 -291 L -742 -291 L -738 -289 L -734 -283 L -734 -277 L -736 -273 L -742 -268 L -749 -268 L -751 -269 L -757 -276 L -757 -284 L -756 -286 L -750 -291 z M -701 -291 L -695 -291 L -691 -289 L -687 -284 L -686 -277 L -689 -272 L -694 -268 L -699 -267 L -704 -269 L -709 -275 L -710 -282 L -707 -287 L -701 -291 z M -654 -291 L -649 -291 L -644 -288 L -640 -282 L -640 -276 L -642 -273 L -647 -268 L -653 -267 L -660 -271 L -663 -276 L -663 -283 L -659 -288 L -654 -291 z M -605 -291 L -599 -291 L -595 -289 L -590 -282 L -590 -276 L -597 -268 L -604 -267 L -608 -269 L -613 -275 L -614 -282 L -611 -287 L -605 -291 z M -556 -291 L -550 -291 L -548 -290 L -542 -283 L -541 -277 L -545 -271 L -551 -267 L -558 -268 L -564 -275 L -565 -282 L -562 -287 L -556 -291 z M -508 -291 L -504 -291 L -498 -288 L -494 -281 L -495 -275 L -501 -268 L -508 -267 L -511 -269 L -516 -274 L -518 -281 L -514 -288 L -508 -291 z M -461 -291 L -455 -290 L -451 -287 L -448 -281 L -449 -274 L -454 -269 L -461 -267 L -467 -270 L -471 -276 L -471 -283 L -467 -288 L -461 -291 z M -1076 -280 L -1077 -279 L -1077 -166 L -1078 -152 L -1079 -143 L -1076 -142 L -999 -142 L -998 -143 L -998 -279 L -999 -280 L -1076 -280 z M -991 -280 L -992 -279 L -992 -174 L -873 -174 L -868 -177 L -859 -184 L -857 -190 L -857 -231 L -858 -233 L -862 -232 L -862 -191 L -863 -190 L -863 -234 L -563 -234 L -560 -231 L -560 -192 L -559 -188 L -562 -187 L -562 -184 L -559 -182 L -545 -174 L -365 -174 L -364 -175 L -364 -238 L -366 -240 L -855 -240 L -855 -243 L -861 -258 L -866 -268 L -969 -268 L -969 -280 L -991 -280 z M 20 -278 L 18 -277 L 14 -272 L 6 -271 L 3 -270 L 3 -248 L 4 -187 L 216 -187 L 216 -258 L 203 -260 L 202 -277 L 201 -278 L 191 -278 L 190 -269 L 189 -219 L 186 -212 L 180 -209 L 53 -209 L 48 -211 L 41 -220 L 40 -278 L 20 -278 z M 43 -278 L 42 -276 L 41 -259 L 41 -235 L 42 -222 L 43 -219 L 49 -212 L 54 -210 L 59 -211 L 58 -273 L 47 -275 L 46 -277 L 43 -278 z M 578 -276 L 565 -275 L 565 -184 L 566 -182 L 582 -181 L 604 -181 L 606 -182 L 618 -197 L 624 -206 L 624 -254 L 623 -256 L 616 -263 L 607 -274 L 602 -276 L 578 -276 z M 61 -274 L 60 -273 L 60 -211 L 61 -210 L 100 -210 L 100 -273 L 96 -274 L 61 -274 z M 102 -273 L 101 -249 L 101 -215 L 102 -210 L 180 -210 L 185 -212 L 188 -219 L 189 -269 L 188 -273 L 102 -273 z M 553 -273 L 419 -272 L 418 -248 L 408 -246 L 407 -245 L 407 -182 L 409 -183 L 415 -194 L 560 -194 L 562 -191 L 562 -273 L 553 -273 z M -725 -269 L -718 -269 L -712 -264 L -711 -255 L -713 -252 L -718 -248 L -727 -249 L -732 -255 L -732 -261 L -730 -265 L -725 -269 z M -676 -269 L -669 -268 L -664 -262 L -663 -255 L -670 -248 L -678 -248 L -683 -253 L -685 -259 L -681 -266 L -676 -269 z M -629 -269 L -625 -269 L -621 -267 L -617 -261 L -617 -254 L -624 -248 L -632 -248 L -636 -252 L -638 -261 L -634 -266 L -629 -269 z M -579 -269 L -573 -268 L -568 -263 L -567 -255 L -573 -248 L -582 -248 L -584 -249 L -588 -255 L -588 -261 L -585 -266 L -579 -269 z M -530 -269 L -528 -269 L -522 -266 L -518 -260 L -519 -254 L -526 -248 L -533 -248 L -538 -252 L -540 -259 L -536 -266 L -530 -269 z M -483 -269 L -477 -268 L -472 -263 L -471 -255 L -473 -252 L -478 -248 L -486 -248 L -489 -250 L -492 -255 L -492 -261 L -489 -266 L -483 -269 z M 628 -266 L 627 -257 L 626 -192 L 625 -190 C 622.18538 -186.48173 619.3976 -182.99503 616 -180 L 562 -180 L 561 -187 L 558 -191 L 417 -191 L 415 -189 L 412 -178 L 362 -178 L 355 -179 L 350 -191 L 347 -192 L 299 -193 L 266 -193 L 266 -246 L 250 -247 L 222 -247 L 221 -242 L 221 -88 L 222 -71 L 604 -71 L 614 -75 L 631 -76 L 663 -77 L 664 -83 L 664 -256 L 663 -257 L 653 -261 L 636 -266 L 628 -266 z M -230 -264 L -335 -263 L -336 -262 L -335 -258 L -23 -258 L -22 -259 L -23 -263 L -88 -264 L -230 -264 z M -1092 -262 L -1094 -260 L -1094 -162 L -1093 -160 L -1081 -160 L -1080 -259 L -1082 -262 L -1092 -262 z M 672 -257 L 671 -256 L 671 122 L 717 122 L 719 120 L 719 46 L 718 38 L 713 11 L 709 -13 L 708 -248 L 705 -253 L 700 -256 L 672 -257 z M -361 -255 L -362 -254 L -362 -174 L -361 -170 L -353 -159 L -341 -158 L -340 -227 L -339 -251 L -340 -255 L -361 -255 z M -24 -254 L -24 -159 L -23 -158 L -6 -159 L -2 -163 L 1 -168 L 1 -252 L 0 -254 L -24 -254 z M -288 -251 L -289 -250 L -287 -231 L -284 -226 L -247 -226 L -245 -227 L -240 -231 L -228 -233 L -227 -234 L -228 -247 L -229 -248 L -285 -248 L -288 -251 z M -225 -251 L -226 -250 L -227 -245 L -224 -243 L -223 -241 L -226 -241 L -225 -234 L -220 -232 L -204 -232 L -198 -231 L -193 -226 L -158 -226 L -156 -227 L -154 -231 L -148 -232 L -125 -232 L -124 -231 L -123 -124 L -42 -124 L -30 -136 L -30 -236 L -36 -241 L -41 -247 L -54 -248 L -55 -241 L -55 -166 L -56 -157 L -57 -155 L -62 -150 L -70 -147 L -98 -147 L -104 -149 L -108 -151 L -109 -154 L -112 -160 L -113 -247 L -115 -248 L -218 -248 L -223 -247 L -223 -250 L -225 -251 z M -296 -248 L -321 -247 L -324 -244 L -330 -239 L -331 -224 L -332 -220 L -336 -218 L -336 -136 L -334 -131 L -329 -126 L -325 -124 L -324 -233 L -290 -234 L -291 -247 L -296 -248 z M -71 -248 L -98 -247 L -98 -167 L -97 -162 L -95 -160 L -89 -158 L -79 -158 L -73 -159 L -69 -161 L -67 -167 L -67 -246 L -71 -248 z M -109 -247 L -109 -161 L -107 -157 L -102 -152 L -95 -149 L -71 -149 L -66 -150 L -60 -154 L -57 -159 L -57 -247 L -63 -247 L -65 -161 L -67 -158 L -76 -156 L -91 -156 L -96 -157 L -99 -159 L -101 -167 L -101 -243 L -102 -247 L -109 -247 z M 286 -246 L 281 -245 L 278 -243 L 278 -199 L 279 -197 L 286 -195 L 289 -196 L 289 -245 L 286 -246 z M 292 -246 L 292 -195 L 294 -194 L 351 -193 L 352 -191 L 355 -188 L 356 -212 L 356 -245 L 355 -246 L 292 -246 z M 359 -246 L 358 -245 L 358 -182 L 359 -181 L 367 -180 L 369 -182 L 369 -246 L 359 -246 z M 394 -246 L 394 -181 L 405 -181 L 405 -246 L 394 -246 z M 372 -243 L 371 -242 L 370 -235 L 370 -190 L 375 -188 L 390 -188 L 392 -189 L 392 -241 L 391 -242 L 372 -243 z M -803 -233 L -853 -232 L -854 -226 L -854 -192 L -853 -188 L -797 -188 L -797 -232 L -798 -233 L -803 -233 z M -793 -233 L -793 -190 L -792 -189 L -783 -189 L -779 -190 L -779 -233 L -793 -233 z M -757 -233 L -758 -232 L -758 -190 L -752 -189 L -743 -190 L -742 -208 L -742 -224 L -743 -233 L -757 -233 z M -715 -233 L -739 -232 L -740 -231 L -740 -188 L -683 -188 L -683 -218 L -684 -233 L -715 -233 z M -678 -233 L -679 -232 L -679 -190 L -678 -189 L -671 -189 L -664 -191 L -664 -226 L -665 -233 L -678 -233 z M -641 -233 L -642 -232 L -642 -190 L -632 -189 L -628 -190 L -628 -233 L -641 -233 z M -605 -233 L -623 -232 L -623 -188 L -566 -188 L -565 -189 L -566 -232 L -584 -233 L -605 -233 z M -776 -232 L -777 -189 L -771 -188 L -760 -188 L -760 -232 L -776 -232 z M -661 -232 L -662 -226 L -662 -189 L -649 -188 L -644 -189 L -644 -230 L -645 -232 L -661 -232 z M -320 -231 L -321 -230 L -321 -121 L -320 -120 L -126 -120 L -126 -230 L -127 -231 L -143 -231 L -149 -230 L -151 -228 L -153 -224 L -195 -225 L -201 -231 L -236 -231 L -245 -225 L -284 -225 L -286 -226 L -290 -231 L -320 -231 z M 6 -184 L 5 -183 L 3 -165 L -1 -161 L -4 -156 L -4 -48 L -2 -40 L 4 -35 L 14 -34 L 56 -34 L 65 -36 L 68 -39 L 71 -45 L 75 -64 L 77 -76 L 216 -77 L 216 -183 L 214 -184 L 6 -184 z M -992 -172 L -993 -171 L -993 -164 L -361 -164 L -360 -165 L -363 -171 L -366 -172 L -992 -172 z M -992 -160 L -993 -159 L -993 -100 L -358 -100 L -357 -101 L -357 -159 L -358 -160 L -992 -160 z M -350 -156 L -351 -155 L -351 6 L -349 9 L -332 12 L -292.32812 18.960938 C -278.68153 48.118718 -254.44154 99.804599 -166 288 L -158 304 L -153 313 L -145 319 L -118 328 L -104 328 L -89 324 L -9 301 L 43 286 L 105 268 L 106 265 L 93 235 L 88 227 L 71 231 L -91 277 L -103 277 L -106 276 L -129 268 L -133 265 L -139 256 L -156 219 L -165 199 L -181 165 L -190 144 L -192 134 L -192 79 L 35 79 L 55 83 L 63 87 L 69 94 L 69 100 L 65 106 L 56 114 L 39 125 L 36 128 L 35 133 L 37 134 L 42 133 L 55 128 L 57 124 L 61 123 L 77 121 L 110 121 L 115 122 L 121 125 L 126 132 L 137 155 L 142 170 L 142 181 L 136 193 L 127 201 L 111 209 L 91 213 L 90 215 L 97 232 L 113 268 L 119 268 L 126 266 L 178 251 L 226 237 L 236 233 L 237 175 L 238 174 L 240 170 L 237 164 L 225 144 L 212 122 L 195 93 L 180 67 L 173 57 L 165 50 L 150 40 L 127 25 L 123 20 L 115 0 L 0 0 L 0 1 L 12 13 L 21 23 L 27 33 L 30 43 L 30 53 L 27 58 L 19 64 L 9 68 L -3 70 L -34 70 L -159 69 L -165 59 L -177 37 L -182 32 L -192 32 L -193 29 L -255 27 L -280 24 L -289 24 L -284 36 C -74.871481 480.4354 -248.15587 112.25503 -292.20312 18.984375 L -275 22 L -251 25 L -193 25 L -192 24 L -192 -114 L -193 -115 L -325 -116 L -330 -120 L -334 -122 L -334 -124 L -338 -127 L -340 -134 L -341 -156 L -350 -156 z M -23 -156 L -24 -155 L -25 -135 L -27 -131 L -35 -124 L -35 -122 L -37 -122 L -36 -120 L -20 -120 L -17 -121 L -12 -125 L -7 -130 L -7 -156 L -23 -156 z M -977 -155 L -970 -154 L -965 -148 L -965 -139 L -970 -134 L -977 -132 L -984 -135 L -987 -142 L -986 -149 L -982 -153 L -977 -155 z M -375 -155 L -368 -154 L -362 -148 L -361 -141 L -367 -134 L -373 -132 L -380 -135 L -384 -141 L -384 -147 L -380 -152 L -375 -155 z M -1125 -152 L -1126 -147 L -1126 -38 L -1125 -32 L -1122 -28 L -1116 -25 L -1103 -25 L -1096 -29 L -1093 -35 L -1093 -133 L -1094 -148 L -1097 -152 L -1125 -152 z M -950 -149 L -878 -149 L -873 -145 L -870 -139 L -870 -131 L -871 -128 L -874 -124 L -881 -121 L -948 -121 L -953 -123 L -958 -131 L -958 -140 L -954 -147 L -950 -149 z M -852 -149 L -780 -149 L -775 -145 L -772 -138 L -772 -131 L -773 -129 L -777 -124 L -783 -121 L -850 -121 L -853 -122 L -858 -127 L -861 -134 L -860 -141 L -857 -146 L -852 -149 z M -758 -149 L -685 -149 L -680 -145 L -677 -137 L -678 -130 L -682 -124 L -688 -121 L -755 -121 L -758 -122 L -763 -126 L -766 -132 L -766 -139 L -763 -145 L -758 -149 z M -663 -149 L -590 -149 L -586 -145 L -583 -139 L -583 -131 L -587 -124 L -594 -121 L -661 -121 L -665 -123 L -670 -128 L -672 -135 L -670 -143 L -663 -149 z M -566 -149 L -493 -149 L -488 -145 L -485 -137 L -486 -130 L -490 -124 L -496 -121 L -562 -121 L -566 -122 L -570 -125 L -574 -132 L -574 -140 L -571 -145 L -566 -149 z M -470 -149 L -397 -149 L -394 -147 L -390 -139 L -390 -131 L -394 -124 L -400 -121 L -468 -121 L -474 -124 L -478 -130 L -478 -141 L -477 -143 L -470 -149 z M -1178 -124 L -1178 -10 L -1177 -3 L -989 -3 L -987 -4 L -987 -94 L -988 -95 L -997 -95 L -997 -124 L -1090 -124 L -1091 -33 L -1092 -31 L -1096 -26 L -1105 -23 L -1115 -23 L -1125 -26 L -1125 -28 L -1128 -34 L -1129 -124 L -1178 -124 z M -1217 -118 L -1220 -115 L -1221 -31 L -1216 -25 L -1209 -25 L -1202 -29 L -1193 -30 L -1192 -31 L -1192 -116 L -1193 -117 L -1203 -118 L -1217 -118 z M -1186 -117 L -1187 -116 L -1187 -32 L -1182 -31 L -1182 -117 L -1186 -117 z M -189 -113 L -190 -110 L -190 19 L -188 22 L -182 20 L -177 15 L -177 -100 L -179 -104 L -186 -112 L -189 -113 z M -118 -101 L -173 -100 L -174 -98 L -174 13 L -169 11 L -156 2 L -147 -2 L 107 -2 L 114 -3 L 115 -8 L 124 -31 L 129 -43 L 217 -44 L 217 -68 L 215 -75 L 82 -75 L 79 -73 L 78 -66 L 73 -42 L 69 -36 L 62 -33 L 4 -33 L 1 -34 L -3 -36 L -3 -38 L -6 -43 L -7 -61 L -7 -100 L -12 -101 L -118 -101 z M -980 -95 L -982 -94 L -982 -4 L -981 -3 L -880 -3 L -877 -4 L -877 -77 L -599 -76 L -578 -77 L -578 -93 L -583 -95 L -980 -95 z M -572 -95 L -574 -94 L -574 -4 L -573 -3 L -523 -2 L -521 1 L -513 12 L -504 23 L -375 23 L -369 20 L -360 13 L -357 8 L -357 -94 L -358 -95 L -572 -95 z M 624 -73 L 614 -72 L 609 -70 L 604 -67 L 604 -10 L 605 2 L 608 17 L 619 56 L 627 83 L 635 112 L 663 112 L 664 111 L 664 -71 L 663 -73 L 624 -73 z M -873 -72 L -874 -70 L -874 -4 L -872 -3 L -584 -2 L -578 -4 L -578 -72 L -873 -72 z M 1 -71 L 54 -71 L 55 -69 L 55 -47 L 54 -44 L 1 -44 L 0 -45 L 0 -70 L 1 -71 z M 14 -68 L 4 -67 L 4 -48 L 5 -47 L 51 -47 L 51 -67 L 49 -68 L 14 -68 z M 222 -68 L 222 -44 L 314 -43 L 321 -42 L 332 -38 L 341 -30 L 347 -20 L 351 -7 L 355 2 L 360 8 L 368 12 L 381 12 L 388 11 L 402 11 L 404 12 L 409 16 L 413 24 L 413 89 L 412 92 L 403 103 L 395 113 L 382 129 L 374 133 C 346.40233 141.56479 291 158 291 158 L 249 171 L 241 178 L 240 182 L 246 182 L 266 176 L 399 136 L 464 116 L 511 102 L 564 86 L 603 74 L 608 71 L 612 64 L 616 56 L 616 49 L 615 45 L 607 17 L 604 1 L 603 -67 L 602 -68 L 222 -68 z M 616 56 L 609 73 L 587 80 L 558 89 L 467 116 L 427 128 L 365 147 L 318 161 L 285 171 L 241 184 L 240 187 L 240 222 L 241 226 L 245 226 L 325 202 L 359 192 L 469 159 L 589 123 L 620 114 L 633 112 L 633 108 L 628 89 L 618 56 L 616 56 z M -841 -55 L -681 -55 L -681 -49 L -840 -49 L -842 -53 L -841 -55 z M 476 -44 L 586 -44 L 591 -42 L 592 -9 L 591 11 L 589 14 L 583 17 L 567 19 L 557 24 L 552 30 L 549 37 L 548 65 L 547 69 L 543 75 L 535 82 L 519 90 L 493 99 L 484 96 L 457 83 L 454 80 L 454 -16 L 455 -18 L 464 -31 L 471 -42 L 476 -44 z M -841 -42 L -681 -42 L -681 -36 L -840 -36 L -841 -37 L -841 -42 z M -840 -29 L -681 -29 L -681 -23 L -841 -23 L -841 -28 L -840 -29 z M 369 -28 L 380 -28 L 382 -27 L 388 -22 L 391 -16 L 391 -6 L 390 -4 L 385 2 L 379 5 L 369 5 L 367 4 L 360 -2 L 357 -10 L 359 -19 L 363 -24 L 369 -28 z M -765 -2 L -809 -1 L -810 0 L -810 39 L -809 40 L -591 40 L -590 39 L -588 35 L -586 35 L -583 32 L -581 27 L -581 0 L -582 -1 L -635 -1 L -637 21 L -640 25 L -647 28 L -663 28 L -668 25 L -672 19 L -673 0 L -675 -2 L -723 -1 L -724 18 L -725 21 L -729 26 L -735 28 L -750 28 L -754 27 L -760 19 L -761 -1 L -765 -2 z M -36 -1 L -36 1 L -29 15 L -27 25 L -27 41 L -28 47 L -32 57 L -39 67 L -38 69 L -21 69 L 5 68 L 14 65 L 24 59 L 28 53 L 28 42 L 27 38 L 22 28 L 14 18 L 7 12 L 0 4 L -6 0 L -36 -1 z M -1173 4 L -1173 9 L -1171 14 L -815 14 L -813 13 L -813 4 L -1173 4 z M -576 5 L -576 14 L -526 14 L -525 5 L -576 5 z M -1169 16 L -1169 20 L -1167 23 L -1068 23 L -1065 18 L -1066 16 L -1169 16 z M -1064 16 L -1063 18 L -1054 18 L -1054 16 L -1064 16 z M -1053 16 L -1050 23 L -991 23 L -988 18 L -989 16 L -1053 16 z M -987 16 L -987 18 L -978 18 L -977 16 L -987 16 z M -976 16 L -976 18 L -974 18 L -973 23 L -952 23 L -950 21 L -936 21 L -935 23 L -873 23 L -872 16 L -976 16 z M -857 16 L -857 22 L -856 23 L -837 23 L -836 22 L -836 17 L -837 16 L -857 16 z M -818 16 L -819 17 L -819 22 L -818 23 L -813 23 L -813 16 L -818 16 z M -576 16 L -577 17 L -577 22 L -576 23 L -527 23 L -526 19 L -527 16 L -576 16 z M 569 25 L 576 25 L 584 29 L 589 37 L 589 47 L 588 50 L 583 56 L 577 59 L 568 59 L 565 58 L 561 55 L 556 47 L 556 36 L 557 34 L 561 29 L 569 25 z M -809 42 L -810 43 L -810 88 L -809 89 L -801 89 L -797 85 L -790 66 L -785 54 L -778 46 L -776 42 L -809 42 z M -709 42 L -709 47 L -707 49 L -696 58 L -692 63 L -689 71 L -689 84 L -692 85 L -709 93 L -713 98 L -710 103 L -684 104 L -682 105 L -648 156 L -619 199 L -606 218 L -584 251 L -579 253 L -553 244 L -505 227 L -495 222 L -494 218 L -502 203 L -519 175 L -570 90 L -579 76 L -588 66 L -592 58 L -592 43 L -595 42 L -709 42 z M 36 82 L 36 83 L 41 89 L 48 100 L 46 108 L 40 117 L 39 121 L 41 121 L 46 118 L 56 111 L 67 99 L 67 94 L 66 93 L 58 87 L 48 84 L 36 82 z M 80 123 L 62 125 L 61 126 L 64 130 L 72 137 L 78 144 L 84 156 L 90 173 L 93 188 L 93 197 L 91 209 L 96 210 L 112 206 L 124 200 L 134 191 L 139 181 L 139 172 L 135 159 L 126 139 L 121 131 L 116 126 L 104 123 L 80 123 z M -585 125 L -581 127 L -582 130 C -591.67881 135.64598 -601.35328 141.29924 -611 147 L -616 148 L -618 145 L -617 143 C -606.5595 136.57508 -596.07067 130.31778 -585 125 z M -568 153 L -565 153 L -564 158 L -567 160 L -595 176 L -599 175 L -599 171 C -588.62485 165.07135 -578.25563 159.13469 -568 153 z M -551 182 L -547 182 L -546 186 L -549 188 C -558.08589 193.19193 -567.19117 198.34168 -576 204 L -581 204 L -582 200 C -572.04438 193.36292 -561.42223 187.87297 -551 182 z "
     transform="translate(1225,475)" />
</svg>
