<?xml version="1.0" encoding="UTF-8" standalone="no"?>
<svg
   version="1.1"
   viewBox="0 0 2048 444"
   width="618"
   height="134"
   id="svg17"
   sodipodi:docname="2upmuSjvu2fSsw0l36WhvzIuV12.svg"
   inkscape:version="1.3.2 (091e20e, 2023-11-25, custom)"
   xmlns:inkscape="http://www.inkscape.org/namespaces/inkscape"
   xmlns:sodipodi="http://sodipodi.sourceforge.net/DTD/sodipodi-0.dtd"
   xmlns="http://www.w3.org/2000/svg"
   xmlns:svg="http://www.w3.org/2000/svg">
  <defs
     id="defs17" />
  <sodipodi:namedview
     id="namedview17"
     pagecolor="#ffffff"
     bordercolor="#666666"
     borderopacity="1.0"
     inkscape:showpageshadow="2"
     inkscape:pageopacity="0.0"
     inkscape:pagecheckerboard="0"
     inkscape:deskcolor="#d1d1d1"
     showgrid="false"
     inkscape:zoom="3.049255"
     inkscape:cx="347.46192"
     inkscape:cy="171.02538"
     inkscape:window-width="3840"
     inkscape:window-height="2080"
     inkscape:window-x="-11"
     inkscape:window-y="-11"
     inkscape:window-maximized="1"
     inkscape:current-layer="svg17" />
  <path
     id="path1"
     style="fill:#000000;fill-opacity:1"
     d="M 121.00324,-95.003236 118,-94 118.99676,-91.003236 130,-72 140,-55.003236 170,-3.0032362 180,14 l 13.00324,22.996764 9.99352,16 h 2.00648 L 210,47.003236 h 4.99676 L 218,48.996764 218.99676,52 218,59.003236 l 8.99676,4 4,0.996764 L 238,54 238.99676,48.996764 237.00324,46 226,32 216,19.003236 206.99676,7.0032362 193.00324,-11.003236 182,-24.996764 l -12,-16 L 156,-59.003236 146,-72 132,-90 126.99676,-95.003236 Z M 100,-88 v 2 l 8,13.003236 L 122,-48 134,-27.003236 148,-2 150,3.0032362 136,32.996764 v 6.006472 L 146,70 150,79.003236 154.99676,82 170,92 h 54 l 5.00324,-7.003236 8.99676,-4 4,-4 v -16 L 240,62 234,72 h -3.00324 L 206,60.996764 197.00324,58 196,55.003236 186,38 170.99676,12 161.00324,-4.9967638 146,-31.003236 l -16,-28 -14,-24 L 112,-88 Z M 0,0 -14.996764,7.0032362 -42.996764,20 l -16,8 -16,7.003236 L -114,54 -132,62 -206,63.003236 -685.00324,70 -722,71.003236 -820,72 -914.99676,74 H -946 L -970.99676,72.996764 -977.00324,72 l -16,-8 -9.99356,-8.996764 -4,-2.006472 L -1044,66 -1074,76.996764 -1098,87.003236 -1118.9968,98 l -16,9.00324 -24,12.99676 -2.0064,4 3.0032,2 32.9968,17.00324 L -1090,160 l 26,12 26,11.00324 23.0032,8 12,0.99676 0.9968,-2 8.99676,-9.00324 10.00648,-5.99352 L -972,172 h 12 l 82.99676,2 220,2.99676 L -606,178 l 266,4 82.99676,1.00324 L -198.99676,184 -130,186 -80,208.99676 -17.003236,238 -1.0032362,246 4,244.99676 l 12,-8 18.996764,-13.99352 20,-14.00648 L 70,199.00324 66.996764,194 l -24,-36 L 36,148 32,150 13.003236,164 4,170 -1.0032362,171.00324 -16,164 -50.996764,148 -76,136.99676 -98.996764,136 -100,138 -90,143.00324 -62,156 -24,174 2,186 5.0032362,184 18,175.00324 l 19.003236,-14.00648 4,5.00324 -4,4 -20,14 L 1.0032362,195.00324 -13.003236,188.99676 -42,176 -78,160 -117.00324,142 -226,140.99676 -226.99676,144 -220,148.99676 l 8,8 5.00324,3.00324 h 28 l 56.99676,0.99676 8.99676,4 34.006476,16 28,13.00324 16,8 28.0000002,13.00324 L 2,218 l 11.003236,-8 17.993528,-13.00324 17.003236,-12 6,-1.99352 0.996764,4 L 44,195.00324 25.003236,208 5.0032362,222 0,223.00324 l -8,-4 -26.996764,-12 L -49.003236,200 -66.996764,192 -108,172.99676 -124,166 l -198.99676,-2 -624,-4.99676 H -980 l -8,0.99676 -9.00324,3.00324 -7.99996,5.99352 -1.9936,4 L -1020,170 l -25.0032,-10 -24,-11.00324 L -1114.9968,126 -1120,123.00324 l 13.0032,-8 16.9968,-8 36,-16.000004 34,-14.006472 9.0032,-2.996764 8,6.996764 5.99356,4 9.00324,4 441.00324,-4 96,-0.996764 328,-4 L -120,79.003236 -106,72 -88,64 -54,48 -26,35.003236 -2.9967638,24 2,23.003236 9.0032362,28 26.996764,40.996764 l 17.003236,12 10,8 L 53.003236,64 50,63.003236 32,50 14.996764,38 2,28 -2,28.996764 -34,44 -68,60 -96,72.996764 -118,84 -130.99676,86 -201.00324,87.003236 -210,88 l -7.00324,6 -8,6.99676 -1.99352,4 H -120 l 2.99676,-0.99676 20.000004,-8.996764 36,-16 L -28,64 -2.9967638,52.996764 2,52 5.0032362,54 22,66 l 18,12 1.003236,2.996764 -4,4 L 20,72.996764 5.0032362,62 0,60.996764 -62,90 l -34,16 -4,4 h 22 l 6,-2 L -38.996764,92.996764 -2,76 l 4.9967638,-0.996764 11.0032362,8 19.003236,13.993528 4,1.003236 16,-25.003236 L 66.996764,51.003236 69.003236,46 66,44.996764 45.003236,31.003236 26.996764,18 4,2 Z m 164,30 2,1.003236 L 178.99676,54 l 8,16 -1.99352,4 h -8 l -6.00648,-2.996764 -4,-5.003236 -8,-20 L 158,40 Z m -85.003236,2 -4,4 L 74,40 l 4,6 0.996764,22 -4,-2 L 73.003236,60 70.996764,59.003236 68,62 56,80.996764 38.996764,107.00324 l -4,6.99676 v 18.99676 l 8,13.00324 L 62,175.00324 l 7.003236,9.99352 4,1.00324 L 74,180 78.996764,178 78,184.99676 77.003236,202 74,206 74.996764,210 80,214 l 5.003236,-2.99676 13.993528,-10.00648 v -4 L 97.003236,194 l -4,-2 -6.006472,3.00324 L 88,192 v -14 l -1.003236,-8 h 38.006476 l 9.99352,-8 L 152,148.99676 197.00324,148 l 1.99352,-0.99676 V 98 L 152,96.996764 150,96 140,88 124,75.003236 h -6.99676 L 113.00324,74 88,72.996764 86.996764,52 96,52.996764 l 2,-4 L 97.003236,44 84,34 Z M 734.99676,58 734,59.003236 l -16,12 L 700,84 v 4 l 21.00324,10 4.99676,2 6,-4.996764 2,-4 L 737.00324,92 760,102 797.00324,116.99676 806,120 v 2 l -1.86415,0.74717 C 781.81222,132.39318 759.86848,142.37793 738,152.99676 L 734,152 l -4,-2 v -2 l -3.00324,-3.00324 -4,-0.99676 -13.99352,6 -10.00648,5.00324 -1.99352,4 L 700,162 l 12,9.00324 21.00324,16 L 738,188 l 16.99676,-8 v -3.00324 L 749.00324,167.00324 746.99676,162 752,160 c 24.13664,-11.76239 48.56153,-22.89362 73.00324,-34 l 4,-2.99676 L 824,120 798.99676,108.99676 769.00324,95.003236 748,86 V 82 L 754.99676,70 756,66 741.00324,59.003236 Z M 762,70 l -4.99676,9.003236 0.99676,4 22,9.993528 L 809.00324,106 l 28,13.00324 L 846,122 845.00324,124 840,126 818,136 782,152.99676 762,162 l -6,4 5.00324,9.00324 4,0.99676 2.99676,-2 28,-13.00324 c 76.04552,-33.79801 54.23418,-25.25728 80,-36 L 877.00324,122 766.99676,71.003236 Z M -1018.9968,86 -1028,88.996764 -1052,99.003236 -1077.0032,112 -1096,122 v 2.99676 l 32,16 25.0032,12 16,6.00648 L -1014,160 l 2,-2 12,-6 10.99676,-3.00324 H -926 L -741.00324,150 l 176,2 L -446,152.99676 h 123.00324 V 152 L -332,143.00324 -340,136 H -685.00324 L -690,140 h -78 l -104,-0.99676 -6,-4 -4,-8 v -8 l 2,-5.00324 4,-5.00324 9.00324,-1.99352 136,-1.00324 H -688 l 1.00324,4 4,1.00324 h 341.99352 l 2.00648,-1.00324 8,-8 8,-6.996764 L -324,92 -885.00324,96.996764 -984,98 -994.99676,96 -1006,92 l -8,-4.996764 z M 73.003236,88.996764 H 118 L 122.99676,96 l 6.00648,8.99676 40,1.00324 5.99352,4 4,6 1.00324,10 -2,6 -4.99676,6 -6.00648,2.99676 L 129.00324,142 128,143.00324 122,152.99676 117.00324,158 H 74 l -0.996764,-1.00324 -8,-12 L 53.003236,126 52,122 Z M 472,91.003236 469.00324,94 462,96.996764 V 148.99676 L 470,154 h 18 l 5.00324,-5.00324 V 98 L 490.99676,94 486,91.003236 Z M 294.99676,92 237.00324,92.996764 236,94 230.99676,96 216,98 l -1.00324,5.00324 v 44 L 217.00324,148 H 232 v 2 l 4,4 h 40 l 2,2 h 16 l 12.99676,-0.99676 4,-2.00648 56,-0.99676 H 450 l 4.99676,-0.99676 V 92.996764 Z M 648,92.996764 645.00324,94 642,98 v 52 l 0.99676,1.00324 H 662 l 0.99676,-2.00648 L 662,94 661.00324,92.996764 Z M -1.0032362,94 l -4,2 -23.9999998,11.00324 -24.996764,12 H -872 L -874,120 v 6 l 0.99676,1.00324 H -54 l 4,4 20,8.99676 26,12 6,0.99676 16,-9.99352 L 26.996764,136 V 112.99676 L 22,108.99676 6,96.996764 Z M 698.99676,95.003236 694,100 l -4.99676,4.99676 v 38.00648 l 4,4 4,0.99676 24,-10 8,-1.00324 5.99352,7.00324 4,0.99676 L 786,123.00324 v -4 l -20,-8 -24,-10.00648 -6,-0.99676 -4,4 -5.00324,4 -4,-0.99676 L 704,96 Z m -592,1.993528 L 64,122 v 2.99676 l 42,24 4.99676,1.00324 6.00648,-6.99676 -1.00324,-4 -6,-8 -4,-4 V 136 C 98.303055,130.87424 84.859146,123.29681 84.859146,123.29681 L 106,111.00324 V 120 l 3.00324,-2 6.99676,-10.99676 1.00324,-4 L 110.99676,98 Z m 393.00324,0 V 148.99676 L 509.00324,150 h 93.99352 L 634,148.99676 634.99676,148 634,96.996764 Z M 670,98 669.00324,99.003236 V 144.99676 L 670,146 h 6 l 6,-2 v -42 l -2,-2 z M -2.9967638,102 H 2 l 8.996764,6 9.852295,8.10189 L 21.003236,130 18.996764,135.00324 4,144.99676 -2,146 l -8,-4 -36,-16 -0.996764,-4 8,-4 z M 288,108.99676 h 161.00324 v 30.00648 H 286 L 284,138 l -5.00324,-4 -4,-8 1.00324,-8 4,-5.00324 z m 220,0 H 610.99676 L 617.00324,112 622,119.00324 v 9.99352 l -4,6.00648 -6,4 H 508 L 506.99676,138 Z M 170,154 152,164.99676 148,170 142.99676,186 136,207.00324 V 214 l 1.00324,1.00324 5.99352,13.99352 5.00324,10.00648 2,5.99352 -6,10.00648 -30,52 -12.99676,21.99352 L 98.996764,334 101.00324,335.00324 110.99676,336 114,335.00324 118,328.99676 130.99676,306 137.00324,295.00324 150,272.99676 l 14,-24 6,-10.99676 12,-20 12.99676,-22 2.00648,-4.99676 h 1.99352 l 20,-9.00324 15.00324,-6 4.99676,8.99676 4,2.00648 L 242,170 l -0.99676,-2 -4,-4 H 230 l -7.00324,-10 z m 6,20 h 9.00324 L 186,175.00324 v 5.99352 l -8.99676,16 L 166.99676,216 164,216.99676 l -5.00324,-8 L 158,204 168,179.00324 Z M 229.00324,184.99676 218,190 l 0.99676,9.00324 -4,2.99676 h -5.99352 l -4,-6.99676 h -2.00648 l -13.99352,24 L 174,244.99676 l -14,24 -14.99676,26.00648 L 134.99676,312 121.00324,336 120,340.99676 h 6 L 130.99676,336 l 22.00648,-28 28,-36 20,-26 13.99352,-18 L 224,216 237.00324,200 238,195.00324 l -4.99676,-8 z"
     transform="translate(1166,98)"
     sodipodi:nodetypes="ccccccccccccccccccccccccccccccccccccccccccccccccccccccccccccccccccccccccccccccccccccccccccccccccccccccccccccccccccccccccccccccccccccccccccccccccccccccccccccccccccccccccccccccccccccccccccccccccccccccccccccccccccccccccccccccccccccccccccccccccccccccccccccccccccccccccccccccccccccccccccccccccccccccccccccccccccccccccccccccccccccccccccccccccccccccccccccccccccccccccccccccccccccccccccccccccccccccccccccccccccccccccccccccccccccccccccccccccccccccccccccccccccccccccccccccccccccccccccccccccccccccccccccccccccccccccccccccccccccccccccccccccccccccccccccccccccccccccccccccccccccccccccccccccccccccccccccccccccccccccccccccccccccccccccccccccccccccccccccccccccccccccccccccccccccccccccccccc" />
</svg>
